SplineFontDB: 3.2
FontName: Untitled1
FullName: Untitled1
FamilyName: Untitled1
Weight: Regular
Copyright: Copyright (c) 2025, Unknown
UComments: "2025-8-25: Created with FontForge (http://fontforge.org)"
Version: 001.000
ItalicAngle: 0
UnderlinePosition: -98.6328
UnderlineWidth: 48.8281
Ascent: 800
Descent: 200
InvalidEm: 0
LayerCount: 2
Layer: 0 0 "Back" 1
Layer: 1 0 "Fore" 0
XUID: [1021 138 1094769649 11820353]
BaseHoriz: 0
FSType: 0
OS2Version: 0
OS2_WeightWidthSlopeOnly: 0
OS2_UseTypoMetrics: 1
CreationTime: 1756129383
ModificationTime: 1756416367
PfmFamily: 17
TTFWeight: 400
TTFWidth: 5
LineGap: 90
VLineGap: 0
OS2TypoAscent: 0
OS2TypoAOffset: 1
OS2TypoDescent: 0
OS2TypoDOffset: 1
OS2TypoLinegap: 90
OS2WinAscent: 0
OS2WinAOffset: 1
OS2WinDescent: 0
OS2WinDOffset: 1
HheadAscent: 0
HheadAOffset: 1
HheadDescent: 0
HheadDOffset: 1
OS2Vendor: 'PfEd'
OS2CodePages: 00000000.00000000
OS2UnicodeRanges: 00000000.10000000.00000000.00000000
MarkAttachClasses: 1
DEI: 91125
Encoding: Custom
UnicodeInterp: none
NameList: AGL For New Fonts
DisplaySize: -96
AntiAlias: 1
FitToEm: 0
WinInfo: 25 5 3
BeginPrivate: 0
EndPrivate
BeginChars: 264 128

StartChar: uniE000
Encoding: 0 57344 0
Width: 989
VWidth: 983
Flags: HW
LayerCount: 2
Fore
SplineSet
932 300 m 0
 932 59 736 -137 495 -137 c 0
 254 -137 57 59 57 300 c 0
 57 541 254 738 495 738 c 0
 736 738 932 541 932 300 c 0
978 300 m 0
 978 567 762 783 495 783 c 0
 228 783 12 567 12 300 c 0
 12 33 228 -183 495 -183 c 0
 762 -183 978 33 978 300 c 0
227 46 m 1
 447 617 l 1
 528 617 l 1
 762 46 l 1
 676 46 l 1
 609 219 l 1
 370 219 l 1
 308 46 l 1
 227 46 l 1
392 280 m 1
 586 280 l 1
 526 439 l 2
 508 487 495 526 486 557 c 1
 479 520 468 484 455 448 c 2
 392 280 l 1
441 626 m 1
 534 626 l 1
 775 37 l 1
 670 37 l 1
 603 210 l 1
 376 210 l 1
 314 37 l 1
 215 37 l 1
 441 626 l 1
453 609 m 1
 240 54 l 1
 302 54 l 1
 364 227 l 1
 615 227 l 1
 682 54 l 1
 749 54 l 1
 522 609 l 1
 453 609 l 1
494 560 m 1
 494 560 l 1
 503 529 516 490 534 442 c 1
 534 442 l 1
 598 272 l 1
 380 272 l 1
 447 451 l 2
 460 487 470 523 477 559 c 1
 494 560 l 1
487 525 m 2
 487 525 l 1
 480 498 473 472 463 445 c 2
 463 445 l 1
 404 289 l 1
 573 289 l 1
 518 436 l 2
 505 471 495 499 487 525 c 2
EndSplineSet
EndChar

StartChar: uniE001
Encoding: 1 57345 1
Width: 967
VWidth: 1006
Flags: HW
LayerCount: 2
Fore
SplineSet
47 300 m 0
 47 541 243 738 484 738 c 0
 725 738 920 541 920 300 c 0
 920 59 725 -137 484 -137 c 0
 243 -137 47 59 47 300 c 0
0 300 m 0
 0 33 217 -183 484 -183 c 0
 751 -183 967 33 967 300 c 0
 967 567 751 783 484 783 c 0
 217 783 0 567 0 300 c 0
295 15 m 1
 295 587 l 1
 509 587 l 2
 553 587 589 580 615 568 c 0
 641 557 662 539 677 515 c 0
 692 491 700 465 700 439 c 0
 700 415 693 393 679 372 c 0
 665 351 646 333 620 319 c 1
 654 309 680 292 699 268 c 0
 718 244 727 213 727 180 c 0
 727 154 720 129 709 106 c 0
 698 83 685 65 668 53 c 0
 651 41 630 30 605 24 c 0
 580 18 549 15 513 15 c 2
 295 15 l 1
371 347 m 1
 495 347 l 2
 529 347 552 348 567 353 c 0
 587 359 600 368 610 382 c 0
 620 396 625 412 625 432 c 0
 625 452 620 466 611 481 c 0
 602 496 590 507 573 512 c 0
 556 517 526 519 485 519 c 2
 371 519 l 1
 371 347 l 1
371 83 m 1
 513 83 l 2
 537 83 555 85 565 86 c 0
 582 90 597 95 609 102 c 0
 621 109 630 119 637 133 c 0
 644 148 649 161 649 180 c 0
 649 201 643 220 632 236 c 0
 621 252 607 263 587 269 c 0
 567 275 539 278 503 278 c 2
 371 278 l 1
 371 83 l 1
288 595 m 1
 509 595 l 2
 554 595 591 589 619 577 c 0
 647 565 668 545 684 520 c 0
 700 495 708 467 708 439 c 0
 708 414 702 390 687 367 c 0
 676 348 659 333 639 321 c 1
 667 310 690 293 706 272 c 0
 726 247 735 215 735 180 c 0
 735 152 730 127 718 103 c 0
 706 79 692 60 673 46 c 0
 654 32 633 24 608 17 c 2
 608 17 l 1
 608 17 l 2
 583 11 549 7 513 7 c 2
 288 7 l 1
 288 595 l 1
304 578 m 1
 304 23 l 1
 513 23 l 2
 549 23 579 27 603 33 c 0
 627 39 648 48 664 60 c 0
 680 71 692 88 703 109 c 2
 703 109 l 1
 703 109 l 2
 714 130 718 155 718 180 c 0
 718 211 710 239 693 262 c 2
 693 263 l 1
 693 263 l 2
 676 286 651 302 618 312 c 2
 595 317 l 1
 616 327 l 2
 641 339 660 355 672 376 c 0
 684 397 690 416 690 439 c 0
 690 463 684 489 669 512 c 2
 669 512 l 1
 669 512 l 2
 655 535 636 551 611 562 c 2
 611 562 l 1
 611 562 l 2
 587 573 551 578 509 578 c 2
 304 578 l 1
363 527 m 1
 485 527 l 2
 526 527 555 525 575 519 c 0
 594 513 609 502 619 486 c 0
 629 470 633 453 633 432 c 0
 633 411 629 392 618 377 c 2
 618 377 l 2
 607 362 590 351 569 345 c 2
 569 345 l 2
 553 340 529 338 495 338 c 2
 363 338 l 1
 363 527 l 1
379 510 m 1
 379 354 l 1
 495 354 l 2
 528 354 550 357 564 361 c 2
 564 361 l 1
 564 361 l 2
 583 366 594 375 603 387 c 2
 603 387 l 1
 603 387 l 2
 612 399 616 413 616 432 c 0
 616 451 613 463 604 477 c 2
 604 477 l 1
 604 477 l 2
 595 491 585 498 570 503 c 2
 570 503 l 1
 570 503 l 2
 555 508 526 510 485 510 c 2
 379 510 l 1
363 287 m 1
 503 287 l 2
 539 287 568 284 589 277 c 2
 589 277 l 2
 610 270 627 258 639 241 c 0
 651 224 658 203 658 180 c 0
 658 160 654 144 645 128 c 2
 645 128 l 1
 645 128 l 2
 636 113 627 103 613 94 c 0
 599 85 586 81 567 77 c 2
 567 77 l 2
 556 75 537 73 513 73 c 2
 363 73 l 1
 363 287 l 1
379 270 m 1
 379 92 l 1
 513 92 l 2
 537 92 554 93 563 94 c 2
 563 94 l 1
 563 94 l 2
 580 96 593 102 604 108 c 0
 615 114 622 125 629 137 c 0
 636 149 640 163 640 180 c 0
 640 200 635 216 625 231 c 2
 625 231 l 1
 625 231 l 2
 615 246 603 256 584 262 c 2
 583 262 l 1
 583 262 l 2
 564 268 539 270 503 270 c 2
 379 270 l 1
EndSplineSet
EndChar

StartChar: uniE002
Encoding: 2 57346 2
Width: 967
VWidth: 1006
Flags: HW
LayerCount: 2
Fore
SplineSet
47 300 m 0
 47 541 243 738 484 738 c 0
 725 738 920 541 920 300 c 0
 920 59 725 -137 484 -137 c 0
 243 -137 47 59 47 300 c 0
0 300 m 0
 0 33 217 -183 484 -183 c 0
 751 -183 967 33 967 300 c 0
 967 567 751 783 484 783 c 0
 217 783 0 567 0 300 c 0
222 15 m 1
 443 312 l 1
 249 587 l 1
 338 587 l 1
 442 439 l 2
 463 409 479 385 488 369 c 1
 500 390 516 412 533 435 c 2
 648 587 l 1
 730 587 l 1
 530 317 l 1
 746 15 l 1
 653 15 l 1
 508 219 l 2
 499 231 493 243 484 257 c 1
 472 236 461 221 456 214 c 2
 313 15 l 1
 222 15 l 1
232 595 m 1
 343 595 l 1
 449 444 l 1
 449 444 l 2
 466 420 478 401 488 385 c 1
 499 402 511 420 526 439 c 2
 644 595 l 1
 748 595 l 1
 540 317 l 1
 763 7 l 1
 648 7 l 1
 500 214 l 1
 500 214 l 2
 494 223 490 231 484 241 c 1
 475 227 467 215 463 209 c 2
 463 209 l 1
 318 7 l 1
 205 7 l 1
 433 312 l 1
 232 595 l 1
264 578 m 1
 454 312 l 1
 239 23 l 1
 308 23 l 1
 449 219 l 2
 454 226 465 241 477 262 c 2
 484 273 l 1
 491 262 l 2
 500 248 506 236 515 224 c 2
 515 224 l 1
 515 224 l 1
 656 23 l 1
 729 23 l 1
 519 317 l 1
 713 578 l 1
 653 578 l 1
 540 430 l 1
 540 430 l 2
 523 409 507 387 495 366 c 2
 488 353 l 1
 480 366 l 2
 471 382 456 405 435 435 c 1
 435 435 l 1
 333 578 l 1
 264 578 l 1
EndSplineSet
EndChar

StartChar: uniE003
Encoding: 3 57347 3
Width: 967
VWidth: 1006
Flags: HW
LayerCount: 2
Fore
SplineSet
47 300 m 0
 47 541 243 738 484 738 c 0
 725 738 920 541 920 300 c 0
 920 59 725 -137 484 -137 c 0
 243 -137 47 59 47 300 c 0
0 300 m 0
 0 33 217 -183 484 -183 c 0
 751 -183 967 33 967 300 c 0
 967 567 751 783 484 783 c 0
 217 783 0 567 0 300 c 0
446 -32 m 1
 446 211 l 1
 225 539 l 1
 318 539 l 1
 430 367 l 2
 451 334 470 304 489 271 c 1
 506 301 526 334 550 372 c 2
 661 539 l 1
 750 539 l 1
 522 211 l 1
 522 -32 l 1
 446 -32 l 1
209 548 m 1
 323 548 l 1
 438 372 l 1
 438 372 l 2
 457 344 473 315 489 287 c 1
 505 313 522 344 543 377 c 2
 543 377 l 1
 658 548 l 1
 767 548 l 1
 530 208 l 1
 530 -41 l 1
 438 -41 l 1
 438 208 l 1
 209 548 l 1
243 531 m 1
 455 213 l 1
 455 -23 l 1
 513 -23 l 1
 513 213 l 1
 734 531 l 1
 666 531 l 1
 558 367 l 1
 558 367 l 2
 534 329 513 296 496 267 c 2
 489 253 l 1
 482 267 l 2
 463 298 444 331 423 362 c 2
 313 531 l 1
 243 531 l 1
EndSplineSet
EndChar

StartChar: uniE004
Encoding: 4 57348 4
Width: 868
VWidth: 1018
Flags: HW
LayerCount: 2
Fore
SplineSet
868 576.5 m 1
 868 23.5 l 1
 0 23.5 l 1
 3 40.5 l 1
 3 40.5 21 172.5 78 304.5 c 0
 107 370.5 146 438.5 198 489.5 c 0
 250 540.5 317 575.5 400 575.5 c 2
 868 576.5 l 1
837 545.5 m 1
 400 544.5 l 2
 326 544.5 268 514.5 219 467.5 c 0
 170 420.5 133 356.5 105 292.5 c 0
 55 178.5 40 77.5 36 54.5 c 1
 837 54.5 l 1
 837 545.5 l 1
416 165.5 m 1
 416 434.5 l 1
 453 434.5 l 1
 453 198.5 l 1
 584 198.5 l 1
 584 165.5 l 1
 416 165.5 l 1
404 448.5 m 1
 464 448.5 l 1
 464 210.5 l 1
 597 210.5 l 1
 597 153.5 l 1
 404 153.5 l 1
 404 448.5 l 1
429 420.5 m 1
 429 178.5 l 1
 571 178.5 l 1
 571 184.5 l 1
 439 184.5 l 1
 439 420.5 l 1
 429 420.5 l 1
EndSplineSet
EndChar

StartChar: uniE005
Encoding: 5 57349 5
Width: 868
VWidth: 1018
Flags: HW
LayerCount: 2
Fore
SplineSet
0 576.5 m 1
 467 575.5 l 2
 550 575.5 617 540.5 669 489.5 c 0
 721 438.5 761 370.5 790 304.5 c 0
 847 172.5 865 40.5 865 40.5 c 1
 868 23.5 l 1
 0 23.5 l 1
 0 576.5 l 1
31 545.5 m 1
 31 54.5 l 1
 831 54.5 l 1
 827 77.5 812 178.5 762 292.5 c 0
 734 356.5 698 420.5 649 467.5 c 0
 600 514.5 541 544.5 467 544.5 c 2
 31 545.5 l 1
265 165.5 m 1
 265 434.5 l 1
 385 434.5 l 2
 409 434.5 428 432.5 440 427.5 c 0
 452 422.5 462 413.5 469 401.5 c 0
 476 389.5 480 376.5 480 361.5 c 0
 480 341.5 474 327.5 462 313.5 c 0
 450 299.5 430 292.5 405 288.5 c 1
 415 283.5 422 279.5 427 274.5 c 0
 438 264.5 446 254.5 456 239.5 c 2
 502 165.5 l 1
 458 165.5 l 1
 422 222.5 l 2
 411 238.5 403 249.5 396 258.5 c 0
 389 267.5 383 272.5 378 276.5 c 0
 373 280.5 369 283.5 363 284.5 c 0
 359 285.5 353 285.5 343 285.5 c 2
 302 285.5 l 1
 302 165.5 l 1
 265 165.5 l 1
302 315.5 m 1
 378 315.5 l 2
 394 315.5 406 316.5 416 320.5 c 0
 426 324.5 431 330.5 436 337.5 c 0
 441 344.5 444 352.5 444 361.5 c 0
 444 373.5 440 383.5 430 392.5 c 0
 420 401.5 407 405.5 387 405.5 c 2
 302 405.5 l 1
 302 315.5 l 1
253 448.5 m 1
 385 448.5 l 2
 409 448.5 429 445.5 444 439.5 c 0
 459 433.5 471 424.5 480 409.5 c 0
 489 394.5 494 378.5 494 361.5 c 0
 494 340.5 487 320.5 472 304.5 c 0
 463 294.5 450 288.5 436 283.5 c 1
 447 273.5 457 261.5 467 246.5 c 2
 467 246.5 l 1
 526 153.5 l 1
 451 153.5 l 1
 411 214.5 l 2
 401 230.5 393 241.5 387 250.5 c 0
 381 259.5 377 263.5 373 265.5 c 2
 373 265.5 l 1
 371 265.5 l 2
 367 267.5 364 270.5 360 271.5 c 0
 358 271.5 352 271.5 343 271.5 c 2
 314 271.5 l 1
 314 153.5 l 1
 253 153.5 l 1
 253 448.5 l 1
279 420.5 m 1
 279 178.5 l 1
 289 178.5 l 1
 289 298.5 l 1
 343 298.5 l 2
 353 298.5 359 296.5 365 295.5 c 2
 365 295.5 l 1
 366 295.5 l 2
 368 295.5 l 2
 404 300.5 l 2
 428 304.5 443 311.5 453 321.5 c 0
 463 332.5 468 345.5 468 361.5 c 0
 468 373.5 464 385.5 458 395.5 c 0
 452 405.5 445 411.5 435 415.5 c 2
 435 415.5 l 1
 435 415.5 l 2
 425 419.5 408 420.5 385 420.5 c 2
 279 420.5 l 1
289 417.5 m 1
 387 417.5 l 2
 408 417.5 427 412.5 439 401.5 c 0
 451 390.5 458 377.5 458 361.5 c 0
 458 350.5 454 340.5 448 330.5 c 2
 448 330.5 l 1
 448 330.5 l 2
 442 320.5 431 313.5 420 309.5 c 2
 420 309.5 l 1
 420 309.5 l 2
 409 305.5 395 303.5 378 303.5 c 2
 289 303.5 l 1
 289 417.5 l 1
314 392.5 m 1
 314 329.5 l 1
 378 329.5 l 2
 394 329.5 404 330.5 411 332.5 c 0
 418 334.5 421 339.5 425 344.5 c 0
 429 350.5 432 355.5 432 361.5 c 0
 432 371.5 429 377.5 422 383.5 c 2
 422 383.5 l 1
 422 383.5 l 2
 416 388.5 406 392.5 387 392.5 c 2
 314 392.5 l 1
385 288.5 m 1
 385 288.5 l 1
 385 288.5 l 0
 385 288.5 l 1
 385 288.5 l 1
394 279.5 m 1
 398 275.5 404 272.5 408 267.5 c 0
 415 257.5 422 245.5 433 229.5 c 2
 433 229.5 l 1
 464 178.5 l 1
 479 178.5 l 1
 445 231.5 l 1
 445 231.5 l 1
 436 245.5 428 256.5 418 265.5 c 0
 414 269.5 408 272.5 399 276.5 c 2
 394 279.5 l 1
EndSplineSet
EndChar

StartChar: uniE006
Encoding: 6 57350 6
Width: 842
VWidth: 1005
Flags: HW
LayerCount: 2
Fore
SplineSet
26 429.5 m 1
 280 429.5 l 2
 287 429.5 292 435.5 292 442.5 c 2
 292 695.5 l 1
 551 695.5 l 1
 551 442.5 l 2
 551 435.5 556 429.5 563 429.5 c 2
 817 429.5 l 1
 817 171.5 l 1
 563 171.5 l 2
 556 171.5 551 164.5 551 157.5 c 2
 551 -94.5 l 1
 292 -94.5 l 1
 292 157.5 l 2
 292 164.5 287 171.5 280 171.5 c 2
 26 171.5 l 1
 26 429.5 l 1
577 456.5 m 1
 577 708.5 l 2
 577 715.5 570 721.5 563 721.5 c 2
 280 721.5 l 2
 273 721.5 266 715.5 266 708.5 c 2
 266 456.5 l 1
 13 456.5 l 2
 6 456.5 0 449.5 0 442.5 c 2
 0 157.5 l 2
 0 150.5 6 144.5 13 144.5 c 2
 266 144.5 l 1
 266 -107.5 l 2
 266 -114.5 273 -121.5 280 -121.5 c 2
 563 -121.5 l 2
 570 -121.5 577 -114.5 577 -107.5 c 2
 577 144.5 l 1
 830 144.5 l 2
 837 144.5 842 150.5 842 157.5 c 2
 842 442.5 l 2
 842 449.5 837 456.5 830 456.5 c 2
 577 456.5 l 1
EndSplineSet
EndChar

StartChar: uniE007
Encoding: 7 57351 7
Width: 848
VWidth: 954
Flags: HW
LayerCount: 2
Fore
SplineSet
0 555 m 1
 166 704 l 1
 260 597 l 1
 95 449 l 1
 0 555 l 1
848 556 m 1
 752 449 l 1
 587 597 l 1
 681 704 l 1
 848 556 l 1
124 248 m 0
 124 414 258 550 424 550 c 0
 590 550 725 414 725 248 c 0
 725 82 590 -53 424 -53 c 0
 258 -53 124 82 124 248 c 0
73 248 m 0
 73 54 230 -104 424 -104 c 0
 618 -104 776 54 776 248 c 0
 776 442 618 602 424 602 c 0
 230 602 73 442 73 248 c 0
390 215 m 1
 390 476 l 1
 458 476 l 1
 458 215 l 1
 390 215 l 1
393 282 m 1
 594 282 l 1
 594 215 l 1
 393 215 l 1
 393 282 l 1
EndSplineSet
EndChar

StartChar: uniE008
Encoding: 8 57352 8
Width: 790
VWidth: 1006
Flags: HW
LayerCount: 2
Fore
SplineSet
34 -94 m 2
 756 -94 l 2
 775 -94 790 -80 790 -61 c 2
 790 662 l 2
 790 681 775 694 756 694 c 2
 34 694 l 2
 15 694 0 681 0 662 c 2
 0 -61 l 2
 0 -80 15 -94 34 -94 c 2
723 -27 m 1
 67 -27 l 1
 67 629 l 1
 723 629 l 1
 723 -27 l 1
291 339 m 2
 326 339 l 2
 345 339 359 353 359 372 c 2
 359 523 l 2
 359 542 345 557 326 557 c 2
 291 557 l 2
 272 557 258 542 258 523 c 2
 258 372 l 2
 258 353 272 339 291 339 c 2
550 104 m 2
 550 138 l 2
 550 157 537 171 518 171 c 2
 272 171 l 2
 253 171 240 157 240 138 c 2
 240 104 l 2
 240 85 253 69 272 69 c 2
 518 69 l 2
 537 69 550 85 550 104 c 2
260 173 m 2
 260 207 l 2
 260 226 247 241 228 241 c 2
 195 241 l 2
 176 241 161 226 161 207 c 2
 161 173 l 2
 161 154 176 139 195 139 c 2
 228 139 l 2
 247 139 260 154 260 173 c 2
629 173 m 2
 629 207 l 2
 629 226 614 241 595 241 c 2
 562 241 l 2
 543 241 530 226 530 207 c 2
 530 173 l 2
 530 154 543 139 562 139 c 2
 595 139 l 2
 614 139 629 154 629 173 c 2
464 339 m 2
 500 339 l 2
 519 339 532 353 532 372 c 2
 532 523 l 2
 532 542 519 557 500 557 c 2
 464 557 l 2
 445 557 431 542 431 523 c 2
 431 372 l 2
 431 353 445 339 464 339 c 2
EndSplineSet
EndChar

StartChar: uniE009
Encoding: 9 57353 9
Width: 790
VWidth: 1006
Flags: HW
LayerCount: 2
Fore
SplineSet
34 -94 m 2
 756 -94 l 2
 775 -94 790 -80 790 -61 c 2
 790 662 l 2
 790 681 775 694 756 694 c 2
 34 694 l 2
 15 694 0 681 0 662 c 2
 0 -61 l 2
 0 -80 15 -94 34 -94 c 2
723 -27 m 1
 67 -27 l 1
 67 629 l 1
 723 629 l 1
 723 -27 l 1
550 207 m 2
 550 173 l 2
 550 154 537 139 518 139 c 2
 272 139 l 2
 253 139 240 154 240 173 c 2
 240 207 l 2
 240 226 253 241 272 241 c 2
 518 241 l 2
 537 241 550 226 550 207 c 2
260 138 m 2
 260 104 l 2
 260 85 247 69 228 69 c 2
 195 69 l 2
 176 69 161 85 161 104 c 2
 161 138 l 2
 161 157 176 171 195 171 c 2
 228 171 l 2
 247 171 260 157 260 138 c 2
280 510 m 2
 280 475 l 2
 280 456 266 442 247 442 c 2
 213 442 l 2
 194 442 180 456 180 475 c 2
 180 510 l 2
 180 529 194 543 213 543 c 2
 247 543 l 2
 266 543 280 529 280 510 c 2
348 435 m 2
 348 401 l 2
 348 382 334 368 315 368 c 2
 282 368 l 2
 263 368 249 382 249 401 c 2
 249 435 l 2
 249 454 263 469 282 469 c 2
 315 469 l 2
 334 469 348 454 348 435 c 2
510 512 m 2
 510 478 l 2
 510 459 524 443 543 443 c 2
 577 443 l 2
 596 443 610 459 610 478 c 2
 610 512 l 2
 610 531 596 546 577 546 c 2
 543 546 l 2
 524 546 510 531 510 512 c 2
442 437 m 2
 442 403 l 2
 442 384 456 369 475 369 c 2
 508 369 l 2
 527 369 542 384 542 403 c 2
 542 437 l 2
 542 456 527 470 508 470 c 2
 475 470 l 2
 456 470 442 456 442 437 c 2
629 138 m 2
 629 104 l 2
 629 85 614 69 595 69 c 2
 562 69 l 2
 543 69 530 85 530 104 c 2
 530 138 l 2
 530 157 543 171 562 171 c 2
 595 171 l 2
 614 171 629 157 629 138 c 2
EndSplineSet
EndChar

StartChar: uniE00A
Encoding: 10 57354 10
Width: 790
VWidth: 1006
Flags: HW
LayerCount: 2
Fore
SplineSet
34 -94 m 2
 756 -94 l 2
 775 -94 790 -80 790 -61 c 2
 790 662 l 2
 790 681 775 694 756 694 c 2
 34 694 l 2
 15 694 0 681 0 662 c 2
 0 -61 l 2
 0 -80 15 -94 34 -94 c 2
723 -27 m 1
 67 -27 l 1
 67 629 l 1
 723 629 l 1
 723 -27 l 1
249 432 m 2
 249 397 l 2
 249 378 263 363 282 363 c 2
 315 363 l 2
 334 363 348 378 348 397 c 2
 348 432 l 2
 348 451 334 466 315 466 c 2
 282 466 l 2
 263 466 249 451 249 432 c 2
180 357 m 2
 180 323 l 2
 180 304 194 289 213 289 c 2
 247 289 l 2
 266 289 280 304 280 323 c 2
 280 357 l 2
 280 376 266 390 247 390 c 2
 213 390 l 2
 194 390 180 376 180 357 c 2
542 434 m 2
 542 398 l 2
 542 379 527 366 508 366 c 2
 475 366 l 2
 456 366 442 379 442 398 c 2
 442 434 l 2
 442 453 456 467 475 467 c 2
 508 467 l 2
 527 467 542 453 542 434 c 2
610 359 m 2
 610 324 l 2
 610 305 596 292 577 292 c 2
 543 292 l 2
 524 292 510 305 510 324 c 2
 510 359 l 2
 510 378 524 393 543 393 c 2
 577 393 l 2
 596 393 610 378 610 359 c 2
445 138 m 2
 445 104 l 2
 445 85 431 69 412 69 c 2
 378 69 l 2
 359 69 345 85 345 104 c 2
 345 138 l 2
 345 157 359 171 378 171 c 2
 412 171 l 2
 431 171 445 157 445 138 c 2
EndSplineSet
EndChar

StartChar: NameMe.11
Encoding: 11 57355 11
Width: 790
VWidth: 1006
Flags: HW
LayerCount: 2
Fore
SplineSet
34 -94 m 2
 756 -94 l 2
 775 -94 790 -80 790 -61 c 2
 790 662 l 2
 790 681 775 694 756 694 c 2
 34 694 l 2
 15 694 0 681 0 662 c 2
 0 -61 l 2
 0 -80 15 -94 34 -94 c 2
723 -27 m 1
 67 -27 l 1
 67 629 l 1
 723 629 l 1
 723 -27 l 1
186 432 m 2
 186 397 l 2
 186 378 200 363 219 363 c 2
 315 363 l 2
 334 363 348 378 348 397 c 2
 348 432 l 2
 348 451 334 466 315 466 c 2
 219 466 l 2
 200 466 186 451 186 432 c 2
442 432 m 2
 442 397 l 2
 442 378 456 363 475 363 c 2
 571 363 l 2
 590 363 604 378 604 397 c 2
 604 432 l 2
 604 451 590 466 571 466 c 2
 475 466 l 2
 456 466 442 451 442 432 c 2
540 161 m 2
 540 127 l 2
 540 108 525 94 506 94 c 2
 284 94 l 2
 265 94 250 108 250 127 c 2
 250 161 l 2
 250 180 265 194 284 194 c 2
 506 194 l 2
 525 194 540 180 540 161 c 2
EndSplineSet
EndChar

StartChar: NameMe.12
Encoding: 12 57356 12
Width: 862
VWidth: 1005
Flags: HW
LayerCount: 2
Fore
SplineSet
431 562 m 0
 576 562 692 444 692 299 c 0
 692 154 576 38 431 38 c 0
 286 38 170 154 170 299 c 0
 170 444 286 562 431 562 c 0
431 517 m 0
 311 517 214 419 214 299 c 0
 214 179 311 82 431 82 c 0
 551 82 648 179 648 299 c 0
 648 419 551 517 431 517 c 0
68 299 m 0
 68 283 57 271 41 271 c 0
 25 271 12 283 12 299 c 0
 12 315 25 327 41 327 c 0
 57 327 68 315 68 299 c 0
41 340 m 0
 62 340 81 320 81 299 c 0
 81 278 62 261 41 261 c 0
 20 261 0 278 0 299 c 0
 0 320 20 340 41 340 c 0
41 316 m 0
 32 316 25 308 25 299 c 0
 25 290 32 283 41 283 c 0
 50 283 56 290 56 299 c 0
 56 308 50 316 41 316 c 0
195 565 m 0
 195 549 183 537 167 537 c 0
 151 537 139 549 139 565 c 0
 139 581 151 593 167 593 c 0
 183 593 195 581 195 565 c 0
167 604 m 0
 188 604 206 586 206 565 c 0
 206 544 188 525 167 525 c 0
 146 525 126 544 126 565 c 0
 126 586 146 604 167 604 c 0
167 581 m 0
 158 581 150 574 150 565 c 0
 150 556 158 549 167 549 c 0
 176 549 182 556 182 565 c 0
 182 574 176 581 167 581 c 0
195 35 m 0
 195 19 183 7 167 7 c 0
 151 7 139 19 139 35 c 0
 139 51 151 62 167 62 c 0
 183 62 195 51 195 35 c 0
167 75 m 0
 188 75 206 56 206 35 c 0
 206 14 188 -5 167 -5 c 0
 146 -5 126 14 126 35 c 0
 126 56 146 75 167 75 c 0
167 51 m 0
 158 51 150 44 150 35 c 0
 150 26 158 19 167 19 c 0
 176 19 182 26 182 35 c 0
 182 44 176 51 167 51 c 0
723 35 m 0
 723 19 712 7 696 7 c 0
 680 7 667 19 667 35 c 0
 667 51 680 62 696 62 c 0
 712 62 723 51 723 35 c 0
696 75 m 0
 717 75 736 56 736 35 c 0
 736 14 717 -5 696 -5 c 0
 675 -5 657 14 657 35 c 0
 657 56 675 75 696 75 c 0
696 51 m 0
 687 51 680 44 680 35 c 0
 680 26 687 19 696 19 c 0
 705 19 712 26 712 35 c 0
 712 44 705 51 696 51 c 0
723 565 m 0
 723 549 712 537 696 537 c 0
 680 537 667 549 667 565 c 0
 667 581 680 593 696 593 c 0
 712 593 723 581 723 565 c 0
696 604 m 0
 717 604 736 586 736 565 c 0
 736 544 717 525 696 525 c 0
 675 525 657 544 657 565 c 0
 657 586 675 604 696 604 c 0
696 581 m 0
 687 581 680 574 680 565 c 0
 680 556 687 549 696 549 c 0
 705 549 712 556 712 565 c 0
 712 574 705 581 696 581 c 0
850 299 m 0
 850 283 838 271 822 271 c 0
 806 271 794 283 794 299 c 0
 794 315 806 327 822 327 c 0
 838 327 850 315 850 299 c 0
822 340 m 0
 843 340 862 320 862 299 c 0
 862 278 843 261 822 261 c 0
 801 261 782 278 782 299 c 0
 782 320 801 340 822 340 c 0
822 316 m 0
 813 316 806 308 806 299 c 0
 806 290 813 283 822 283 c 0
 831 283 837 290 837 299 c 0
 837 308 831 316 822 316 c 0
459 690 m 0
 459 674 447 662 431 662 c 0
 415 662 403 674 403 690 c 0
 403 706 415 718 431 718 c 0
 447 718 459 706 459 690 c 0
431 730 m 0
 452 730 471 711 471 690 c 0
 471 669 452 651 431 651 c 0
 410 651 391 669 391 690 c 0
 391 711 410 730 431 730 c 0
431 707 m 0
 422 707 416 699 416 690 c 0
 416 681 422 674 431 674 c 0
 440 674 447 681 447 690 c 0
 447 699 440 707 431 707 c 0
459 -92 m 0
 459 -108 447 -118 431 -118 c 0
 415 -118 403 -108 403 -92 c 0
 403 -76 415 -63 431 -63 c 0
 447 -63 459 -76 459 -92 c 0
431 -52 m 0
 452 -52 471 -71 471 -92 c 0
 471 -113 452 -130 431 -130 c 0
 410 -130 391 -113 391 -92 c 0
 391 -71 410 -52 431 -52 c 0
431 -74 m 0
 422 -74 416 -83 416 -92 c 0
 416 -101 422 -107 431 -107 c 0
 440 -107 447 -101 447 -92 c 0
 447 -83 440 -74 431 -74 c 0
EndSplineSet
EndChar

StartChar: NameMe.13
Encoding: 13 57357 13
Width: 817
VWidth: 1005
Flags: HW
LayerCount: 2
Fore
SplineSet
507 551.5 m 0
 572 551.5 628 497.5 632 427.5 c 0
 632 421.5 637 416.5 643 415.5 c 0
 728 401.5 791 327.5 791 236.5 c 0
 791 135.5 714 53.5 619 53.5 c 0
 568 53.5 520 77.5 487 118.5 c 0
 485 120.5 481 123.5 477 123.5 c 0
 472 123.5 467 121.5 465 117.5 c 0
 444 75.5 401 47.5 355 47.5 c 0
 320 47.5 284 63.5 260 91.5 c 0
 258 93.5 254 96.5 250 96.5 c 0
 246 96.5 245 93.5 243 91.5 c 0
 219 66.5 186 51.5 152 51.5 c 0
 83 51.5 27 109.5 27 183.5 c 0
 27 254.5 81 314.5 147 316.5 c 0
 154 316.5 159 321.5 159 328.5 c 0
 159 329.5 158 331.5 158 332.5 c 0
 152 348.5 149 363.5 149 380.5 c 0
 149 454.5 206 512.5 275 512.5 c 0
 311 512.5 346 496.5 370 467.5 c 0
 372 465.5 375 462.5 379 462.5 c 0
 384 462.5 390 466.5 392 471.5 c 0
 412 520.5 457 551.5 507 551.5 c 0
657 438.5 m 1
 647 516.5 585 577.5 507 577.5 c 0
 452 577.5 401 547.5 375 498.5 c 1
 347 523.5 313 538.5 275 538.5 c 0
 191 538.5 124 466.5 124 380.5 c 0
 124 365.5 125 353.5 129 339.5 c 1
 56 327.5 0 261.5 0 183.5 c 0
 0 97.5 68 26.5 152 26.5 c 0
 188 26.5 222 41.5 250 65.5 c 1
 278 37.5 316 22.5 355 22.5 c 0
 405 22.5 451 48.5 479 89.5 c 1
 515 50.5 567 28.5 619 28.5 c 0
 729 28.5 817 122.5 817 236.5 c 0
 817 335.5 749 418.5 657 438.5 c 1
EndSplineSet
EndChar

StartChar: NameMe.14
Encoding: 14 57358 14
Width: 723
VWidth: 974
Flags: HW
LayerCount: 2
Fore
SplineSet
343 696 m 2
 382 696 l 1
 397 696 409 685 409 670 c 2
 409 617 l 1
 586 596 723 463 723 299 c 0
 723 284 712 271 697 271 c 2
 409 271 l 1
 409 -69 l 1
 409 -84 397 -96 382 -96 c 2
 343 -96 l 1
 328 -96 316 -84 316 -69 c 2
 316 271 l 1
 27 271 l 1
 12 271 0 284 0 299 c 0
 0 464 139 596 316 617 c 1
 316 670 l 1
 316 685 328 696 343 696 c 2
363 575 m 1
 358 570 352 566 345 566 c 0
 191 559 72 454 57 325 c 1
 343 325 l 1
 350 325 358 321 363 316 c 1
 368 321 375 325 382 325 c 2
 667 325 l 1
 652 452 534 557 381 566 c 0
 374 566 368 570 363 575 c 1
343 670 m 1
 382 670 l 1
 382 594 l 1
 557 584 697 455 697 299 c 1
 382 299 l 1
 382 -69 l 1
 343 -69 l 1
 343 299 l 1
 27 299 l 1
 27 457 167 585 343 594 c 1
 343 670 l 1
381 -3 m 1
 449 -3 l 1
 456 -3 462 -8 462 -15 c 2
 462 -15 l 2
 462 -60 426 -96 381 -96 c 2
 381 -96 l 2
 374 -96 368 -91 368 -84 c 2
 368 -15 l 2
 368 -15 l 2
 368 -8 374 -3 381 -3 c 2
 381 -3 l 1
393 -28 m 1
 393 -68 l 1
 414 -63 428 -49 433 -28 c 1
 393 -28 l 1
449 -15 m 1
 449 -53 419 -84 381 -84 c 1
 381 -15 l 1
 449 -15 l 1
EndSplineSet
EndChar

StartChar: NameMe.15
Encoding: 15 57359 15
Width: 422
VWidth: 1013
Flags: HW
LayerCount: 2
Fore
SplineSet
211 645 m 0
 274 645 332 584 332 500 c 0
 332 454 313 411 287 385 c 0
 283 381 281 378 281 373 c 0
 281 367 286 360 291 356 c 0
 347 322 386 251 386 167 c 0
 386 48 305 -44 211 -44 c 0
 117 -44 37 48 37 167 c 0
 37 251 76 322 132 356 c 0
 137 360 142 367 142 373 c 0
 142 378 140 381 136 385 c 0
 110 411 91 454 91 500 c 0
 91 584 148 645 211 645 c 0
211 681 m 0
 121 681 55 599 55 500 c 0
 55 453 71 408 96 375 c 1
 37 330 0 253 0 167 c 0
 0 32 92 -81 211 -81 c 0
 330 -81 422 32 422 167 c 0
 422 253 386 330 327 375 c 1
 352 408 368 453 368 500 c 0
 368 599 301 681 211 681 c 0
EndSplineSet
EndChar

StartChar: NameMe.16
Encoding: 16 57360 16
Width: 788
VWidth: 1005
Flags: HW
LayerCount: 2
Fore
SplineSet
19 693.5 m 2
 769 693.5 l 1
 779 693.5 788 685.5 788 675.5 c 2
 788 -76.5 l 1
 788 -86.5 779 -93.5 769 -93.5 c 2
 19 -93.5 l 1
 9 -93.5 0 -86.5 0 -76.5 c 2
 0 675.5 l 1
 0 685.5 9 693.5 19 693.5 c 2
38 656.5 m 1
 38 -57.5 l 1
 750 -57.5 l 1
 750 656.5 l 1
 38 656.5 l 1
19 675.5 m 1
 769 675.5 l 1
 769 -76.5 l 1
 19 -76.5 l 1
 19 675.5 l 1
359 606.5 m 2
 342 606.5 330 594.5 330 577.5 c 2
 330 235.5 l 2
 330 218.5 342 206.5 359 206.5 c 2
 429 206.5 l 2
 446 206.5 458 218.5 458 235.5 c 2
 458 577.5 l 2
 458 594.5 446 606.5 429 606.5 c 2
 359 606.5 l 2
359 122.5 m 2
 342 122.5 330 108.5 330 91.5 c 2
 330 17.5 l 2
 330 0.5 342 -11.5 359 -11.5 c 2
 429 -11.5 l 2
 446 -11.5 458 0.5 458 17.5 c 2
 458 91.5 l 2
 458 108.5 446 122.5 429 122.5 c 2
 359 122.5 l 2
EndSplineSet
EndChar

StartChar: NameMe.17
Encoding: 17 57361 17
Width: 788
VWidth: 1009
Flags: HW
LayerCount: 2
Fore
SplineSet
19 694 m 2
 769 694 l 1
 779 694 788 686 788 676 c 2
 788 676 l 1
 788 -74 l 2
 788 -74 l 2
 788 -84 779 -94 769 -94 c 2
 19 -94 l 1
 9 -94 0 -84 0 -74 c 2
 0 -74 l 1
 0 676 l 2
 0 676 l 2
 0 686 9 694 19 694 c 2
38 657 m 1
 38 -56 l 1
 750 -56 l 1
 750 657 l 1
 38 657 l 1
19 676 m 1
 769 676 l 1
 769 -74 l 1
 19 -74 l 1
 19 676 l 1
375 65 m 2
 359 65 347 52 347 36 c 1
 347 -1 l 1
 347 -1 l 2
 347 -17 359 -30 375 -30 c 1
 413 -30 l 2
 429 -30 441 -17 441 -1 c 2
 441 -1 l 2
 441 36 l 2
 441 52 429 65 413 65 c 1
 375 65 l 2
100 621 m 1
 100 621 l 2
 84 621 71 608 71 592 c 1
 71 553 l 1
 71 553 l 2
 71 537 84 522 100 522 c 2
 100 522 l 2
 610 522 l 1
 610 371 l 1
 377 371 l 1
 377 371 l 2
 361 371 348 358 348 342 c 2
 348 342 l 2
 348 134 l 1
 348 134 l 2
 348 118 361 103 377 103 c 2
 377 103 l 2
 413 103 l 2
 429 103 441 118 441 134 c 1
 441 272 l 1
 677 272 l 2
 693 272 708 287 708 303 c 1
 708 592 l 2
 708 608 693 621 677 621 c 1
 100 621 l 1
EndSplineSet
EndChar

StartChar: NameMe.18
Encoding: 18 57362 18
Width: 864
VWidth: 1005
Flags: HW
LayerCount: 2
Fore
SplineSet
18 22.5 m 2
 846 22.5 l 2
 856 22.5 864 30.5 864 40.5 c 2
 864 558.5 l 2
 864 568.5 856 577.5 846 577.5 c 2
 18 577.5 l 2
 8 577.5 0 568.5 0 558.5 c 2
 0 40.5 l 2
 0 30.5 8 22.5 18 22.5 c 2
827 58.5 m 1
 38 58.5 l 1
 38 540.5 l 1
 827 540.5 l 1
 827 58.5 l 1
8 542.5 m 2
 422 295.5 l 2
 424 294.5 428 292.5 432 292.5 c 0
 436 292.5 440 294.5 442 295.5 c 2
 856 542.5 l 2
 861 546.5 864 551.5 864 558.5 c 0
 864 568.5 856 577.5 846 577.5 c 2
 18 577.5 l 2
 8 577.5 0 568.5 0 558.5 c 0
 0 551.5 3 546.5 8 542.5 c 2
432 332.5 m 1
 86 540.5 l 1
 778 540.5 l 1
 432 332.5 l 1
EndSplineSet
EndChar

StartChar: NameMe.19
Encoding: 19 57363 19
Width: 452
VWidth: 1006
Flags: HW
LayerCount: 2
Fore
SplineSet
384 711 m 1
 452 711 l 1
 452 -111 l 1
 0 -111 l 1
 0 628 l 1
 384 628 l 1
 384 711 l 1
68 546 m 1
 68 306 l 1
 384 306 l 1
 384 546 l 1
 68 546 l 1
81 261 m 2
 74 261 68 255 68 248 c 2
 68 183 l 2
 68 176 74 171 81 171 c 2
 140 171 l 2
 147 171 152 176 152 183 c 2
 152 248 l 2
 152 255 147 261 140 261 c 2
 81 261 l 2
196 261 m 2
 189 261 184 255 184 248 c 2
 184 183 l 2
 184 176 189 171 196 171 c 2
 256 171 l 2
 263 171 268 176 268 183 c 2
 268 248 l 2
 268 255 263 261 256 261 c 2
 196 261 l 2
312 261 m 2
 305 261 300 255 300 248 c 2
 300 183 l 2
 300 176 305 171 312 171 c 2
 372 171 l 2
 379 171 384 176 384 183 c 2
 384 248 l 2
 384 255 379 261 372 261 c 2
 312 261 l 2
81 146 m 2
 74 146 68 140 68 133 c 2
 68 68 l 2
 68 61 74 56 81 56 c 2
 140 56 l 2
 147 56 152 61 152 68 c 2
 152 133 l 2
 152 140 147 146 140 146 c 2
 81 146 l 2
196 146 m 2
 189 146 184 140 184 133 c 2
 184 68 l 2
 184 61 189 56 196 56 c 2
 256 56 l 2
 263 56 268 61 268 68 c 2
 268 133 l 2
 268 140 263 146 256 146 c 2
 196 146 l 2
312 146 m 2
 305 146 300 140 300 133 c 2
 300 68 l 2
 300 61 305 56 312 56 c 2
 372 56 l 2
 379 56 384 61 384 68 c 2
 384 133 l 2
 384 140 379 146 372 146 c 2
 312 146 l 2
81 31 m 2
 74 31 68 25 68 18 c 2
 68 -47 l 2
 68 -54 74 -59 81 -59 c 2
 140 -59 l 2
 147 -59 152 -54 152 -47 c 2
 152 18 l 2
 152 25 147 31 140 31 c 2
 81 31 l 2
196 31 m 2
 189 31 184 25 184 18 c 2
 184 -47 l 2
 184 -54 189 -59 196 -59 c 2
 256 -59 l 2
 263 -59 268 -54 268 -47 c 2
 268 18 l 2
 268 25 263 31 256 31 c 2
 196 31 l 2
312 31 m 2
 305 31 300 25 300 18 c 2
 300 -47 l 2
 300 -54 305 -59 312 -59 c 2
 372 -59 l 2
 379 -59 384 -54 384 -47 c 2
 384 18 l 2
 384 25 379 31 372 31 c 2
 312 31 l 2
EndSplineSet
EndChar

StartChar: NameMe.20
Encoding: 20 57364 20
Width: 848
VWidth: 1006
Flags: HW
LayerCount: 2
Fore
SplineSet
49 723.5 m 2
 799 723.5 l 1
 825 723.5 848 700.5 848 674.5 c 2
 848 -75.5 l 1
 848 -101.5 825 -123.5 799 -123.5 c 2
 49 -123.5 l 1
 23 -123.5 0 -101.5 0 -75.5 c 2
 0 674.5 l 1
 0 700.5 23 723.5 49 723.5 c 2
96 627.5 m 1
 96 -27.5 l 1
 752 -27.5 l 1
 752 627.5 l 1
 96 627.5 l 1
403 513.5 m 2
 446 513.5 l 2
 461 513.5 471 501.5 471 486.5 c 2
 471 349.5 l 1
 610 349.5 l 2
 625 349.5 635 337.5 635 322.5 c 2
 635 279.5 l 2
 635 264.5 625 253.5 610 253.5 c 2
 471 253.5 l 1
 471 116.5 l 2
 471 101.5 461 89.5 446 89.5 c 2
 403 89.5 l 2
 388 89.5 377 101.5 377 116.5 c 2
 377 253.5 l 1
 239 253.5 l 2
 224 253.5 213 264.5 213 279.5 c 2
 213 322.5 l 2
 213 337.5 224 349.5 239 349.5 c 2
 377 349.5 l 1
 377 486.5 l 2
 377 501.5 388 513.5 403 513.5 c 2
EndSplineSet
EndChar

StartChar: NameMe.21
Encoding: 21 57365 21
Width: 758
VWidth: 988
Flags: HW
LayerCount: 2
Fore
SplineSet
379 714.5 m 1
 413 660.5 448 608.5 489 561.5 c 0
 530 514.5 573 476.5 627 430.5 c 0
 681 384.5 744 329.5 756 245.5 c 0
 768 161.5 728 82.5 666 37.5 c 0
 604 -7.5 526 -11.5 481 -7.5 c 0
 447 -3.5 431 10.5 420 21.5 c 1
 445 -86.5 518 -114.5 518 -114.5 c 1
 241 -114.5 l 1
 241 -114.5 313 -86.5 338 21.5 c 1
 327 10.5 312 -3.5 278 -7.5 c 0
 233 -11.5 155 -7.5 93 37.5 c 0
 31 82.5 -10 161.5 2 245.5 c 0
 14 329.5 77 384.5 131 430.5 c 0
 185 476.5 229 514.5 270 561.5 c 0
 311 608.5 345 660.5 379 714.5 c 1
EndSplineSet
EndChar

StartChar: NameMe.22
Encoding: 22 57366 22
Width: 381
VWidth: 1006
Flags: HW
LayerCount: 2
Fore
SplineSet
191 632 m 1
 381 299 l 1
 191 -32 l 1
 0 299 l 1
 191 632 l 1
EndSplineSet
EndChar

StartChar: NameMe.23
Encoding: 23 57367 23
Width: 773
VWidth: 1005
Flags: HW
LayerCount: 2
Fore
SplineSet
188 656.5 m 0
 268 656.5 343 608.5 387 556.5 c 1
 431 608.5 506 656.5 586 656.5 c 0
 638 656.5 737 632.5 766 528.5 c 0
 835 269.5 387 -56.5 387 -56.5 c 1
 387 -56.5 -61 269.5 8 528.5 c 0
 37 632.5 136 656.5 188 656.5 c 0
EndSplineSet
EndChar

StartChar: NameMe.24
Encoding: 24 57368 24
Width: 670
VWidth: 1005
Flags: HW
LayerCount: 2
Fore
SplineSet
335 669 m 0
 437 669 519 588 519 486 c 0
 519 457 514 428 500 403 c 1
 596 397 670 317 670 221 c 0
 670 120 590 40 489 40 c 0
 448 40 408 55 375 80 c 1
 399 -36 474 -69 474 -69 c 1
 335 -69 l 1
 197 -69 l 1
 197 -69 271 -36 295 80 c 1
 262 55 223 40 182 40 c 0
 81 40 0 120 0 221 c 0
 0 317 75 397 171 403 c 1
 157 428 152 457 152 486 c 0
 152 591 238 669 335 669 c 0
EndSplineSet
EndChar

StartChar: NameMe.25
Encoding: 25 57369 25
Width: 647
VWidth: 1007
Flags: HW
LayerCount: 2
Fore
SplineSet
459 516.75 m 0
 465 516.75 472 514.75 477 509.75 c 2
 639 346.75 l 2
 645 340.75 648 332.75 647 325.75 c 2
 647 275.75 l 2
 648 268.75 645 259.75 639 253.75 c 2
 477 90.75 l 2
 467 80.75 452 80.75 442 90.75 c 2
 400 132.75 l 2
 390 142.75 390 157.75 400 167.75 c 2
 480 245.75 l 1
 25 245.75 l 2
 11 245.75 0 257.75 0 271.75 c 2
 0 329.75 l 2
 0 343.75 11 354.75 25 354.75 c 2
 480 354.75 l 1
 400 434.75 l 2
 390 444.75 390 459.75 400 469.75 c 2
 442 509.75 l 2
 447 514.75 453 516.75 459 516.75 c 0
EndSplineSet
EndChar

StartChar: NameMe.26
Encoding: 26 57370 26
Width: 647
VWidth: 1007
Flags: HW
LayerCount: 2
Fore
SplineSet
188 516.75 m 0
 194 516.75 201 514.75 206 509.75 c 2
 248 469.75 l 2
 258 459.75 258 444.75 248 434.75 c 2
 168 354.75 l 1
 623 354.75 l 2
 637 354.75 647 343.75 647 329.75 c 2
 647 271.75 l 2
 647 257.75 637 245.75 623 245.75 c 2
 168 245.75 l 1
 248 167.75 l 2
 258 157.75 258 142.75 248 132.75 c 2
 206 90.75 l 2
 196 80.75 181 80.75 171 90.75 c 2
 8 253.75 l 2
 2 259.75 0 268.75 1 275.75 c 2
 1 325.75 l 2
 0 332.75 2 340.75 8 346.75 c 2
 171 509.75 l 2
 176 514.75 182 516.75 188 516.75 c 0
EndSplineSet
EndChar

StartChar: NameMe.27
Encoding: 27 57371 27
Width: 433
VWidth: 1004
Flags: HW
LayerCount: 2
Fore
SplineSet
434 435.831054688 m 0
 434 429.831054688 432 422.831054688 427 417.831054688 c 2
 386 376.831054688 l 2
 376 366.831054688 361 366.831054688 351 376.831054688 c 2
 271 455.831054688 l 1
 271 0.8310546875 l 2
 271 -13.1689453125 260 -23.1689453125 246 -23.1689453125 c 2
 188 -23.1689453125 l 2
 174 -23.1689453125 163 -13.1689453125 163 0.8310546875 c 2
 163 455.831054688 l 1
 83 376.831054688 l 2
 73 366.831054688 58 366.831054688 48 376.831054688 c 2
 7 417.831054688 l 2
 -3 427.831054688 -3 442.831054688 7 452.831054688 c 2
 171 616.831054688 l 2
 177 622.831054688 185 623.831054688 192 622.831054688 c 2
 242 622.831054688 l 2
 249 623.831054688 257 622.831054688 263 616.831054688 c 2
 427 452.831054688 l 2
 432 447.831054688 434 441.831054688 434 435.831054688 c 0
EndSplineSet
EndChar

StartChar: NameMe.28
Encoding: 28 57372 28
Width: 433
VWidth: 1003
Flags: HW
LayerCount: 2
Fore
SplineSet
434 165.623046875 m 0
 434 159.623046875 432 151.623046875 427 146.623046875 c 2
 263 -16.376953125 l 2
 257 -22.376953125 249 -24.376953125 242 -23.376953125 c 2
 192 -23.376953125 l 2
 185 -24.376953125 177 -22.376953125 171 -16.376953125 c 2
 7 146.623046875 l 2
 -3 156.623046875 -3 171.623046875 7 181.623046875 c 2
 48 222.623046875 l 2
 58 232.623046875 73 232.623046875 83 222.623046875 c 2
 163 143.623046875 l 1
 163 597.623046875 l 2
 163 611.623046875 174 623.623046875 188 623.623046875 c 2
 246 623.623046875 l 2
 260 623.623046875 271 611.623046875 271 597.623046875 c 2
 271 143.623046875 l 1
 351 222.623046875 l 2
 361 232.623046875 376 232.623046875 386 222.623046875 c 2
 427 181.623046875 l 2
 432 176.623046875 434 171.623046875 434 165.623046875 c 0
EndSplineSet
EndChar

StartChar: NameMe.29
Encoding: 29 57373 29
Width: 733
VWidth: 1005
Flags: HW
LayerCount: 2
Fore
SplineSet
367 666.5 m 0
 568 666.5 733 500.5 733 299.5 c 0
 733 98.5 568 -66.5 367 -66.5 c 0
 166 -66.5 0 98.5 0 299.5 c 0
 0 500.5 166 666.5 367 666.5 c 0
367 586.5 m 0
 209 586.5 82 457.5 82 299.5 c 0
 82 141.5 209 14.5 367 14.5 c 0
 525 14.5 652 141.5 652 299.5 c 0
 652 457.5 525 586.5 367 586.5 c 0
367 493.5 m 0
 473 493.5 561 405.5 561 299.5 c 0
 561 193.5 473 106.5 367 106.5 c 0
 261 106.5 172 193.5 172 299.5 c 0
 172 405.5 261 493.5 367 493.5 c 0
367 451.5 m 0
 283 451.5 216 383.5 216 299.5 c 0
 216 215.5 283 148.5 367 148.5 c 0
 451 148.5 517 215.5 517 299.5 c 0
 517 383.5 451 451.5 367 451.5 c 0
539 299.5 m 0
 539 204.5 462 127.5 367 127.5 c 0
 272 127.5 195 204.5 195 299.5 c 0
 195 394.5 272 472.5 367 472.5 c 0
 462 472.5 539 394.5 539 299.5 c 0
EndSplineSet
EndChar

StartChar: NameMe.30
Encoding: 30 57374 30
Width: 690
VWidth: 1005
Flags: HW
LayerCount: 2
Fore
SplineSet
230 519 m 2
 232 523 235 524 239 526 c 0
 243 528 246 530 250 530 c 2
 440 530 l 1
 444 530 448 528 452 526 c 0
 456 524 458 523 460 519 c 2
 496 473 l 1
 651 473 l 2
 672 473 690 455 690 434 c 2
 690 110 l 2
 690 89 672 70 651 70 c 2
 40 70 l 2
 19 70 0 89 0 110 c 2
 0 434 l 2
 0 455 19 473 40 473 c 2
 195 473 l 1
 230 519 l 2
475 280 m 0
 475 351 416 410 345 410 c 0
 274 410 215 351 215 280 c 0
 215 209 274 151 345 151 c 0
 416 151 475 209 475 280 c 0
EndSplineSet
EndChar

StartChar: NameMe.31
Encoding: 31 57375 31
Width: 874
VWidth: 1005
Flags: HW
LayerCount: 2
Fore
SplineSet
37 731.5 m 2
 837 731.5 l 1
 858 731.5 874 716.5 874 695.5 c 2
 874 -94.5 l 1
 874 -115.5 858 -131.5 837 -131.5 c 2
 37 -131.5 l 1
 16 -131.5 0 -115.5 0 -94.5 c 2
 0 695.5 l 1
 0 716.5 16 731.5 37 731.5 c 2
74 657.5 m 1
 74 -57.5 l 1
 800 -57.5 l 1
 800 657.5 l 1
 74 657.5 l 1
52 710.5 m 2
 853 -78.5 l 1
 857 -82.5 859 -88.5 859 -94.5 c 0
 859 -100.5 857 -107.5 853 -111.5 c 0
 849 -115.5 843 -117.5 837 -117.5 c 0
 831 -117.5 826 -115.5 822 -111.5 c 2
 21 677.5 l 1
 17 681.5 15 689.5 15 695.5 c 0
 15 701.5 17 706.5 21 710.5 c 0
 25 714.5 31 716.5 37 716.5 c 0
 43 716.5 48 714.5 52 710.5 c 2
822 710.5 m 1
 822 710.5 l 1
 826 714.5 831 716.5 837 716.5 c 0
 843 716.5 849 714.5 853 710.5 c 0
 857 706.5 859 699.5 859 693.5 c 0
 859 687.5 857 681.5 853 677.5 c 2
 52 -111.5 l 1
 48 -115.5 43 -117.5 37 -117.5 c 0
 31 -117.5 25 -115.5 21 -111.5 c 0
 17 -107.5 15 -100.5 15 -94.5 c 0
 15 -88.5 17 -82.5 21 -78.5 c 2
 822 710.5 l 1
EndSplineSet
EndChar

StartChar: NameMe.32
Encoding: 32 57376 32
Width: 920
VWidth: 1006
Flags: HW
LayerCount: 2
Fore
SplineSet
47 764 m 2
 209 764 l 2
 234 764 255 743 255 718 c 2
 255 556 l 2
 255 531 234 510 209 510 c 2
 47 510 l 2
 22 510 1 531 1 556 c 2
 1 718 l 2
 1 743 22 764 47 764 c 2
47 719 m 2
 46 719 46 719 46 718 c 2
 46 556 l 2
 46 555 46 555 47 555 c 2
 209 555 l 2
 210 555 210 555 210 556 c 2
 210 718 l 2
 210 719 210 719 209 719 c 2
 47 719 l 2
47 742 m 2
 209 742 l 2
 222 742 232 731 232 718 c 2
 232 556 l 2
 232 543 222 533 209 533 c 2
 47 533 l 2
 34 533 23 543 23 556 c 2
 23 718 l 2
 23 731 34 742 47 742 c 2
379 764 m 2
 542 764 l 2
 567 764 587 743 587 718 c 2
 587 556 l 2
 587 531 567 510 542 510 c 2
 379 510 l 2
 354 510 333 531 333 556 c 2
 333 718 l 2
 333 743 354 764 379 764 c 2
379 719 m 2
 378 719 378 719 378 718 c 2
 378 556 l 2
 378 555 378 555 379 555 c 2
 542 555 l 2
 543 555 542 555 542 556 c 2
 542 718 l 2
 542 719 543 719 542 719 c 2
 379 719 l 2
379 742 m 2
 542 742 l 2
 555 742 565 731 565 718 c 2
 565 556 l 2
 565 543 555 533 542 533 c 2
 379 533 l 2
 366 533 356 543 356 556 c 2
 356 718 l 2
 356 731 366 742 379 742 c 2
712 764 m 2
 874 764 l 2
 899 764 920 743 920 718 c 2
 920 556 l 2
 920 531 899 510 874 510 c 2
 712 510 l 2
 687 510 666 531 666 556 c 2
 666 718 l 2
 666 743 687 764 712 764 c 2
712 719 m 2
 711 719 711 719 711 718 c 2
 711 556 l 2
 711 555 711 555 712 555 c 2
 874 555 l 2
 875 555 875 555 875 556 c 2
 875 718 l 2
 875 719 875 719 874 719 c 2
 712 719 l 2
712 742 m 2
 874 742 l 2
 887 742 897 731 897 718 c 2
 897 556 l 2
 897 543 887 533 874 533 c 2
 712 533 l 2
 699 533 689 543 689 556 c 2
 689 718 l 2
 689 731 699 742 712 742 c 2
47 427 m 2
 209 427 l 2
 234 427 255 406 255 381 c 2
 255 219 l 2
 255 194 234 173 209 173 c 2
 47 173 l 2
 22 173 1 194 1 219 c 2
 1 381 l 2
 1 406 22 427 47 427 c 2
47 382 m 2
 46 382 46 382 46 381 c 2
 46 219 l 2
 46 218 46 218 47 218 c 2
 209 218 l 2
 210 218 210 218 210 219 c 2
 210 381 l 2
 210 382 210 382 209 382 c 2
 47 382 l 2
47 405 m 2
 209 405 l 2
 222 405 232 394 232 381 c 2
 232 219 l 2
 232 206 222 196 209 196 c 2
 47 196 l 2
 34 196 23 206 23 219 c 2
 23 381 l 2
 23 394 34 405 47 405 c 2
379 427 m 2
 542 427 l 2
 567 427 587 406 587 381 c 2
 587 219 l 2
 587 194 567 173 542 173 c 2
 379 173 l 2
 354 173 333 194 333 219 c 2
 333 381 l 2
 333 406 354 427 379 427 c 2
379 382 m 2
 378 382 378 382 378 381 c 2
 378 219 l 2
 378 218 378 218 379 218 c 2
 542 218 l 2
 543 218 542 218 542 219 c 2
 542 381 l 2
 542 382 543 382 542 382 c 2
 379 382 l 2
379 405 m 2
 542 405 l 2
 555 405 565 394 565 381 c 2
 565 219 l 2
 565 206 555 196 542 196 c 2
 379 196 l 2
 366 196 356 206 356 219 c 2
 356 381 l 2
 356 394 366 405 379 405 c 2
47 90 m 2
 209 90 l 2
 234 90 255 69 255 44 c 2
 255 -118 l 2
 255 -143 234 -164 209 -164 c 2
 47 -164 l 2
 22 -164 1 -143 1 -118 c 2
 1 44 l 2
 1 69 22 90 47 90 c 2
47 45 m 2
 46 45 46 45 46 44 c 2
 46 -118 l 2
 46 -119 46 -119 47 -119 c 2
 209 -119 l 2
 210 -119 210 -119 210 -118 c 2
 210 44 l 2
 210 45 210 45 209 45 c 2
 47 45 l 2
47 68 m 2
 209 68 l 2
 222 68 232 57 232 44 c 2
 232 -118 l 2
 232 -131 222 -141 209 -141 c 2
 47 -141 l 2
 34 -141 23 -131 23 -118 c 2
 23 44 l 2
 23 57 34 68 47 68 c 2
EndSplineSet
EndChar

StartChar: NameMe.33
Encoding: 33 57377 33
Width: 920
VWidth: 1006
Flags: HW
LayerCount: 2
Fore
SplineSet
712 427 m 2
 874 427 l 2
 899 427 920 406 920 381 c 2
 920 219 l 2
 920 194 899 173 874 173 c 2
 712 173 l 2
 687 173 666 194 666 219 c 2
 666 381 l 2
 666 406 687 427 712 427 c 2
712 382 m 2
 711 382 711 382 711 381 c 2
 711 219 l 2
 711 218 711 218 712 218 c 2
 874 218 l 2
 875 218 875 218 875 219 c 2
 875 381 l 2
 875 382 875 382 874 382 c 2
 712 382 l 2
712 405 m 2
 874 405 l 2
 887 405 897 394 897 381 c 2
 897 219 l 2
 897 206 887 196 874 196 c 2
 712 196 l 2
 699 196 689 206 689 219 c 2
 689 381 l 2
 689 394 699 405 712 405 c 2
47 764 m 2
 209 764 l 2
 234 764 255 743 255 718 c 2
 255 556 l 2
 255 531 234 510 209 510 c 2
 47 510 l 2
 22 510 1 531 1 556 c 2
 1 718 l 2
 1 743 22 764 47 764 c 2
47 719 m 2
 46 719 46 719 46 718 c 2
 46 556 l 2
 46 555 46 555 47 555 c 2
 209 555 l 2
 210 555 210 555 210 556 c 2
 210 718 l 2
 210 719 210 719 209 719 c 2
 47 719 l 2
47 742 m 2
 209 742 l 2
 222 742 232 731 232 718 c 2
 232 556 l 2
 232 543 222 533 209 533 c 2
 47 533 l 2
 34 533 23 543 23 556 c 2
 23 718 l 2
 23 731 34 742 47 742 c 2
379 764 m 2
 542 764 l 2
 567 764 587 743 587 718 c 2
 587 556 l 2
 587 531 567 510 542 510 c 2
 379 510 l 2
 354 510 333 531 333 556 c 2
 333 718 l 2
 333 743 354 764 379 764 c 2
379 719 m 2
 378 719 378 719 378 718 c 2
 378 556 l 2
 378 555 378 555 379 555 c 2
 542 555 l 2
 543 555 542 555 542 556 c 2
 542 718 l 2
 542 719 543 719 542 719 c 2
 379 719 l 2
379 742 m 2
 542 742 l 2
 555 742 565 731 565 718 c 2
 565 556 l 2
 565 543 555 533 542 533 c 2
 379 533 l 2
 366 533 356 543 356 556 c 2
 356 718 l 2
 356 731 366 742 379 742 c 2
712 764 m 2
 874 764 l 2
 899 764 920 743 920 718 c 2
 920 556 l 2
 920 531 899 510 874 510 c 2
 712 510 l 2
 687 510 666 531 666 556 c 2
 666 718 l 2
 666 743 687 764 712 764 c 2
712 719 m 2
 711 719 711 719 711 718 c 2
 711 556 l 2
 711 555 711 555 712 555 c 2
 874 555 l 2
 875 555 875 555 875 556 c 2
 875 718 l 2
 875 719 875 719 874 719 c 2
 712 719 l 2
712 742 m 2
 874 742 l 2
 887 742 897 731 897 718 c 2
 897 556 l 2
 897 543 887 533 874 533 c 2
 712 533 l 2
 699 533 689 543 689 556 c 2
 689 718 l 2
 689 731 699 742 712 742 c 2
47 427 m 6
 209 427 l 6
 234 427 255 406 255 381 c 6
 255 219 l 6
 255 194 234 173 209 173 c 6
 47 173 l 6
 22 173 1 194 1 219 c 6
 1 381 l 6
 1 406 22 427 47 427 c 6
47 382 m 6
 46 382 46 382 46 381 c 6
 46 219 l 6
 46 218 46 218 47 218 c 6
 209 218 l 6
 210 218 210 218 210 219 c 6
 210 381 l 6
 210 382 210 382 209 382 c 6
 47 382 l 6
47 405 m 6
 209 405 l 6
 222 405 232 394 232 381 c 6
 232 219 l 6
 232 206 222 196 209 196 c 6
 47 196 l 6
 34 196 23 206 23 219 c 6
 23 381 l 6
 23 394 34 405 47 405 c 6
379 427 m 2
 542 427 l 2
 567 427 587 406 587 381 c 2
 587 219 l 2
 587 194 567 173 542 173 c 2
 379 173 l 2
 354 173 333 194 333 219 c 2
 333 381 l 2
 333 406 354 427 379 427 c 2
379 382 m 2
 378 382 378 382 378 381 c 2
 378 219 l 2
 378 218 378 218 379 218 c 2
 542 218 l 2
 543 218 542 218 542 219 c 2
 542 381 l 2
 542 382 543 382 542 382 c 2
 379 382 l 2
379 405 m 2
 542 405 l 2
 555 405 565 394 565 381 c 2
 565 219 l 2
 565 206 555 196 542 196 c 2
 379 196 l 2
 366 196 356 206 356 219 c 2
 356 381 l 2
 356 394 366 405 379 405 c 2
EndSplineSet
EndChar

StartChar: NameMe.34
Encoding: 34 57378 34
Width: 920
VWidth: 1006
Flags: HW
LayerCount: 2
Fore
SplineSet
47 764 m 2
 209 764 l 2
 234 764 255 743 255 718 c 2
 255 556 l 2
 255 531 234 510 209 510 c 2
 47 510 l 2
 22 510 1 531 1 556 c 2
 1 718 l 2
 1 743 22 764 47 764 c 2
47 719 m 2
 46 719 46 719 46 718 c 2
 46 556 l 2
 46 555 46 555 47 555 c 2
 209 555 l 2
 210 555 210 555 210 556 c 2
 210 718 l 2
 210 719 210 719 209 719 c 2
 47 719 l 2
47 742 m 2
 209 742 l 2
 222 742 232 731 232 718 c 2
 232 556 l 2
 232 543 222 533 209 533 c 2
 47 533 l 2
 34 533 23 543 23 556 c 2
 23 718 l 2
 23 731 34 742 47 742 c 2
379 764 m 2
 542 764 l 2
 567 764 587 743 587 718 c 2
 587 556 l 2
 587 531 567 510 542 510 c 2
 379 510 l 2
 354 510 333 531 333 556 c 2
 333 718 l 2
 333 743 354 764 379 764 c 2
379 719 m 2
 378 719 378 719 378 718 c 2
 378 556 l 2
 378 555 378 555 379 555 c 2
 542 555 l 2
 543 555 542 555 542 556 c 2
 542 718 l 2
 542 719 543 719 542 719 c 2
 379 719 l 2
379 742 m 2
 542 742 l 2
 555 742 565 731 565 718 c 2
 565 556 l 2
 565 543 555 533 542 533 c 2
 379 533 l 2
 366 533 356 543 356 556 c 2
 356 718 l 2
 356 731 366 742 379 742 c 2
712 764 m 2
 874 764 l 2
 899 764 920 743 920 718 c 2
 920 556 l 2
 920 531 899 510 874 510 c 2
 712 510 l 2
 687 510 666 531 666 556 c 2
 666 718 l 2
 666 743 687 764 712 764 c 2
712 719 m 2
 711 719 711 719 711 718 c 2
 711 556 l 2
 711 555 711 555 712 555 c 2
 874 555 l 2
 875 555 875 555 875 556 c 2
 875 718 l 2
 875 719 875 719 874 719 c 2
 712 719 l 2
712 742 m 2
 874 742 l 2
 887 742 897 731 897 718 c 2
 897 556 l 2
 897 543 887 533 874 533 c 2
 712 533 l 2
 699 533 689 543 689 556 c 2
 689 718 l 2
 689 731 699 742 712 742 c 2
379 427 m 2
 542 427 l 2
 567 427 587 406 587 381 c 2
 587 219 l 2
 587 194 567 173 542 173 c 2
 379 173 l 2
 354 173 333 194 333 219 c 2
 333 381 l 2
 333 406 354 427 379 427 c 2
379 382 m 2
 378 382 378 382 378 381 c 2
 378 219 l 2
 378 218 378 218 379 218 c 2
 542 218 l 2
 543 218 542 218 542 219 c 2
 542 381 l 2
 542 382 543 382 542 382 c 2
 379 382 l 2
379 405 m 2
 542 405 l 2
 555 405 565 394 565 381 c 2
 565 219 l 2
 565 206 555 196 542 196 c 2
 379 196 l 2
 366 196 356 206 356 219 c 2
 356 381 l 2
 356 394 366 405 379 405 c 2
712 427 m 2
 874 427 l 2
 899 427 920 406 920 381 c 2
 920 219 l 2
 920 194 899 173 874 173 c 2
 712 173 l 2
 687 173 666 194 666 219 c 2
 666 381 l 2
 666 406 687 427 712 427 c 2
712 382 m 2
 711 382 711 382 711 381 c 2
 711 219 l 2
 711 218 711 218 712 218 c 2
 874 218 l 2
 875 218 875 218 875 219 c 2
 875 381 l 2
 875 382 875 382 874 382 c 2
 712 382 l 2
712 405 m 2
 874 405 l 2
 887 405 897 394 897 381 c 2
 897 219 l 2
 897 206 887 196 874 196 c 2
 712 196 l 2
 699 196 689 206 689 219 c 2
 689 381 l 2
 689 394 699 405 712 405 c 2
712 90 m 6
 874 90 l 6
 899 90 920 69 920 44 c 6
 920 -118 l 6
 920 -143 899 -164 874 -164 c 6
 712 -164 l 6
 687 -164 666 -143 666 -118 c 6
 666 44 l 6
 666 69 687 90 712 90 c 6
712 45 m 6
 711 45 711 45 711 44 c 6
 711 -118 l 6
 711 -119 711 -119 712 -119 c 6
 874 -119 l 6
 875 -119 875 -119 875 -118 c 6
 875 44 l 6
 875 45 875 45 874 45 c 6
 712 45 l 6
712 68 m 6
 874 68 l 6
 887 68 897 57 897 44 c 6
 897 -118 l 6
 897 -131 887 -141 874 -141 c 6
 712 -141 l 6
 699 -141 689 -131 689 -118 c 6
 689 44 l 6
 689 57 699 68 712 68 c 6
EndSplineSet
EndChar

StartChar: NameMe.35
Encoding: 35 57379 35
Width: 920
VWidth: 837
Flags: HW
LayerCount: 2
Fore
SplineSet
379 90 m 2
 542 90 l 2
 567 90 587 69 587 44 c 2
 587 -118 l 2
 587 -143 567 -164 542 -164 c 2
 379 -164 l 2
 354 -164 333 -143 333 -118 c 2
 333 44 l 2
 333 69 354 90 379 90 c 2
379 45 m 2
 378 45 378 45 378 44 c 2
 378 -118 l 2
 378 -119 378 -119 379 -119 c 2
 542 -119 l 2
 543 -119 542 -119 542 -118 c 2
 542 44 l 2
 542 45 543 45 542 45 c 2
 379 45 l 2
379 68 m 2
 542 68 l 2
 555 68 565 57 565 44 c 2
 565 -118 l 2
 565 -131 555 -141 542 -141 c 2
 379 -141 l 2
 366 -141 356 -131 356 -118 c 2
 356 44 l 2
 356 57 366 68 379 68 c 2
712 90 m 2
 874 90 l 2
 899 90 920 69 920 44 c 2
 920 -118 l 2
 920 -143 899 -164 874 -164 c 2
 712 -164 l 2
 687 -164 666 -143 666 -118 c 2
 666 44 l 2
 666 69 687 90 712 90 c 2
712 45 m 2
 711 45 711 45 711 44 c 2
 711 -118 l 2
 711 -119 711 -119 712 -119 c 2
 874 -119 l 2
 875 -119 875 -119 875 -118 c 2
 875 44 l 2
 875 45 875 45 874 45 c 2
 712 45 l 2
712 68 m 2
 874 68 l 2
 887 68 897 57 897 44 c 2
 897 -118 l 2
 897 -131 887 -141 874 -141 c 2
 712 -141 l 2
 699 -141 689 -131 689 -118 c 2
 689 44 l 2
 689 57 699 68 712 68 c 2
379 764 m 2
 542 764 l 2
 567 764 587 743 587 718 c 2
 587 556 l 2
 587 531 567 510 542 510 c 2
 379 510 l 2
 354 510 333 531 333 556 c 2
 333 718 l 2
 333 743 354 764 379 764 c 2
379 719 m 2
 378 719 378 719 378 718 c 2
 378 556 l 2
 378 555 378 555 379 555 c 2
 542 555 l 2
 543 555 542 555 542 556 c 2
 542 718 l 2
 542 719 543 719 542 719 c 2
 379 719 l 2
379 742 m 2
 542 742 l 2
 555 742 565 731 565 718 c 2
 565 556 l 2
 565 543 555 533 542 533 c 2
 379 533 l 2
 366 533 356 543 356 556 c 2
 356 718 l 2
 356 731 366 742 379 742 c 2
712 764 m 2
 874 764 l 2
 899 764 920 743 920 718 c 2
 920 556 l 2
 920 531 899 510 874 510 c 2
 712 510 l 2
 687 510 666 531 666 556 c 2
 666 718 l 2
 666 743 687 764 712 764 c 2
712 719 m 2
 711 719 711 719 711 718 c 2
 711 556 l 2
 711 555 711 555 712 555 c 2
 874 555 l 2
 875 555 875 555 875 556 c 2
 875 718 l 2
 875 719 875 719 874 719 c 2
 712 719 l 2
712 742 m 2
 874 742 l 2
 887 742 897 731 897 718 c 2
 897 556 l 2
 897 543 887 533 874 533 c 2
 712 533 l 2
 699 533 689 543 689 556 c 2
 689 718 l 2
 689 731 699 742 712 742 c 2
379 427 m 2
 542 427 l 2
 567 427 587 406 587 381 c 2
 587 219 l 2
 587 194 567 173 542 173 c 2
 379 173 l 2
 354 173 333 194 333 219 c 2
 333 381 l 2
 333 406 354 427 379 427 c 2
379 382 m 2
 378 382 378 382 378 381 c 2
 378 219 l 2
 378 218 378 218 379 218 c 2
 542 218 l 2
 543 218 542 218 542 219 c 2
 542 381 l 2
 542 382 543 382 542 382 c 2
 379 382 l 2
379 405 m 2
 542 405 l 2
 555 405 565 394 565 381 c 2
 565 219 l 2
 565 206 555 196 542 196 c 2
 379 196 l 2
 366 196 356 206 356 219 c 2
 356 381 l 2
 356 394 366 405 379 405 c 2
712 427 m 2
 874 427 l 2
 899 427 920 406 920 381 c 2
 920 219 l 2
 920 194 899 173 874 173 c 2
 712 173 l 2
 687 173 666 194 666 219 c 2
 666 381 l 2
 666 406 687 427 712 427 c 2
712 382 m 2
 711 382 711 382 711 381 c 2
 711 219 l 2
 711 218 711 218 712 218 c 2
 874 218 l 2
 875 218 875 218 875 219 c 2
 875 381 l 2
 875 382 875 382 874 382 c 2
 712 382 l 2
712 405 m 2
 874 405 l 2
 887 405 897 394 897 381 c 2
 897 219 l 2
 897 206 887 196 874 196 c 2
 712 196 l 2
 699 196 689 206 689 219 c 2
 689 381 l 2
 689 394 699 405 712 405 c 2
EndSplineSet
EndChar

StartChar: NameMe.36
Encoding: 36 57380 36
Width: 920
VWidth: 1006
Flags: HW
LayerCount: 2
Fore
SplineSet
712 764 m 2
 874 764 l 2
 899 764 920 743 920 718 c 2
 920 556 l 2
 920 531 899 510 874 510 c 2
 712 510 l 2
 687 510 666 531 666 556 c 2
 666 718 l 2
 666 743 687 764 712 764 c 2
712 719 m 2
 711 719 711 719 711 718 c 2
 711 556 l 2
 711 555 711 555 712 555 c 2
 874 555 l 2
 875 555 875 555 875 556 c 2
 875 718 l 2
 875 719 875 719 874 719 c 2
 712 719 l 2
712 742 m 2
 874 742 l 2
 887 742 897 731 897 718 c 2
 897 556 l 2
 897 543 887 533 874 533 c 2
 712 533 l 2
 699 533 689 543 689 556 c 2
 689 718 l 2
 689 731 699 742 712 742 c 2
379 427 m 2
 542 427 l 2
 567 427 587 406 587 381 c 2
 587 219 l 2
 587 194 567 173 542 173 c 2
 379 173 l 2
 354 173 333 194 333 219 c 2
 333 381 l 2
 333 406 354 427 379 427 c 2
379 382 m 2
 378 382 378 382 378 381 c 2
 378 219 l 2
 378 218 378 218 379 218 c 2
 542 218 l 2
 543 218 542 218 542 219 c 2
 542 381 l 2
 542 382 543 382 542 382 c 2
 379 382 l 2
379 405 m 2
 542 405 l 2
 555 405 565 394 565 381 c 2
 565 219 l 2
 565 206 555 196 542 196 c 2
 379 196 l 2
 366 196 356 206 356 219 c 2
 356 381 l 2
 356 394 366 405 379 405 c 2
712 427 m 2
 874 427 l 2
 899 427 920 406 920 381 c 2
 920 219 l 2
 920 194 899 173 874 173 c 2
 712 173 l 2
 687 173 666 194 666 219 c 2
 666 381 l 2
 666 406 687 427 712 427 c 2
712 382 m 2
 711 382 711 382 711 381 c 2
 711 219 l 2
 711 218 711 218 712 218 c 2
 874 218 l 2
 875 218 875 218 875 219 c 2
 875 381 l 2
 875 382 875 382 874 382 c 2
 712 382 l 2
712 405 m 2
 874 405 l 2
 887 405 897 394 897 381 c 2
 897 219 l 2
 897 206 887 196 874 196 c 2
 712 196 l 2
 699 196 689 206 689 219 c 2
 689 381 l 2
 689 394 699 405 712 405 c 2
47 90 m 2
 209 90 l 2
 234 90 255 69 255 44 c 2
 255 -118 l 2
 255 -143 234 -164 209 -164 c 2
 47 -164 l 2
 22 -164 1 -143 1 -118 c 2
 1 44 l 2
 1 69 22 90 47 90 c 2
47 45 m 2
 46 45 46 45 46 44 c 2
 46 -118 l 2
 46 -119 46 -119 47 -119 c 2
 209 -119 l 2
 210 -119 210 -119 210 -118 c 2
 210 44 l 2
 210 45 210 45 209 45 c 2
 47 45 l 2
47 68 m 2
 209 68 l 2
 222 68 232 57 232 44 c 2
 232 -118 l 2
 232 -131 222 -141 209 -141 c 2
 47 -141 l 2
 34 -141 23 -131 23 -118 c 2
 23 44 l 2
 23 57 34 68 47 68 c 2
379 90 m 2
 542 90 l 2
 567 90 587 69 587 44 c 2
 587 -118 l 2
 587 -143 567 -164 542 -164 c 2
 379 -164 l 2
 354 -164 333 -143 333 -118 c 2
 333 44 l 2
 333 69 354 90 379 90 c 2
379 45 m 2
 378 45 378 45 378 44 c 2
 378 -118 l 2
 378 -119 378 -119 379 -119 c 2
 542 -119 l 2
 543 -119 542 -119 542 -118 c 2
 542 44 l 2
 542 45 543 45 542 45 c 2
 379 45 l 2
379 68 m 2
 542 68 l 2
 555 68 565 57 565 44 c 2
 565 -118 l 2
 565 -131 555 -141 542 -141 c 2
 379 -141 l 2
 366 -141 356 -131 356 -118 c 2
 356 44 l 2
 356 57 366 68 379 68 c 2
712 90 m 2
 874 90 l 2
 899 90 920 69 920 44 c 2
 920 -118 l 2
 920 -143 899 -164 874 -164 c 2
 712 -164 l 2
 687 -164 666 -143 666 -118 c 2
 666 44 l 2
 666 69 687 90 712 90 c 2
712 45 m 2
 711 45 711 45 711 44 c 2
 711 -118 l 2
 711 -119 711 -119 712 -119 c 2
 874 -119 l 2
 875 -119 875 -119 875 -118 c 2
 875 44 l 2
 875 45 875 45 874 45 c 2
 712 45 l 2
712 68 m 2
 874 68 l 2
 887 68 897 57 897 44 c 2
 897 -118 l 2
 897 -131 887 -141 874 -141 c 2
 712 -141 l 2
 699 -141 689 -131 689 -118 c 2
 689 44 l 2
 689 57 699 68 712 68 c 2
EndSplineSet
EndChar

StartChar: NameMe.37
Encoding: 37 57381 37
Width: 920
VWidth: 1006
Flags: HMW
LayerCount: 2
Fore
SplineSet
47 427 m 6
 209 427 l 6
 234 427 255 406 255 381 c 6
 255 219 l 6
 255 194 234 173 209 173 c 6
 47 173 l 6
 22 173 1 194 1 219 c 6
 1 381 l 6
 1 406 22 427 47 427 c 6
47 382 m 6
 46 382 46 382 46 381 c 6
 46 219 l 6
 46 218 46 218 47 218 c 6
 209 218 l 6
 210 218 210 218 210 219 c 6
 210 381 l 6
 210 382 210 382 209 382 c 6
 47 382 l 6
47 405 m 6
 209 405 l 6
 222 405 232 394 232 381 c 6
 232 219 l 6
 232 206 222 196 209 196 c 6
 47 196 l 6
 34 196 23 206 23 219 c 6
 23 381 l 6
 23 394 34 405 47 405 c 6
379 427 m 2
 542 427 l 2
 567 427 587 406 587 381 c 2
 587 219 l 2
 587 194 567 173 542 173 c 2
 379 173 l 2
 354 173 333 194 333 219 c 2
 333 381 l 2
 333 406 354 427 379 427 c 2
379 382 m 2
 378 382 378 382 378 381 c 2
 378 219 l 2
 378 218 378 218 379 218 c 2
 542 218 l 2
 543 218 542 218 542 219 c 2
 542 381 l 2
 542 382 543 382 542 382 c 2
 379 382 l 2
379 405 m 2
 542 405 l 2
 555 405 565 394 565 381 c 2
 565 219 l 2
 565 206 555 196 542 196 c 2
 379 196 l 2
 366 196 356 206 356 219 c 2
 356 381 l 2
 356 394 366 405 379 405 c 2
712 427 m 2
 874 427 l 2
 899 427 920 406 920 381 c 2
 920 219 l 2
 920 194 899 173 874 173 c 2
 712 173 l 2
 687 173 666 194 666 219 c 2
 666 381 l 2
 666 406 687 427 712 427 c 2
712 382 m 2
 711 382 711 382 711 381 c 2
 711 219 l 2
 711 218 711 218 712 218 c 2
 874 218 l 2
 875 218 875 218 875 219 c 2
 875 381 l 2
 875 382 875 382 874 382 c 2
 712 382 l 2
712 405 m 2
 874 405 l 2
 887 405 897 394 897 381 c 2
 897 219 l 2
 897 206 887 196 874 196 c 2
 712 196 l 2
 699 196 689 206 689 219 c 2
 689 381 l 2
 689 394 699 405 712 405 c 2
47 90 m 2
 209 90 l 2
 234 90 255 69 255 44 c 2
 255 -118 l 2
 255 -143 234 -164 209 -164 c 2
 47 -164 l 2
 22 -164 1 -143 1 -118 c 2
 1 44 l 2
 1 69 22 90 47 90 c 2
47 45 m 2
 46 45 46 45 46 44 c 2
 46 -118 l 2
 46 -119 46 -119 47 -119 c 2
 209 -119 l 2
 210 -119 210 -119 210 -118 c 2
 210 44 l 2
 210 45 210 45 209 45 c 2
 47 45 l 2
47 68 m 2
 209 68 l 2
 222 68 232 57 232 44 c 2
 232 -118 l 2
 232 -131 222 -141 209 -141 c 2
 47 -141 l 2
 34 -141 23 -131 23 -118 c 2
 23 44 l 2
 23 57 34 68 47 68 c 2
379 90 m 2
 542 90 l 2
 567 90 587 69 587 44 c 2
 587 -118 l 2
 587 -143 567 -164 542 -164 c 2
 379 -164 l 2
 354 -164 333 -143 333 -118 c 2
 333 44 l 2
 333 69 354 90 379 90 c 2
379 45 m 2
 378 45 378 45 378 44 c 2
 378 -118 l 2
 378 -119 378 -119 379 -119 c 2
 542 -119 l 2
 543 -119 542 -119 542 -118 c 2
 542 44 l 2
 542 45 543 45 542 45 c 2
 379 45 l 2
379 68 m 2
 542 68 l 2
 555 68 565 57 565 44 c 2
 565 -118 l 2
 565 -131 555 -141 542 -141 c 2
 379 -141 l 2
 366 -141 356 -131 356 -118 c 2
 356 44 l 2
 356 57 366 68 379 68 c 2
712 90 m 2
 874 90 l 2
 899 90 920 69 920 44 c 2
 920 -118 l 2
 920 -143 899 -164 874 -164 c 2
 712 -164 l 2
 687 -164 666 -143 666 -118 c 2
 666 44 l 2
 666 69 687 90 712 90 c 2
712 45 m 2
 711 45 711 45 711 44 c 2
 711 -118 l 2
 711 -119 711 -119 712 -119 c 2
 874 -119 l 2
 875 -119 875 -119 875 -118 c 2
 875 44 l 2
 875 45 875 45 874 45 c 2
 712 45 l 2
712 68 m 2
 874 68 l 2
 887 68 897 57 897 44 c 2
 897 -118 l 2
 897 -131 887 -141 874 -141 c 2
 712 -141 l 2
 699 -141 689 -131 689 -118 c 2
 689 44 l 2
 689 57 699 68 712 68 c 2
EndSplineSet
EndChar

StartChar: NameMe.38
Encoding: 38 57382 38
Width: 920
VWidth: 1007
Flags: HW
LayerCount: 2
Fore
SplineSet
47 765 m 2
 209 765 l 2
 234 765 255 744 255 719 c 2
 255 557 l 2
 255 532 234 511 209 511 c 2
 47 511 l 2
 22 511 1 532 1 557 c 2
 1 719 l 2
 1 744 22 765 47 765 c 2
47 720 m 2
 46 720 46 720 46 719 c 2
 46 557 l 2
 46 556 46 556 47 556 c 2
 209 556 l 2
 210 556 210 556 210 557 c 2
 210 719 l 2
 210 720 210 720 209 720 c 2
 47 720 l 2
47 743 m 2
 209 743 l 2
 222 743 232 732 232 719 c 2
 232 557 l 2
 232 544 222 534 209 534 c 2
 47 534 l 2
 34 534 23 544 23 557 c 2
 23 719 l 2
 23 732 34 743 47 743 c 2
47 428 m 2
 209 428 l 2
 234 428 255 407 255 382 c 2
 255 220 l 2
 255 195 234 174 209 174 c 2
 47 174 l 2
 22 174 1 195 1 220 c 2
 1 382 l 2
 1 407 22 428 47 428 c 2
47 383 m 2
 46 383 46 383 46 382 c 2
 46 220 l 2
 46 219 46 219 47 219 c 2
 209 219 l 2
 210 219 210 219 210 220 c 2
 210 382 l 2
 210 383 210 383 209 383 c 2
 47 383 l 2
47 406 m 2
 209 406 l 2
 222 406 232 395 232 382 c 2
 232 220 l 2
 232 207 222 197 209 197 c 2
 47 197 l 2
 34 197 23 207 23 220 c 2
 23 382 l 2
 23 395 34 406 47 406 c 2
379 428 m 2
 542 428 l 2
 567 428 587 407 587 382 c 2
 587 220 l 2
 587 195 567 174 542 174 c 2
 379 174 l 2
 354 174 333 195 333 220 c 2
 333 382 l 2
 333 407 354 428 379 428 c 2
379 383 m 2
 378 383 378 383 378 382 c 2
 378 220 l 2
 378 219 378 219 379 219 c 2
 542 219 l 2
 543 219 542 219 542 220 c 2
 542 382 l 2
 542 383 543 383 542 383 c 2
 379 383 l 2
379 406 m 2
 542 406 l 2
 555 406 565 395 565 382 c 2
 565 220 l 2
 565 207 555 197 542 197 c 2
 379 197 l 2
 366 197 356 207 356 220 c 2
 356 382 l 2
 356 395 366 406 379 406 c 2
47 89 m 2
 209 89 l 2
 234 89 255 68 255 43 c 2
 255 -119 l 2
 255 -144 234 -165 209 -165 c 2
 47 -165 l 2
 22 -165 1 -144 1 -119 c 2
 1 43 l 2
 1 68 22 89 47 89 c 2
47 44 m 2
 46 44 46 44 46 43 c 2
 46 -119 l 2
 46 -120 46 -120 47 -120 c 2
 209 -120 l 2
 210 -120 210 -120 210 -119 c 2
 210 43 l 2
 210 44 210 44 209 44 c 2
 47 44 l 2
47 67 m 2
 209 67 l 2
 222 67 232 56 232 43 c 2
 232 -119 l 2
 232 -132 222 -142 209 -142 c 2
 47 -142 l 2
 34 -142 23 -132 23 -119 c 2
 23 43 l 2
 23 56 34 67 47 67 c 2
379 89 m 2
 542 89 l 2
 567 89 587 68 587 43 c 2
 587 -119 l 2
 587 -144 567 -165 542 -165 c 2
 379 -165 l 2
 354 -165 333 -144 333 -119 c 2
 333 43 l 2
 333 68 354 89 379 89 c 2
379 44 m 2
 378 44 378 44 378 43 c 2
 378 -119 l 2
 378 -120 378 -120 379 -120 c 2
 542 -120 l 2
 543 -120 542 -120 542 -119 c 2
 542 43 l 2
 542 44 543 44 542 44 c 2
 379 44 l 2
379 67 m 2
 542 67 l 2
 555 67 565 56 565 43 c 2
 565 -119 l 2
 565 -132 555 -142 542 -142 c 2
 379 -142 l 2
 366 -142 356 -132 356 -119 c 2
 356 43 l 2
 356 56 366 67 379 67 c 2
712 89 m 2
 874 89 l 2
 899 89 920 68 920 43 c 2
 920 -119 l 2
 920 -144 899 -165 874 -165 c 2
 712 -165 l 2
 687 -165 666 -144 666 -119 c 2
 666 43 l 2
 666 68 687 89 712 89 c 2
712 44 m 2
 711 44 711 44 711 43 c 2
 711 -119 l 2
 711 -120 711 -120 712 -120 c 2
 874 -120 l 2
 875 -120 875 -120 875 -119 c 2
 875 43 l 2
 875 44 875 44 874 44 c 2
 712 44 l 2
712 67 m 2
 874 67 l 2
 887 67 897 56 897 43 c 2
 897 -119 l 2
 897 -132 887 -142 874 -142 c 2
 712 -142 l 2
 699 -142 689 -132 689 -119 c 2
 689 43 l 2
 689 56 699 67 712 67 c 2
EndSplineSet
EndChar

StartChar: NameMe.39
Encoding: 39 57383 39
Width: 920
VWidth: 838
Flags: HW
LayerCount: 2
Fore
SplineSet
47 765 m 2
 209 765 l 2
 234 765 255 744 255 719 c 2
 255 557 l 2
 255 532 234 511 209 511 c 2
 47 511 l 2
 22 511 1 532 1 557 c 2
 1 719 l 2
 1 744 22 765 47 765 c 2
47 720 m 2
 46 720 46 720 46 719 c 2
 46 557 l 2
 46 556 46 556 47 556 c 2
 209 556 l 2
 210 556 210 556 210 557 c 2
 210 719 l 2
 210 720 210 720 209 720 c 2
 47 720 l 2
47 743 m 2
 209 743 l 2
 222 743 232 732 232 719 c 2
 232 557 l 2
 232 544 222 534 209 534 c 2
 47 534 l 2
 34 534 23 544 23 557 c 2
 23 719 l 2
 23 732 34 743 47 743 c 2
379 765 m 2
 542 765 l 2
 567 765 587 744 587 719 c 2
 587 557 l 2
 587 532 567 511 542 511 c 2
 379 511 l 2
 354 511 333 532 333 557 c 2
 333 719 l 2
 333 744 354 765 379 765 c 2
379 720 m 2
 378 720 378 720 378 719 c 2
 378 557 l 2
 378 556 378 556 379 556 c 2
 542 556 l 2
 543 556 542 556 542 557 c 2
 542 719 l 2
 542 720 543 720 542 720 c 2
 379 720 l 2
379 743 m 2
 542 743 l 2
 555 743 565 732 565 719 c 2
 565 557 l 2
 565 544 555 534 542 534 c 2
 379 534 l 2
 366 534 356 544 356 557 c 2
 356 719 l 2
 356 732 366 743 379 743 c 2
47 428 m 2
 209 428 l 2
 234 428 255 407 255 382 c 2
 255 220 l 2
 255 195 234 174 209 174 c 2
 47 174 l 2
 22 174 1 195 1 220 c 2
 1 382 l 2
 1 407 22 428 47 428 c 2
47 383 m 2
 46 383 46 383 46 382 c 2
 46 220 l 2
 46 219 46 219 47 219 c 2
 209 219 l 2
 210 219 210 219 210 220 c 2
 210 382 l 2
 210 383 210 383 209 383 c 2
 47 383 l 2
47 406 m 2
 209 406 l 2
 222 406 232 395 232 382 c 2
 232 220 l 2
 232 207 222 197 209 197 c 2
 47 197 l 2
 34 197 23 207 23 220 c 2
 23 382 l 2
 23 395 34 406 47 406 c 2
379 428 m 2
 542 428 l 2
 567 428 587 407 587 382 c 2
 587 220 l 2
 587 195 567 174 542 174 c 2
 379 174 l 2
 354 174 333 195 333 220 c 2
 333 382 l 2
 333 407 354 428 379 428 c 2
379 383 m 2
 378 383 378 383 378 382 c 2
 378 220 l 2
 378 219 378 219 379 219 c 2
 542 219 l 2
 543 219 542 219 542 220 c 2
 542 382 l 2
 542 383 543 383 542 383 c 2
 379 383 l 2
379 406 m 2
 542 406 l 2
 555 406 565 395 565 382 c 2
 565 220 l 2
 565 207 555 197 542 197 c 2
 379 197 l 2
 366 197 356 207 356 220 c 2
 356 382 l 2
 356 395 366 406 379 406 c 2
47 89 m 2
 209 89 l 2
 234 89 255 68 255 43 c 2
 255 -119 l 2
 255 -144 234 -165 209 -165 c 2
 47 -165 l 2
 22 -165 1 -144 1 -119 c 2
 1 43 l 2
 1 68 22 89 47 89 c 2
47 44 m 2
 46 44 46 44 46 43 c 2
 46 -119 l 2
 46 -120 46 -120 47 -120 c 2
 209 -120 l 2
 210 -120 210 -120 210 -119 c 2
 210 43 l 2
 210 44 210 44 209 44 c 2
 47 44 l 2
47 67 m 2
 209 67 l 2
 222 67 232 56 232 43 c 2
 232 -119 l 2
 232 -132 222 -142 209 -142 c 2
 47 -142 l 2
 34 -142 23 -132 23 -119 c 2
 23 43 l 2
 23 56 34 67 47 67 c 2
379 89 m 2
 542 89 l 2
 567 89 587 68 587 43 c 2
 587 -119 l 2
 587 -144 567 -165 542 -165 c 2
 379 -165 l 2
 354 -165 333 -144 333 -119 c 2
 333 43 l 2
 333 68 354 89 379 89 c 2
379 44 m 2
 378 44 378 44 378 43 c 2
 378 -119 l 2
 378 -120 378 -120 379 -120 c 2
 542 -120 l 2
 543 -120 542 -120 542 -119 c 2
 542 43 l 2
 542 44 543 44 542 44 c 2
 379 44 l 2
379 67 m 2
 542 67 l 2
 555 67 565 56 565 43 c 2
 565 -119 l 2
 565 -132 555 -142 542 -142 c 2
 379 -142 l 2
 366 -142 356 -132 356 -119 c 2
 356 43 l 2
 356 56 366 67 379 67 c 2
EndSplineSet
EndChar

StartChar: NameMe.40
Encoding: 40 57384 40
Width: 1000
VWidth: 812
Flags: HW
LayerCount: 2
Fore
SplineSet
115 711 m 2
 111 715 106 717 100 717 c 0
 88 717 77 707 77 695 c 0
 77 689 80 683 84 679 c 2
 885 -110 l 2
 889 -114 894 -117 900 -117 c 0
 912 -117 923 -106 923 -94 c 0
 923 -88 920 -82 916 -78 c 2
 115 711 l 2
84 -78 m 2
 80 -82 77 -88 77 -94 c 0
 77 -106 88 -117 100 -117 c 0
 106 -117 111 -114 115 -110 c 2
 916 679 l 2
 920 683 923 689 923 695 c 0
 923 707 912 717 900 717 c 0
 894 717 889 715 885 711 c 2
 84 -78 l 2
EndSplineSet
EndChar

StartChar: NameMe.41
Encoding: 41 57385 41
Width: 1000
VWidth: 811
Flags: HW
LayerCount: 2
Fore
SplineSet
100 720.5 m 2
 900 720.5 l 1
 914 720.5 927 708.5 927 694.5 c 2
 927 -94.5 l 1
 927 -108.5 914 -120.5 900 -120.5 c 2
 100 -120.5 l 1
 86 -120.5 73 -108.5 73 -94.5 c 2
 73 694.5 l 1
 73 708.5 86 720.5 100 720.5 c 2
126 668.5 m 1
 126 -68.5 l 1
 874 -68.5 l 1
 874 668.5 l 1
 126 668.5 l 1
238 20.5 m 1
 453 579.5 l 1
 533 579.5 l 1
 762 20.5 l 1
 677 20.5 l 1
 612 189.5 l 1
 378 189.5 l 1
 317 20.5 l 1
 238 20.5 l 1
400 249.5 m 1
 589 249.5 l 1
 531 404.5 l 2
 513 451.5 500 490.5 491 520.5 c 1
 484 484.5 474 448.5 461 413.5 c 2
 400 249.5 l 1
EndSplineSet
EndChar

StartChar: NameMe.42
Encoding: 42 57386 42
Width: 1000
VWidth: 811
Flags: HW
LayerCount: 2
Fore
SplineSet
100 720.5 m 2
 900 720.5 l 1
 914 720.5 927 708.5 927 694.5 c 2
 927 -94.5 l 1
 927 -108.5 914 -120.5 900 -120.5 c 2
 100 -120.5 l 1
 86 -120.5 73 -108.5 73 -94.5 c 2
 73 694.5 l 1
 73 708.5 86 720.5 100 720.5 c 2
126 668.5 m 1
 126 -68.5 l 1
 874 -68.5 l 1
 874 668.5 l 1
 126 668.5 l 1
289 20.5 m 1
 289 579.5 l 1
 499 579.5 l 2
 542 579.5 575 573.5 601 562.5 c 0
 627 551.5 648 533.5 662 509.5 c 0
 677 486.5 684 462.5 684 436.5 c 0
 684 412.5 678 389.5 665 368.5 c 0
 652 347.5 632 330.5 606 317.5 c 1
 640 307.5 666 290.5 684 266.5 c 0
 702 242.5 711 215.5 711 182.5 c 0
 711 156.5 705 132.5 694 109.5 c 0
 683 87.5 670 69.5 654 57.5 c 0
 638 45.5 617 35.5 592 29.5 c 0
 568 23.5 538 20.5 502 20.5 c 2
 289 20.5 l 1
363 344.5 m 1
 484 344.5 l 2
 517 344.5 540 346.5 554 350.5 c 0
 573 356.5 588 365.5 597 378.5 c 0
 607 391.5 611 407.5 611 427.5 c 0
 611 446.5 607 462.5 598 476.5 c 0
 589 490.5 577 500.5 560 505.5 c 0
 543 510.5 515 513.5 475 513.5 c 2
 363 513.5 l 1
 363 344.5 l 1
363 86.5 m 1
 502 86.5 l 2
 526 86.5 542 86.5 552 88.5 c 0
 569 91.5 584 97.5 595 104.5 c 0
 606 111.5 616 122.5 623 135.5 c 0
 630 149.5 634 164.5 634 182.5 c 0
 634 203.5 629 221.5 618 236.5 c 0
 607 252.5 593 262.5 574 268.5 c 0
 555 274.5 528 278.5 492 278.5 c 2
 363 278.5 l 1
 363 86.5 l 1
EndSplineSet
EndChar

StartChar: NameMe.43
Encoding: 43 57387 43
Width: 1000
VWidth: 811
Flags: HW
LayerCount: 2
Fore
SplineSet
100 720.5 m 2
 900 720.5 l 1
 914 720.5 927 708.5 927 694.5 c 2
 927 -94.5 l 1
 927 -108.5 914 -120.5 900 -120.5 c 2
 100 -120.5 l 1
 86 -120.5 73 -108.5 73 -94.5 c 2
 73 694.5 l 1
 73 708.5 86 720.5 100 720.5 c 2
126 668.5 m 1
 126 -68.5 l 1
 874 -68.5 l 1
 874 668.5 l 1
 126 668.5 l 1
673 216.5 m 1
 747 197.5 l 1
 731 136.5 703 90.5 663 58.5 c 0
 623 26.5 574 10.5 516 10.5 c 0
 456 10.5 406 23.5 368 47.5 c 0
 330 72.5 302 107.5 282 154.5 c 0
 262 201.5 253 250.5 253 303.5 c 0
 253 361.5 264 413.5 286 456.5 c 0
 308 499.5 340 532.5 381 554.5 c 0
 422 577.5 468 588.5 517 588.5 c 0
 573 588.5 620 574.5 658 546.5 c 0
 696 518.5 723 478.5 738 426.5 c 1
 665 408.5 l 1
 652 449.5 633 478.5 608 497.5 c 0
 583 516.5 552 525.5 515 525.5 c 0
 472 525.5 436 515.5 407 494.5 c 0
 378 473.5 359 446.5 347 411.5 c 0
 335 376.5 329 341.5 329 304.5 c 0
 329 256.5 336 215.5 350 179.5 c 0
 364 144.5 386 118.5 415 100.5 c 0
 444 82.5 476 73.5 510 73.5 c 0
 551 73.5 586 85.5 615 109.5 c 0
 644 133.5 663 169.5 673 216.5 c 1
EndSplineSet
EndChar

StartChar: NameMe.44
Encoding: 44 57388 44
Width: 1000
VWidth: 811
Flags: HW
LayerCount: 2
Fore
SplineSet
100 720.5 m 2
 900 720.5 l 1
 914 720.5 927 708.5 927 694.5 c 2
 927 -94.5 l 1
 927 -108.5 914 -120.5 900 -120.5 c 2
 100 -120.5 l 1
 86 -120.5 73 -108.5 73 -94.5 c 2
 73 694.5 l 1
 73 708.5 86 720.5 100 720.5 c 2
126 668.5 m 1
 126 -68.5 l 1
 874 -68.5 l 1
 874 668.5 l 1
 126 668.5 l 1
269 20.5 m 1
 269 579.5 l 1
 461 579.5 l 2
 504 579.5 538 576.5 561 571.5 c 0
 593 564.5 620 550.5 643 531.5 c 0
 672 506.5 695 474.5 709 435.5 c 0
 724 396.5 731 352.5 731 302.5 c 0
 731 260.5 726 222.5 716 189.5 c 0
 706 156.5 694 130.5 678 108.5 c 0
 662 87.5 646 69.5 627 57.5 c 0
 609 45.5 586 35.5 560 29.5 c 0
 534 23.5 505 20.5 471 20.5 c 2
 269 20.5 l 1
343 86.5 m 1
 462 86.5 l 2
 499 86.5 528 89.5 549 96.5 c 0
 570 103.5 587 113.5 599 125.5 c 0
 617 143.5 630 167.5 640 196.5 c 0
 650 226.5 655 261.5 655 303.5 c 0
 655 361.5 645 407.5 626 438.5 c 0
 607 470.5 583 490.5 556 501.5 c 0
 536 509.5 504 513.5 460 513.5 c 2
 343 513.5 l 1
 343 86.5 l 1
EndSplineSet
EndChar

StartChar: NameMe.45
Encoding: 45 57389 45
Width: 1000
VWidth: 812
Flags: HW
LayerCount: 2
Fore
SplineSet
151 667 m 2
 849 667 l 1
 862 667 872 657 872 644 c 2
 872 -44 l 1
 872 -57 862 -67 849 -67 c 2
 151 -67 l 1
 138 -67 128 -57 128 -44 c 2
 128 644 l 1
 128 657 138 667 151 667 c 2
174 622 m 1
 174 -21 l 1
 826 -21 l 1
 826 622 l 1
 174 622 l 1
151 644 m 1
 849 644 l 1
 849 -44 l 1
 151 -44 l 1
 151 644 l 1
219 0 m 1
 303 0 l 1
 369 182 l 1
 620 182 l 1
 690 0 l 1
 781 0 l 1
 535 600 l 1
 450 600 l 1
 219 0 l 1
392 247 m 1
 458 423 l 2
 472 461 483 499 491 537 c 1
 500 505 514 464 533 413 c 2
 596 247 l 1
 392 247 l 1
EndSplineSet
EndChar

StartChar: NameMe.46
Encoding: 46 57390 46
Width: 1000
VWidth: 812
Flags: HW
LayerCount: 2
Fore
SplineSet
151 667 m 2
 849 667 l 1
 862 667 872 657 872 644 c 2
 872 -44 l 1
 872 -57 862 -67 849 -67 c 2
 151 -67 l 1
 138 -67 128 -57 128 -44 c 2
 128 644 l 1
 128 657 138 667 151 667 c 2
174 622 m 1
 174 -21 l 1
 826 -21 l 1
 826 622 l 1
 174 622 l 1
151 644 m 1
 849 644 l 1
 849 -44 l 1
 151 -44 l 1
 151 644 l 1
214 0 m 1
 290 0 l 1
 290 511 l 1
 464 0 l 1
 535 0 l 1
 710 503 l 1
 710 0 l 1
 786 0 l 1
 786 600 l 1
 680 600 l 1
 536 183 l 2
 522 141 511 108 504 86 c 1
 498 106 488 135 475 175 c 2
 333 600 l 1
 214 600 l 1
 214 0 l 1
EndSplineSet
EndChar

StartChar: NameMe.47
Encoding: 47 57391 47
Width: 1000
VWidth: 811
Flags: HW
LayerCount: 2
Fore
SplineSet
100 731.5 m 2
 900 731.5 l 1
 920 731.5 937 714.5 937 694.5 c 2
 937 -94.5 l 1
 937 -114.5 920 -131.5 900 -131.5 c 2
 100 -131.5 l 1
 80 -131.5 63 -114.5 63 -94.5 c 2
 63 694.5 l 1
 63 714.5 80 731.5 100 731.5 c 2
137 657.5 m 1
 137 -57.5 l 1
 863 -57.5 l 1
 863 657.5 l 1
 137 657.5 l 1
115 710.5 m 2
 916 -78.5 l 1
 920 -82.5 923 -88.5 923 -94.5 c 0
 923 -100.5 920 -106.5 916 -110.5 c 0
 912 -114.5 906 -117.5 900 -117.5 c 0
 894 -117.5 889 -114.5 885 -110.5 c 2
 84 678.5 l 1
 80 682.5 77 688.5 77 694.5 c 0
 77 700.5 80 706.5 84 710.5 c 0
 88 714.5 94 716.5 100 716.5 c 0
 106 716.5 111 714.5 115 710.5 c 2
885 710.5 m 1
 885 710.5 l 1
 889 714.5 894 716.5 900 716.5 c 0
 906 716.5 912 714.5 916 710.5 c 0
 920 706.5 923 700.5 923 694.5 c 0
 923 688.5 920 682.5 916 678.5 c 2
 115 -110.5 l 1
 111 -114.5 106 -117.5 100 -117.5 c 0
 94 -117.5 88 -114.5 84 -110.5 c 0
 80 -106.5 77 -100.5 77 -94.5 c 0
 77 -88.5 80 -82.5 84 -78.5 c 2
 885 710.5 l 1
EndSplineSet
EndChar

StartChar: NameMe.48
Encoding: 48 57392 48
Width: 1000
VWidth: 811
Flags: HW
LayerCount: 2
Fore
SplineSet
211 -78.5 m 1
 211 678.5 l 1
 497 678.5 l 2
 547 678.5 586 675.5 612 670.5 c 0
 649 664.5 680 653.5 705 635.5 c 0
 730 618.5 751 593.5 766 562.5 c 0
 781 531.5 789 497.5 789 459.5 c 0
 789 395.5 768 340.5 727 295.5 c 0
 686 251.5 612 229.5 505 229.5 c 2
 311 229.5 l 1
 311 -78.5 l 1
 211 -78.5 l 1
311 318.5 m 1
 507 318.5 l 2
 572 318.5 618 330.5 645 354.5 c 0
 672 378.5 686 412.5 686 456.5 c 0
 686 488.5 677 515.5 661 537.5 c 0
 645 560.5 624 575.5 598 582.5 c 0
 581 586.5 550 588.5 505 588.5 c 2
 311 588.5 l 1
 311 318.5 l 1
EndSplineSet
EndChar

StartChar: NameMe.49
Encoding: 49 57393 49
Width: 1000
VWidth: 811
Flags: HW
LayerCount: 2
Fore
SplineSet
450 -78.5 m 1
 450 678.5 l 1
 550 678.5 l 1
 550 -78.5 l 1
 450 -78.5 l 1
EndSplineSet
EndChar

StartChar: NameMe.50
Encoding: 50 57394 50
Width: 1000
VWidth: 811
Flags: HW
LayerCount: 2
Fore
SplineSet
738 186.5 m 1
 838 161.5 l 1
 817 79.5 780 16.5 725 -26.5 c 0
 671 -69.5 604 -91.5 525 -91.5 c 0
 443 -91.5 377 -74.5 326 -41.5 c 0
 275 -8.5 236 39.5 209 102.5 c 0
 183 165.5 169 233.5 169 305.5 c 0
 169 384.5 184 453.5 214 511.5 c 0
 244 570.5 288 615.5 343 645.5 c 0
 399 676.5 459 691.5 526 691.5 c 0
 602 691.5 665 672.5 717 633.5 c 0
 769 594.5 805 540.5 825 470.5 c 1
 727 447.5 l 1
 709 502.5 683 542.5 650 567.5 c 0
 617 592.5 575 605.5 524 605.5 c 0
 466 605.5 417 591.5 378 563.5 c 0
 339 535.5 312 498.5 296 451.5 c 0
 280 404.5 272 355.5 272 305.5 c 0
 272 241.5 281 185.5 300 137.5 c 0
 319 89.5 348 53.5 388 29.5 c 0
 428 5.5 471 -5.5 517 -5.5 c 0
 573 -5.5 620 10.5 659 42.5 c 0
 698 74.5 724 122.5 738 186.5 c 1
EndSplineSet
EndChar

StartChar: NameMe.51
Encoding: 51 57395 51
Width: 1000
VWidth: 811
Flags: HW
LayerCount: 2
Fore
SplineSet
449 -78.5 m 1
 449 588.5 l 1
 200 588.5 l 1
 200 678.5 l 1
 800 678.5 l 1
 800 588.5 l 1
 550 588.5 l 1
 550 -78.5 l 1
 449 -78.5 l 1
EndSplineSet
EndChar

StartChar: NameMe.52
Encoding: 52 57396 52
Width: 1000
VWidth: 811
Flags: HW
LayerCount: 2
Fore
SplineSet
203 -78.5 m 1
 203 678.5 l 1
 303 678.5 l 1
 303 367.5 l 1
 697 367.5 l 1
 697 678.5 l 1
 797 678.5 l 1
 797 -78.5 l 1
 697 -78.5 l 1
 697 278.5 l 1
 303 278.5 l 1
 303 -78.5 l 1
 203 -78.5 l 1
EndSplineSet
EndChar

StartChar: NameMe.53
Encoding: 53 57397 53
Width: 1000
VWidth: 811
Flags: HW
LayerCount: 2
Fore
SplineSet
146 -78.5 m 1
 437 678.5 l 1
 544 678.5 l 1
 854 -78.5 l 1
 740 -78.5 l 1
 652 150.5 l 1
 335 150.5 l 1
 252 -78.5 l 1
 146 -78.5 l 1
364 232.5 m 1
 621 232.5 l 1
 542 441.5 l 2
 518 505.5 500 557.5 488 598.5 c 1
 478 549.5 465 502.5 447 454.5 c 2
 364 232.5 l 1
EndSplineSet
EndChar

StartChar: NameMe.54
Encoding: 54 57398 54
Width: 1000
VWidth: 811
Flags: HW
LayerCount: 2
Fore
SplineSet
100 731.5 m 2
 900 731.5 l 1
 920 731.5 937 714.5 937 694.5 c 2
 937 -94.5 l 1
 937 -114.5 920 -131.5 900 -131.5 c 2
 100 -131.5 l 1
 80 -131.5 63 -114.5 63 -94.5 c 2
 63 694.5 l 1
 63 714.5 80 731.5 100 731.5 c 2
137 657.5 m 1
 137 -57.5 l 1
 863 -57.5 l 1
 863 657.5 l 1
 137 657.5 l 1
115 710.5 m 2
 916 -78.5 l 1
 920 -82.5 923 -88.5 923 -94.5 c 0
 923 -100.5 920 -106.5 916 -110.5 c 0
 912 -114.5 906 -117.5 900 -117.5 c 0
 894 -117.5 889 -114.5 885 -110.5 c 2
 84 678.5 l 1
 80 682.5 77 688.5 77 694.5 c 0
 77 700.5 80 706.5 84 710.5 c 0
 88 714.5 94 716.5 100 716.5 c 0
 106 716.5 111 714.5 115 710.5 c 2
885 710.5 m 1
 885 710.5 l 1
 889 714.5 894 716.5 900 716.5 c 0
 906 716.5 912 714.5 916 710.5 c 0
 920 706.5 923 700.5 923 694.5 c 0
 923 688.5 920 682.5 916 678.5 c 2
 115 -110.5 l 1
 111 -114.5 106 -117.5 100 -117.5 c 0
 94 -117.5 88 -114.5 84 -110.5 c 0
 80 -106.5 77 -100.5 77 -94.5 c 0
 77 -88.5 80 -82.5 84 -78.5 c 2
 885 710.5 l 1
EndSplineSet
EndChar

StartChar: NameMe.55
Encoding: 55 57399 55
Width: 1000
VWidth: 811
Flags: HW
LayerCount: 2
Fore
SplineSet
100 731.5 m 2
 900 731.5 l 1
 920 731.5 937 714.5 937 694.5 c 2
 937 -94.5 l 1
 937 -114.5 920 -131.5 900 -131.5 c 2
 100 -131.5 l 1
 80 -131.5 63 -114.5 63 -94.5 c 2
 63 694.5 l 1
 63 714.5 80 731.5 100 731.5 c 2
137 657.5 m 1
 137 -57.5 l 1
 863 -57.5 l 1
 863 657.5 l 1
 137 657.5 l 1
115 710.5 m 2
 916 -78.5 l 1
 920 -82.5 923 -88.5 923 -94.5 c 0
 923 -100.5 920 -106.5 916 -110.5 c 0
 912 -114.5 906 -117.5 900 -117.5 c 0
 894 -117.5 889 -114.5 885 -110.5 c 2
 84 678.5 l 1
 80 682.5 77 688.5 77 694.5 c 0
 77 700.5 80 706.5 84 710.5 c 0
 88 714.5 94 716.5 100 716.5 c 0
 106 716.5 111 714.5 115 710.5 c 2
885 710.5 m 1
 885 710.5 l 1
 889 714.5 894 716.5 900 716.5 c 0
 906 716.5 912 714.5 916 710.5 c 0
 920 706.5 923 700.5 923 694.5 c 0
 923 688.5 920 682.5 916 678.5 c 2
 115 -110.5 l 1
 111 -114.5 106 -117.5 100 -117.5 c 0
 94 -117.5 88 -114.5 84 -110.5 c 0
 80 -106.5 77 -100.5 77 -94.5 c 0
 77 -88.5 80 -82.5 84 -78.5 c 2
 885 710.5 l 1
EndSplineSet
EndChar

StartChar: NameMe.56
Encoding: 56 57400 56
Width: 1000
VWidth: 811
Flags: HW
LayerCount: 2
Fore
SplineSet
100 731.5 m 2
 900 731.5 l 1
 920 731.5 937 714.5 937 694.5 c 2
 937 -94.5 l 1
 937 -114.5 920 -131.5 900 -131.5 c 2
 100 -131.5 l 1
 80 -131.5 63 -114.5 63 -94.5 c 2
 63 694.5 l 1
 63 714.5 80 731.5 100 731.5 c 2
137 657.5 m 1
 137 -57.5 l 1
 863 -57.5 l 1
 863 657.5 l 1
 137 657.5 l 1
115 710.5 m 2
 916 -78.5 l 1
 920 -82.5 923 -88.5 923 -94.5 c 0
 923 -100.5 920 -106.5 916 -110.5 c 0
 912 -114.5 906 -117.5 900 -117.5 c 0
 894 -117.5 889 -114.5 885 -110.5 c 2
 84 678.5 l 1
 80 682.5 77 688.5 77 694.5 c 0
 77 700.5 80 706.5 84 710.5 c 0
 88 714.5 94 716.5 100 716.5 c 0
 106 716.5 111 714.5 115 710.5 c 2
885 710.5 m 1
 885 710.5 l 1
 889 714.5 894 716.5 900 716.5 c 0
 906 716.5 912 714.5 916 710.5 c 0
 920 706.5 923 700.5 923 694.5 c 0
 923 688.5 920 682.5 916 678.5 c 2
 115 -110.5 l 1
 111 -114.5 106 -117.5 100 -117.5 c 0
 94 -117.5 88 -114.5 84 -110.5 c 0
 80 -106.5 77 -100.5 77 -94.5 c 0
 77 -88.5 80 -82.5 84 -78.5 c 2
 885 710.5 l 1
EndSplineSet
EndChar

StartChar: NameMe.57
Encoding: 57 57401 57
Width: 1000
VWidth: 811
Flags: HW
LayerCount: 2
Fore
SplineSet
100 731.5 m 2
 900 731.5 l 1
 920 731.5 937 714.5 937 694.5 c 2
 937 -94.5 l 1
 937 -114.5 920 -131.5 900 -131.5 c 2
 100 -131.5 l 1
 80 -131.5 63 -114.5 63 -94.5 c 2
 63 694.5 l 1
 63 714.5 80 731.5 100 731.5 c 2
137 657.5 m 1
 137 -57.5 l 1
 863 -57.5 l 1
 863 657.5 l 1
 137 657.5 l 1
115 710.5 m 2
 916 -78.5 l 1
 920 -82.5 923 -88.5 923 -94.5 c 0
 923 -100.5 920 -106.5 916 -110.5 c 0
 912 -114.5 906 -117.5 900 -117.5 c 0
 894 -117.5 889 -114.5 885 -110.5 c 2
 84 678.5 l 1
 80 682.5 77 688.5 77 694.5 c 0
 77 700.5 80 706.5 84 710.5 c 0
 88 714.5 94 716.5 100 716.5 c 0
 106 716.5 111 714.5 115 710.5 c 2
885 710.5 m 1
 885 710.5 l 1
 889 714.5 894 716.5 900 716.5 c 0
 906 716.5 912 714.5 916 710.5 c 0
 920 706.5 923 700.5 923 694.5 c 0
 923 688.5 920 682.5 916 678.5 c 2
 115 -110.5 l 1
 111 -114.5 106 -117.5 100 -117.5 c 0
 94 -117.5 88 -114.5 84 -110.5 c 0
 80 -106.5 77 -100.5 77 -94.5 c 0
 77 -88.5 80 -82.5 84 -78.5 c 2
 885 710.5 l 1
EndSplineSet
EndChar

StartChar: NameMe.58
Encoding: 58 57402 58
Width: 1000
VWidth: 811
Flags: HW
LayerCount: 2
Fore
SplineSet
100 731.5 m 2
 900 731.5 l 1
 920 731.5 937 714.5 937 694.5 c 2
 937 -94.5 l 1
 937 -114.5 920 -131.5 900 -131.5 c 2
 100 -131.5 l 1
 80 -131.5 63 -114.5 63 -94.5 c 2
 63 694.5 l 1
 63 714.5 80 731.5 100 731.5 c 2
137 657.5 m 1
 137 -57.5 l 1
 863 -57.5 l 1
 863 657.5 l 1
 137 657.5 l 1
115 710.5 m 2
 916 -78.5 l 1
 920 -82.5 923 -88.5 923 -94.5 c 0
 923 -100.5 920 -106.5 916 -110.5 c 0
 912 -114.5 906 -117.5 900 -117.5 c 0
 894 -117.5 889 -114.5 885 -110.5 c 2
 84 678.5 l 1
 80 682.5 77 688.5 77 694.5 c 0
 77 700.5 80 706.5 84 710.5 c 0
 88 714.5 94 716.5 100 716.5 c 0
 106 716.5 111 714.5 115 710.5 c 2
885 710.5 m 1
 885 710.5 l 1
 889 714.5 894 716.5 900 716.5 c 0
 906 716.5 912 714.5 916 710.5 c 0
 920 706.5 923 700.5 923 694.5 c 0
 923 688.5 920 682.5 916 678.5 c 2
 115 -110.5 l 1
 111 -114.5 106 -117.5 100 -117.5 c 0
 94 -117.5 88 -114.5 84 -110.5 c 0
 80 -106.5 77 -100.5 77 -94.5 c 0
 77 -88.5 80 -82.5 84 -78.5 c 2
 885 710.5 l 1
EndSplineSet
EndChar

StartChar: NameMe.59
Encoding: 59 57403 59
Width: 1000
VWidth: 811
Flags: HW
LayerCount: 2
Fore
SplineSet
100 731.5 m 2
 900 731.5 l 1
 920 731.5 937 714.5 937 694.5 c 2
 937 -94.5 l 1
 937 -114.5 920 -131.5 900 -131.5 c 2
 100 -131.5 l 1
 80 -131.5 63 -114.5 63 -94.5 c 2
 63 694.5 l 1
 63 714.5 80 731.5 100 731.5 c 2
137 657.5 m 1
 137 -57.5 l 1
 863 -57.5 l 1
 863 657.5 l 1
 137 657.5 l 1
115 710.5 m 2
 916 -78.5 l 1
 920 -82.5 923 -88.5 923 -94.5 c 0
 923 -100.5 920 -106.5 916 -110.5 c 0
 912 -114.5 906 -117.5 900 -117.5 c 0
 894 -117.5 889 -114.5 885 -110.5 c 2
 84 678.5 l 1
 80 682.5 77 688.5 77 694.5 c 0
 77 700.5 80 706.5 84 710.5 c 0
 88 714.5 94 716.5 100 716.5 c 0
 106 716.5 111 714.5 115 710.5 c 2
885 710.5 m 1
 885 710.5 l 1
 889 714.5 894 716.5 900 716.5 c 0
 906 716.5 912 714.5 916 710.5 c 0
 920 706.5 923 700.5 923 694.5 c 0
 923 688.5 920 682.5 916 678.5 c 2
 115 -110.5 l 1
 111 -114.5 106 -117.5 100 -117.5 c 0
 94 -117.5 88 -114.5 84 -110.5 c 0
 80 -106.5 77 -100.5 77 -94.5 c 0
 77 -88.5 80 -82.5 84 -78.5 c 2
 885 710.5 l 1
EndSplineSet
EndChar

StartChar: NameMe.60
Encoding: 60 57404 60
Width: 1000
VWidth: 811
Flags: HW
LayerCount: 2
Fore
SplineSet
100 731.5 m 2
 900 731.5 l 1
 920 731.5 937 714.5 937 694.5 c 2
 937 -94.5 l 1
 937 -114.5 920 -131.5 900 -131.5 c 2
 100 -131.5 l 1
 80 -131.5 63 -114.5 63 -94.5 c 2
 63 694.5 l 1
 63 714.5 80 731.5 100 731.5 c 2
137 657.5 m 1
 137 -57.5 l 1
 863 -57.5 l 1
 863 657.5 l 1
 137 657.5 l 1
115 710.5 m 2
 916 -78.5 l 1
 920 -82.5 923 -88.5 923 -94.5 c 0
 923 -100.5 920 -106.5 916 -110.5 c 0
 912 -114.5 906 -117.5 900 -117.5 c 0
 894 -117.5 889 -114.5 885 -110.5 c 2
 84 678.5 l 1
 80 682.5 77 688.5 77 694.5 c 0
 77 700.5 80 706.5 84 710.5 c 0
 88 714.5 94 716.5 100 716.5 c 0
 106 716.5 111 714.5 115 710.5 c 2
885 710.5 m 1
 885 710.5 l 1
 889 714.5 894 716.5 900 716.5 c 0
 906 716.5 912 714.5 916 710.5 c 0
 920 706.5 923 700.5 923 694.5 c 0
 923 688.5 920 682.5 916 678.5 c 2
 115 -110.5 l 1
 111 -114.5 106 -117.5 100 -117.5 c 0
 94 -117.5 88 -114.5 84 -110.5 c 0
 80 -106.5 77 -100.5 77 -94.5 c 0
 77 -88.5 80 -82.5 84 -78.5 c 2
 885 710.5 l 1
EndSplineSet
EndChar

StartChar: NameMe.61
Encoding: 61 57405 61
Width: 1000
VWidth: 811
Flags: HW
LayerCount: 2
Fore
SplineSet
100 731.5 m 2
 900 731.5 l 1
 920 731.5 937 714.5 937 694.5 c 2
 937 -94.5 l 1
 937 -114.5 920 -131.5 900 -131.5 c 2
 100 -131.5 l 1
 80 -131.5 63 -114.5 63 -94.5 c 2
 63 694.5 l 1
 63 714.5 80 731.5 100 731.5 c 2
137 657.5 m 1
 137 -57.5 l 1
 863 -57.5 l 1
 863 657.5 l 1
 137 657.5 l 1
115 710.5 m 2
 916 -78.5 l 1
 920 -82.5 923 -88.5 923 -94.5 c 0
 923 -100.5 920 -106.5 916 -110.5 c 0
 912 -114.5 906 -117.5 900 -117.5 c 0
 894 -117.5 889 -114.5 885 -110.5 c 2
 84 678.5 l 1
 80 682.5 77 688.5 77 694.5 c 0
 77 700.5 80 706.5 84 710.5 c 0
 88 714.5 94 716.5 100 716.5 c 0
 106 716.5 111 714.5 115 710.5 c 2
885 710.5 m 1
 885 710.5 l 1
 889 714.5 894 716.5 900 716.5 c 0
 906 716.5 912 714.5 916 710.5 c 0
 920 706.5 923 700.5 923 694.5 c 0
 923 688.5 920 682.5 916 678.5 c 2
 115 -110.5 l 1
 111 -114.5 106 -117.5 100 -117.5 c 0
 94 -117.5 88 -114.5 84 -110.5 c 0
 80 -106.5 77 -100.5 77 -94.5 c 0
 77 -88.5 80 -82.5 84 -78.5 c 2
 885 710.5 l 1
EndSplineSet
EndChar

StartChar: NameMe.62
Encoding: 62 57406 62
Width: 1000
VWidth: 811
Flags: HW
LayerCount: 2
Fore
SplineSet
100 731.5 m 2
 900 731.5 l 1
 920 731.5 937 714.5 937 694.5 c 2
 937 -94.5 l 1
 937 -114.5 920 -131.5 900 -131.5 c 2
 100 -131.5 l 1
 80 -131.5 63 -114.5 63 -94.5 c 2
 63 694.5 l 1
 63 714.5 80 731.5 100 731.5 c 2
137 657.5 m 1
 137 -57.5 l 1
 863 -57.5 l 1
 863 657.5 l 1
 137 657.5 l 1
115 710.5 m 2
 916 -78.5 l 1
 920 -82.5 923 -88.5 923 -94.5 c 0
 923 -100.5 920 -106.5 916 -110.5 c 0
 912 -114.5 906 -117.5 900 -117.5 c 0
 894 -117.5 889 -114.5 885 -110.5 c 2
 84 678.5 l 1
 80 682.5 77 688.5 77 694.5 c 0
 77 700.5 80 706.5 84 710.5 c 0
 88 714.5 94 716.5 100 716.5 c 0
 106 716.5 111 714.5 115 710.5 c 2
885 710.5 m 1
 885 710.5 l 1
 889 714.5 894 716.5 900 716.5 c 0
 906 716.5 912 714.5 916 710.5 c 0
 920 706.5 923 700.5 923 694.5 c 0
 923 688.5 920 682.5 916 678.5 c 2
 115 -110.5 l 1
 111 -114.5 106 -117.5 100 -117.5 c 0
 94 -117.5 88 -114.5 84 -110.5 c 0
 80 -106.5 77 -100.5 77 -94.5 c 0
 77 -88.5 80 -82.5 84 -78.5 c 2
 885 710.5 l 1
EndSplineSet
EndChar

StartChar: NameMe.63
Encoding: 63 57407 63
Width: 1000
VWidth: 811
Flags: HW
LayerCount: 2
Fore
SplineSet
131 697.5 m 2
 869 697.5 l 1
 888 697.5 903 682.5 903 663.5 c 2
 903 663.5 l 1
 903 -63.5 l 2
 903 -63.5 l 2
 903 -82.5 888 -97.5 869 -97.5 c 2
 131 -97.5 l 1
 112 -97.5 97 -82.5 97 -63.5 c 2
 97 -63.5 l 1
 97 663.5 l 2
 97 663.5 l 2
 97 682.5 112 697.5 131 697.5 c 2
165 629.5 m 1
 165 -29.5 l 1
 835 -29.5 l 1
 835 629.5 l 1
 165 629.5 l 1
131 663.5 m 1
 869 663.5 l 1
 869 -63.5 l 1
 131 -63.5 l 1
 131 663.5 l 1
285 592.5 m 0
 285 592.5 l 0
 264 592.5 246 584.5 232 570.5 c 0
 218 556.5 209 537.5 209 516.5 c 0
 209 495.5 217 476.5 231 462.5 c 1
 393 299.5 l 1
 231 136.5 l 2
 217 122.5 209 104.5 209 83.5 c 0
 209 62.5 218 43.5 232 29.5 c 0
 246 15.5 264 7.5 285 7.5 c 0
 306 7.5 325 15.5 339 29.5 c 1
 500 192.5 l 1
 661 29.5 l 2
 675 15.5 694 7.5 715 7.5 c 0
 736 7.5 754 15.5 768 29.5 c 0
 782 43.5 791 62.5 791 83.5 c 0
 791 104.5 783 122.5 769 136.5 c 1
 607 299.5 l 1
 769 462.5 l 2
 783 476.5 791 495.5 791 516.5 c 0
 791 537.5 782 556.5 768 570.5 c 0
 754 584.5 736 592.5 715 592.5 c 0
 715 592.5 l 0
 694 592.5 675 583.5 661 569.5 c 1
 500 407.5 l 1
 339 569.5 l 2
 325 583.5 306 592.5 285 592.5 c 0
EndSplineSet
EndChar

StartChar: NameMe.64
Encoding: 64 57408 64
Width: 1000
VWidth: 811
Flags: HW
LayerCount: 2
Fore
SplineSet
500 717.5 m 0
 730 717.5 918 529.5 918 299.5 c 0
 918 69.5 730 -117.5 500 -117.5 c 0
 270 -117.5 82 69.5 82 299.5 c 0
 82 529.5 270 717.5 500 717.5 c 0
500 680.5 m 0
 290 680.5 119 509.5 119 299.5 c 0
 119 89.5 290 -80.5 500 -80.5 c 0
 710 -80.5 881 89.5 881 299.5 c 0
 881 509.5 710 680.5 500 680.5 c 0
389 538.5 m 0
 391 539.5 394 540.5 397 540.5 c 0
 404 540.5 411 535.5 414 529.5 c 0
 415 527.5 416 524.5 416 521.5 c 0
 416 514.5 411 508.5 405 505.5 c 0
 305 459.5 251 349.5 275 242.5 c 0
 299 135.5 394 58.5 504 58.5 c 0
 614 58.5 709 135.5 733 242.5 c 0
 757 349.5 703 459.5 603 505.5 c 0
 597 508.5 592 514.5 592 521.5 c 0
 592 524.5 593 527.5 594 529.5 c 0
 597 535.5 604 540.5 611 540.5 c 0
 614 540.5 617 539.5 619 538.5 c 0
 734 484.5 797 358.5 769 234.5 c 0
 741 110.5 631 21.5 504 21.5 c 0
 377 21.5 266 110.5 239 234.5 c 0
 212 358.5 274 484.5 389 538.5 c 0
500 611.5 m 0
 510 611.5 518 602.5 518 592.5 c 2
 518 299.5 l 1
 518 289.5 510 281.5 500 281.5 c 0
 490 281.5 482 289.5 482 299.5 c 2
 482 592.5 l 1
 482 602.5 490 611.5 500 611.5 c 0
EndSplineSet
EndChar

StartChar: NameMe.65
Encoding: 65 57409 65
Width: 1000
VWidth: 812
Flags: HW
LayerCount: 2
Fore
SplineSet
357 721 m 1
 643 721 l 2
 643 721 l 2
 650 721 655 715 655 708 c 2
 655 456 l 1
 908 456 l 1
 915 456 921 450 921 443 c 2
 921 443 l 1
 921 158 l 2
 921 158 l 2
 921 151 915 145 908 145 c 2
 655 145 l 1
 655 -108 l 1
 655 -115 650 -121 643 -121 c 2
 643 -121 l 1
 357 -121 l 2
 357 -121 l 2
 350 -121 345 -115 345 -108 c 2
 345 145 l 1
 92 145 l 1
 85 145 79 151 79 158 c 2
 79 158 l 1
 79 443 l 2
 79 443 l 2
 79 450 85 456 92 456 c 2
 345 456 l 1
 345 708 l 1
 345 715 350 721 357 721 c 2
 357 721 l 1
370 696 m 1
 370 443 l 1
 370 436 364 430 357 430 c 2
 105 430 l 1
 105 171 l 1
 357 171 l 1
 364 171 370 165 370 158 c 2
 370 -95 l 1
 630 -95 l 1
 630 158 l 1
 630 165 636 171 643 171 c 2
 895 171 l 1
 895 430 l 1
 643 430 l 1
 636 430 630 436 630 443 c 2
 630 696 l 1
 370 696 l 1
171 325 m 2
 349 325 l 2
 354 325 357 322 357 317 c 2
 357 284 l 2
 357 279 354 276 349 276 c 2
 171 276 l 2
 166 276 163 279 163 284 c 2
 163 317 l 2
 163 322 166 325 171 325 c 2
525 629 m 2
 525 451 l 2
 525 446 521 443 516 443 c 2
 484 443 l 2
 479 443 475 446 475 451 c 2
 475 629 l 2
 475 634 479 638 484 638 c 2
 516 638 l 2
 521 638 525 634 525 629 c 2
525 149 m 2
 525 -29 l 2
 525 -34 521 -37 516 -37 c 2
 484 -37 l 2
 479 -37 475 -34 475 -29 c 2
 475 149 l 2
 475 154 479 157 484 157 c 2
 516 157 l 2
 521 157 525 154 525 149 c 2
651 325 m 2
 829 325 l 2
 834 325 837 322 837 317 c 2
 837 284 l 2
 837 279 834 276 829 276 c 2
 651 276 l 2
 646 276 643 279 643 284 c 2
 643 317 l 2
 643 322 646 325 651 325 c 2
EndSplineSet
EndChar

StartChar: NameMe.66
Encoding: 66 57410 66
Width: 1000
VWidth: 812
Flags: HW
LayerCount: 2
Fore
SplineSet
500 783 m 0
 766 783 983 566 983 300 c 0
 983 34 766 -183 500 -183 c 0
 234 -183 17 34 17 300 c 0
 17 566 234 783 500 783 c 0
500 738 m 0
 258 738 63 542 63 300 c 0
 63 58 258 -137 500 -137 c 0
 742 -137 937 58 937 300 c 0
 937 542 742 738 500 738 c 0
233 46 m 1
 452 617 l 1
 534 617 l 1
 767 46 l 1
 681 46 l 1
 615 219 l 1
 376 219 l 1
 313 46 l 1
 233 46 l 1
397 280 m 1
 591 280 l 1
 532 439 l 2
 514 487 500 526 491 557 c 1
 484 520 473 484 460 448 c 2
 397 280 l 1
446 626 m 1
 539 626 l 1
 780 37 l 1
 675 37 l 1
 609 210 l 1
 382 210 l 1
 319 37 l 1
 220 37 l 1
 446 626 l 1
458 609 m 1
 245 54 l 1
 307 54 l 1
 370 227 l 1
 620 227 l 1
 687 54 l 1
 755 54 l 1
 528 609 l 1
 458 609 l 1
499 560 m 1
 499 560 l 1
 508 529 522 490 540 442 c 1
 540 442 l 1
 604 272 l 1
 385 272 l 1
 452 451 l 2
 465 487 476 523 483 559 c 1
 499 560 l 1
492 525 m 2
 492 525 l 1
 485 498 478 472 468 445 c 2
 468 445 l 1
 410 289 l 1
 579 289 l 1
 524 436 l 2
 511 471 500 499 492 525 c 2
EndSplineSet
EndChar

StartChar: NameMe.67
Encoding: 67 57411 67
Width: 1000
VWidth: 819
Flags: HW
LayerCount: 2
Fore
SplineSet
167 628.5 m 2
 833 628.5 l 1
 841 628.5 846 622.5 846 614.5 c 2
 846 -14.5 l 1
 846 -22.5 841 -28.5 833 -28.5 c 2
 833 -28.5 l 2
 825 -28.5 819 -22.5 819 -14.5 c 2
 819 601.5 l 1
 181 601.5 l 1
 181 -14.5 l 1
 181 -22.5 175 -28.5 167 -28.5 c 2
 167 -28.5 l 2
 159 -28.5 154 -22.5 154 -14.5 c 2
 154 614.5 l 1
 154 622.5 159 628.5 167 628.5 c 2
500 130.5 m 1
 500 130.5 l 1
 667 130.5 751 119.5 795 106.5 c 0
 817 100.5 829 92.5 836 86.5 c 0
 840 83.5 842 80.5 844 77.5 c 0
 845 75.5 846 73.5 846 72.5 c 0
 846 71.5 846 69.5 846 69.5 c 2
 846 61.5 841 55.5 833 55.5 c 2
 833 55.5 l 2
 825 55.5 819 61.5 819 69.5 c 1
 819 69.5 819 67.5 819 66.5 c 0
 819 65.5 820 65.5 820 65.5 c 0
 820 64.5 820 65.5 819 66.5 c 0
 816 69.5 807 73.5 787 79.5 c 0
 748 90.5 666 103.5 500 103.5 c 0
 334 103.5 252 90.5 213 79.5 c 0
 193 73.5 184 69.5 181 66.5 c 0
 180 65.5 180 64.5 180 65.5 c 0
 180 65.5 181 65.5 181 66.5 c 0
 181 67.5 181 69.5 181 69.5 c 1
 181 61.5 175 55.5 167 55.5 c 2
 167 55.5 l 2
 159 55.5 154 61.5 154 69.5 c 2
 154 69.5 154 71.5 154 72.5 c 0
 154 73.5 155 75.5 156 77.5 c 0
 158 80.5 160 83.5 164 86.5 c 0
 171 92.5 183 100.5 205 106.5 c 0
 249 119.5 333 130.5 500 130.5 c 1
500 32.5 m 1
 500 32.5 l 1
 738 32.5 808 12.5 832 0.5 c 0
 836 -1.5 837 -1.5 836 -1.5 c 0
 836 -1.5 835 -1.5 834 -1.5 c 0
 833 -1.5 832 -0.5 827 -2.5 c 0
 827 -2.5 826 -3.5 825 -3.5 c 1
 827 -1.5 830 -1.5 833 -1.5 c 0
 837 -1.5 842 -3.5 844 -6.5 c 2
 844 -6.5 845 -7.5 845 -8.5 c 0
 845 -8.5 845 -8.5 845 -9.5 c 0
 845 -10.5 846 -11.5 846 -11.5 c 0
 846 -15.5 l 0
 845 -19.5 l 0
 843 -24.5 l 0
 843 -24.5 840 -25.5 839 -26.5 c 0
 834 -28.5 832 -28.5 831 -28.5 c 0
 830 -28.5 829 -27.5 828 -27.5 c 0
 825 -26.5 823 -25.5 819 -23.5 c 0
 804 -15.5 737 5.5 500 5.5 c 0
 492 5.5 486 10.5 486 18.5 c 0
 486 26.5 492 32.5 500 32.5 c 1
825 -3.5 m 2
 825 -3.5 l 1
 824 -4.5 823 -5.5 823 -5.5 c 0
 820 -9.5 l 0
 819 -14.5 l 0
 819 -17.5 l 0
 819 -17.5 820 -18.5 820 -19.5 c 0
 820 -20.5 821 -21.5 821 -21.5 c 0
 821 -22.5 822 -22.5 822 -22.5 c 1
 820 -20.5 819 -17.5 819 -14.5 c 0
 819 -10.5 822 -5.5 825 -3.5 c 2
500 32.5 m 1
 500 32.5 l 2
 500 32.5 l 2
 508 32.5 514 26.5 514 18.5 c 0
 514 10.5 508 5.5 500 5.5 c 2
 500 5.5 l 2
 263 5.5 196 -15.5 181 -23.5 c 0
 177 -25.5 175 -26.5 172 -27.5 c 0
 171 -27.5 170 -28.5 169 -28.5 c 0
 168 -28.5 166 -28.5 161 -26.5 c 0
 160 -25.5 157 -24.5 157 -24.5 c 0
 155 -19.5 l 0
 154 -15.5 l 0
 154 -11.5 l 0
 154 -11.5 155 -10.5 155 -9.5 c 0
 155 -8.5 155 -8.5 155 -8.5 c 0
 155 -7.5 156 -6.5 156 -6.5 c 2
 158 -3.5 162 -2.5 165 -1.5 c 1
 164 -1.5 l 0
 163 -1.5 164 -1.5 168 0.5 c 0
 192 12.5 262 32.5 500 32.5 c 1
166 -1.5 m 1
 167 -1.5 168 -0.5 173 -2.5 c 0
 173 -2.5 174 -3.5 175 -3.5 c 1
 173 -2.5 170 -1.5 167 -1.5 c 0
 166 -1.5 166 -1.5 165 -1.5 c 1
 166 -1.5 l 1
 166 -1.5 l 1
176 -4.5 m 1
 177 -4.5 177 -5.5 177 -5.5 c 0
 180 -9.5 l 0
 180 -9.5 180 -10.5 180 -11.5 c 1
 179 -8.5 178 -6.5 176 -4.5 c 1
181 -12.5 m 2
 181 -12.5 l 0
 181 -13.5 181 -13.5 181 -14.5 c 0
 181 -17.5 180 -20.5 178 -22.5 c 1
 178 -22.5 179 -22.5 179 -21.5 c 0
 179 -21.5 180 -20.5 180 -19.5 c 0
 180 -18.5 181 -17.5 181 -17.5 c 0
 181 -14.5 l 0
 181 -12.5 l 2
380 194.5 m 1
 380 512.5 l 1
 499 512.5 l 2
 523 512.5 543 509.5 558 502.5 c 0
 573 496.5 584 485.5 592 472.5 c 0
 600 459.5 605 445.5 605 430.5 c 0
 605 416.5 601 404.5 594 392.5 c 0
 587 380.5 575 370.5 560 363.5 c 1
 579 357.5 595 348.5 605 334.5 c 0
 615 320.5 620 305.5 620 286.5 c 0
 620 271.5 617 257.5 611 244.5 c 0
 605 231.5 596 222.5 587 215.5 c 0
 578 208.5 566 203.5 552 199.5 c 0
 538 196.5 521 194.5 501 194.5 c 2
 380 194.5 l 1
422 378.5 m 1
 491 378.5 l 2
 510 378.5 523 380.5 531 382.5 c 0
 542 385.5 550 391.5 555 398.5 c 0
 561 405.5 563 414.5 563 425.5 c 0
 563 436.5 561 445.5 556 453.5 c 0
 551 461.5 543 467.5 534 470.5 c 0
 525 473.5 509 474.5 486 474.5 c 2
 422 474.5 l 1
 422 378.5 l 1
422 231.5 m 1
 501 231.5 l 2
 515 231.5 524 232.5 530 233.5 c 0
 540 235.5 547 237.5 554 241.5 c 0
 561 245.5 566 251.5 570 259.5 c 0
 574 267.5 577 276.5 577 286.5 c 0
 577 298.5 573 308.5 567 317.5 c 0
 561 326.5 553 332.5 542 335.5 c 0
 531 339.5 516 341.5 496 341.5 c 2
 422 341.5 l 1
 422 231.5 l 1
EndSplineSet
EndChar

StartChar: NameMe.68
Encoding: 68 57412 68
Width: 1000
VWidth: 811
Flags: HW
LayerCount: 2
Fore
SplineSet
500 717.5 m 0
 730 717.5 918 529.5 918 299.5 c 0
 918 69.5 730 -117.5 500 -117.5 c 0
 270 -117.5 82 69.5 82 299.5 c 0
 82 529.5 270 717.5 500 717.5 c 0
500 680.5 m 0
 290 680.5 119 509.5 119 299.5 c 0
 119 89.5 290 -80.5 500 -80.5 c 0
 710 -80.5 881 89.5 881 299.5 c 0
 881 509.5 710 680.5 500 680.5 c 0
491 534.5 m 2
 493 536.5 497 537.5 500 537.5 c 0
 503 537.5 507 536.5 509 534.5 c 2
 752 357.5 l 0
 756 354.5 758 350.5 758 345.5 c 0
 758 337.5 751 330.5 743 330.5 c 2
 701 330.5 l 1
 701 108.5 l 1
 701 100.5 694 93.5 686 93.5 c 2
 314 93.5 l 1
 306 93.5 299 100.5 299 108.5 c 2
 299 330.5 l 1
 257 330.5 l 1
 249 330.5 242 337.5 242 345.5 c 0
 242 350.5 244 354.5 248 357.5 c 2
 491 534.5 l 2
500 503.5 m 1
 303 360.5 l 1
 314 360.5 l 2
 314 360.5 l 2
 322 360.5 329 353.5 329 345.5 c 2
 329 345.5 l 1
 329 123.5 l 1
 671 123.5 l 1
 671 345.5 l 2
 671 345.5 l 2
 671 353.5 678 360.5 686 360.5 c 2
 697 360.5 l 1
 500 503.5 l 1
500 522.5 m 1
 743 345.5 l 1
 686 345.5 l 1
 686 108.5 l 1
 314 108.5 l 1
 314 345.5 l 1
 257 345.5 l 1
 500 522.5 l 1
405 315.5 m 2
 392 315.5 382 305.5 382 292.5 c 2
 382 195.5 l 2
 382 182.5 392 172.5 405 172.5 c 2
 595 172.5 l 2
 608 172.5 618 182.5 618 195.5 c 2
 618 292.5 l 2
 618 305.5 608 315.5 595 315.5 c 2
 405 315.5 l 2
EndSplineSet
EndChar

StartChar: NameMe.69
Encoding: 69 57413 69
Width: 1000
VWidth: 811
Flags: HW
LayerCount: 2
Fore
SplineSet
500 717.5 m 0
 730 717.5 918 529.5 918 299.5 c 0
 918 69.5 730 -117.5 500 -117.5 c 0
 270 -117.5 82 69.5 82 299.5 c 0
 82 529.5 270 717.5 500 717.5 c 0
500 680.5 m 0
 290 680.5 119 509.5 119 299.5 c 0
 119 89.5 290 -80.5 500 -80.5 c 0
 710 -80.5 881 89.5 881 299.5 c 0
 881 509.5 710 680.5 500 680.5 c 0
479 511.5 m 2
 521 511.5 l 2
 535 511.5 547 499.5 547 485.5 c 2
 547 347.5 l 1
 685 347.5 l 2
 699 347.5 711 335.5 711 321.5 c 2
 711 278.5 l 2
 711 264.5 699 252.5 685 252.5 c 2
 547 252.5 l 1
 547 114.5 l 2
 547 100.5 535 88.5 521 88.5 c 2
 479 88.5 l 2
 465 88.5 453 100.5 453 114.5 c 2
 453 252.5 l 1
 315 252.5 l 2
 301 252.5 289 264.5 289 278.5 c 2
 289 321.5 l 2
 289 335.5 301 347.5 315 347.5 c 2
 453 347.5 l 1
 453 485.5 l 2
 453 499.5 465 511.5 479 511.5 c 2
EndSplineSet
EndChar

StartChar: NameMe.70
Encoding: 70 57414 70
Width: 1000
VWidth: 811
Flags: HW
LayerCount: 2
Fore
SplineSet
500 717.5 m 0
 730 717.5 918 529.5 918 299.5 c 0
 918 69.5 730 -117.5 500 -117.5 c 0
 270 -117.5 82 69.5 82 299.5 c 0
 82 529.5 270 717.5 500 717.5 c 0
500 680.5 m 0
 290 680.5 119 509.5 119 299.5 c 0
 119 89.5 290 -80.5 500 -80.5 c 0
 710 -80.5 881 89.5 881 299.5 c 0
 881 509.5 710 680.5 500 680.5 c 0
711 321.5 m 2
 711 278.5 l 2
 711 264.5 699 252.5 685 252.5 c 2
 315 252.5 l 2
 301 252.5 289 264.5 289 278.5 c 2
 289 321.5 l 2
 289 335.5 301 347.5 315 347.5 c 2
 685 347.5 l 2
 699 347.5 711 335.5 711 321.5 c 2
EndSplineSet
EndChar

StartChar: NameMe.71
Encoding: 71 57415 71
Width: 1000
VWidth: 811
Flags: HW
LayerCount: 2
Fore
SplineSet
500 717.5 m 0
 730 717.5 918 529.5 918 299.5 c 0
 918 69.5 730 -117.5 500 -117.5 c 0
 270 -117.5 82 69.5 82 299.5 c 0
 82 529.5 270 717.5 500 717.5 c 0
500 680.5 m 0
 290 680.5 119 509.5 119 299.5 c 0
 119 89.5 290 -80.5 500 -80.5 c 0
 710 -80.5 881 89.5 881 299.5 c 0
 881 509.5 710 680.5 500 680.5 c 0
537 97.5 m 1
 488 97.5 l 1
 488 412.5 l 1
 476 401.5 460 389.5 441 378.5 c 0
 422 367.5 404 359.5 389 353.5 c 1
 389 400.5 l 1
 417 413.5 440 429.5 461 447.5 c 0
 482 465.5 496 484.5 505 501.5 c 1
 537 501.5 l 1
 537 97.5 l 1
EndSplineSet
EndChar

StartChar: NameMe.72
Encoding: 72 57416 72
Width: 1000
VWidth: 811
Flags: HW
LayerCount: 2
Fore
SplineSet
500 717.5 m 0
 730 717.5 918 529.5 918 299.5 c 0
 918 69.5 730 -117.5 500 -117.5 c 0
 270 -117.5 82 69.5 82 299.5 c 0
 82 529.5 270 717.5 500 717.5 c 0
500 680.5 m 0
 290 680.5 119 509.5 119 299.5 c 0
 119 89.5 290 -80.5 500 -80.5 c 0
 710 -80.5 881 89.5 881 299.5 c 0
 881 509.5 710 680.5 500 680.5 c 0
633 145.5 m 1
 633 97.5 l 1
 367 97.5 l 1
 367 109.5 369 121.5 373 132.5 c 0
 380 150.5 390 167.5 405 185.5 c 0
 420 203.5 442 223.5 470 246.5 c 0
 514 282.5 544 310.5 559 331.5 c 0
 574 352.5 582 372.5 582 391.5 c 0
 582 411.5 575 427.5 561 440.5 c 0
 547 454.5 528 460.5 506 460.5 c 0
 482 460.5 463 453.5 449 439.5 c 0
 435 425.5 427 405.5 427 380.5 c 1
 377 385.5 l 1
 380 423.5 393 451.5 416 471.5 c 0
 439 491.5 469 501.5 507 501.5 c 0
 546 501.5 577 490.5 599 469.5 c 0
 621 448.5 633 422.5 633 390.5 c 0
 633 374.5 630 358.5 623 342.5 c 0
 616 326.5 605 310.5 590 293.5 c 0
 575 276.5 549 252.5 514 222.5 c 0
 484 197.5 465 180.5 457 171.5 c 0
 449 162.5 441 154.5 436 145.5 c 1
 633 145.5 l 1
EndSplineSet
EndChar

StartChar: NameMe.73
Encoding: 73 57417 73
Width: 1000
VWidth: 812
Flags: HW
LayerCount: 2
Fore
SplineSet
495 710 m 1
 787 593 l 1
 910 305 l 1
 793 14 l 1
 505 -110 l 1
 213 7 l 1
 90 296 l 1
 207 587 l 1
 495 710 l 1
496 690 m 1
 221 573 l 1
 110 296 l 1
 227 21 l 1
 504 -90 l 1
 779 28 l 1
 890 305 l 1
 773 579 l 1
 496 690 l 1
500 625 m 0
 679 625 825 479 825 300 c 0
 825 121 679 -25 500 -25 c 0
 321 -25 175 121 175 300 c 0
 175 479 321 625 500 625 c 0
500 603 m 0
 333 603 198 467 198 300 c 0
 198 133 333 -2 500 -2 c 0
 667 -2 802 133 802 300 c 0
 802 467 667 603 500 603 c 0
500 587 m 0
 659 587 788 458 788 300 c 0
 788 142 659 13 500 13 c 0
 341 13 212 142 212 300 c 0
 212 458 341 587 500 587 c 0
500 574 m 0
 348 574 225 451 225 300 c 0
 225 149 348 26 500 26 c 0
 652 26 775 149 775 300 c 0
 775 451 652 574 500 574 c 0
EndSplineSet
EndChar

StartChar: NameMe.74
Encoding: 74 57418 74
Width: 1000
VWidth: 812
Flags: HW
LayerCount: 2
Fore
SplineSet
500 599 m 0
 701 599 867 466 867 300 c 0
 867 134 701 1 500 1 c 0
 299 1 133 134 133 300 c 0
 133 466 299 599 500 599 c 0
500 580 m 0
 307 580 153 453 153 300 c 0
 153 147 307 21 500 21 c 0
 693 21 847 147 847 300 c 0
 847 453 693 580 500 580 c 0
629 238 m 1
 684 224 l 1
 672 179 651 145 621 121 c 0
 591 97 555 85 512 85 c 0
 467 85 430 95 402 113 c 0
 374 131 353 157 338 192 c 0
 323 227 316 263 316 303 c 0
 316 346 325 384 341 416 c 0
 358 448 382 473 412 490 c 0
 443 507 475 515 512 515 c 0
 554 515 589 504 617 483 c 0
 645 462 666 432 677 394 c 1
 622 381 l 1
 612 411 598 433 580 447 c 0
 562 461 539 468 511 468 c 0
 479 468 453 460 431 445 c 0
 410 430 395 409 386 383 c 0
 377 357 373 331 373 304 c 0
 373 269 378 237 388 211 c 0
 398 185 415 165 437 152 c 0
 459 139 482 132 507 132 c 0
 538 132 564 141 585 159 c 0
 606 177 621 203 629 238 c 1
EndSplineSet
EndChar

StartChar: NameMe.75
Encoding: 75 57419 75
Width: 1000
VWidth: 812
Flags: HW
LayerCount: 2
Fore
SplineSet
172 659 m 2
 828 659 l 2
 851 659 873 640 871 615 c 2
 811 -17 l 2
 809 -38 792 -59 769 -59 c 2
 231 -59 l 2
 208 -59 191 -38 189 -17 c 2
 129 615 l 2
 127 640 149 659 172 659 c 2
172 622 m 2
 168 622 166 620 166 618 c 2
 225 -14 l 2
 226 -20 227 -22 231 -22 c 2
 769 -22 l 2
 773 -22 774 -20 775 -14 c 2
 834 618 l 2
 834 620 832 622 828 622 c 2
 172 622 l 2
331 86 m 1
 331 139 l 1
 550 413 l 2
 566 432 581 450 595 464 c 1
 355 464 l 1
 355 515 l 1
 662 515 l 1
 662 464 l 1
 422 167 l 1
 396 137 l 1
 669 137 l 1
 669 86 l 1
 331 86 l 1
EndSplineSet
EndChar

StartChar: NameMe.76
Encoding: 76 57420 76
Width: 1000
VWidth: 811
Flags: HW
LayerCount: 2
Fore
SplineSet
500 717.5 m 0
 730 717.5 918 529.5 918 299.5 c 0
 918 69.5 730 -117.5 500 -117.5 c 0
 270 -117.5 82 69.5 82 299.5 c 0
 82 529.5 270 717.5 500 717.5 c 0
500 680.5 m 0
 290 680.5 119 509.5 119 299.5 c 0
 119 89.5 290 -80.5 500 -80.5 c 0
 710 -80.5 881 89.5 881 299.5 c 0
 881 509.5 710 680.5 500 680.5 c 0
585 171.5 m 1
 564 153.5 543 140.5 523 132.5 c 0
 503 124.5 482 121.5 459 121.5 c 0
 421 121.5 393 130.5 373 148.5 c 0
 353 166.5 343 190.5 343 219.5 c 0
 343 236.5 346 250.5 354 264.5 c 0
 362 278.5 372 290.5 384 298.5 c 0
 396 306.5 411 313.5 426 317.5 c 0
 437 320.5 454 322.5 477 325.5 c 0
 524 331.5 558 337.5 580 345.5 c 0
 580 353.5 581 358.5 581 360.5 c 0
 581 384.5 575 400.5 564 410.5 c 0
 549 423.5 527 430.5 498 430.5 c 0
 471 430.5 451 425.5 438 415.5 c 0
 425 406.5 415 389.5 409 365.5 c 1
 353 373.5 l 1
 358 397.5 366 416.5 378 431.5 c 0
 390 446.5 407 458.5 429 466.5 c 0
 451 474.5 478 478.5 507 478.5 c 0
 536 478.5 560 474.5 578 467.5 c 0
 596 460.5 609 452.5 618 441.5 c 0
 627 431.5 633 418.5 636 402.5 c 0
 638 392.5 639 375.5 639 349.5 c 2
 639 272.5 l 2
 639 218.5 640 183.5 642 169.5 c 0
 645 155.5 650 141.5 657 128.5 c 1
 597 128.5 l 1
 591 140.5 587 155.5 585 171.5 c 1
 585 171.5 l 1
580 300.5 m 1
 559 291.5 528 284.5 486 278.5 c 0
 462 275.5 445 270.5 435 266.5 c 0
 425 262.5 418 255.5 413 247.5 c 0
 408 239.5 404 230.5 404 220.5 c 0
 404 205.5 410 192.5 422 182.5 c 0
 434 172.5 450 166.5 473 166.5 c 0
 495 166.5 516 171.5 533 181.5 c 0
 550 191.5 563 204.5 571 221.5 c 0
 577 234.5 580 253.5 580 279.5 c 2
 580 300.5 l 1
EndSplineSet
EndChar

StartChar: NameMe.77
Encoding: 77 57421 77
Width: 1000
VWidth: 811
Flags: HW
LayerCount: 2
Fore
SplineSet
500 717.5 m 0
 730 717.5 918 529.5 918 299.5 c 0
 918 69.5 730 -117.5 500 -117.5 c 0
 270 -117.5 82 69.5 82 299.5 c 0
 82 529.5 270 717.5 500 717.5 c 0
500 680.5 m 0
 290 680.5 119 509.5 119 299.5 c 0
 119 89.5 290 -80.5 500 -80.5 c 0
 710 -80.5 881 89.5 881 299.5 c 0
 881 509.5 710 680.5 500 680.5 c 0
406 67.5 m 1
 352 67.5 l 1
 352 539.5 l 1
 410 539.5 l 1
 410 371.5 l 1
 434 402.5 465 417.5 503 417.5 c 0
 524 417.5 544 413.5 563 404.5 c 0
 582 396.5 597 383.5 609 368.5 c 0
 621 353.5 631 335.5 638 313.5 c 0
 645 291.5 648 268.5 648 243.5 c 0
 648 184.5 634 140.5 605 108.5 c 0
 576 76.5 541 60.5 500 60.5 c 0
 460 60.5 429 76.5 406 110.5 c 1
 406 67.5 l 1
405 241.5 m 0
 405 200.5 411 170.5 422 152.5 c 0
 440 122.5 465 107.5 496 107.5 c 0
 521 107.5 543 118.5 561 140.5 c 0
 579 162.5 589 194.5 589 238.5 c 0
 589 283.5 580 316.5 562 337.5 c 0
 544 358.5 523 369.5 498 369.5 c 0
 473 369.5 451 358.5 433 336.5 c 0
 415 314.5 405 283.5 405 241.5 c 0
EndSplineSet
EndChar

StartChar: NameMe.78
Encoding: 78 57422 78
Width: 1000
VWidth: 811
Flags: HW
LayerCount: 2
Fore
SplineSet
500 717.5 m 0
 730 717.5 918 529.5 918 299.5 c 0
 918 69.5 730 -117.5 500 -117.5 c 0
 270 -117.5 82 69.5 82 299.5 c 0
 82 529.5 270 717.5 500 717.5 c 0
500 680.5 m 0
 290 680.5 119 509.5 119 299.5 c 0
 119 89.5 290 -80.5 500 -80.5 c 0
 710 -80.5 881 89.5 881 299.5 c 0
 881 509.5 710 680.5 500 680.5 c 0
340 128.5 m 1
 465 306.5 l 1
 349 470.5 l 1
 422 470.5 l 1
 474 390.5 l 2
 484 375.5 492 362.5 498 352.5 c 1
 507 366.5 516 378.5 524 389.5 c 2
 582 470.5 l 1
 651 470.5 l 1
 533 309.5 l 1
 660 128.5 l 1
 589 128.5 l 1
 519 235.5 l 1
 500 263.5 l 1
 410 128.5 l 1
 340 128.5 l 1
EndSplineSet
EndChar

StartChar: NameMe.79
Encoding: 79 57423 79
Width: 1000
VWidth: 811
Flags: HW
LayerCount: 2
Fore
SplineSet
500 717.5 m 0
 730 717.5 918 529.5 918 299.5 c 0
 918 69.5 730 -117.5 500 -117.5 c 0
 270 -117.5 82 69.5 82 299.5 c 0
 82 529.5 270 717.5 500 717.5 c 0
500 680.5 m 0
 290 680.5 119 509.5 119 299.5 c 0
 119 89.5 290 -80.5 500 -80.5 c 0
 710 -80.5 881 89.5 881 299.5 c 0
 881 509.5 710 680.5 500 680.5 c 0
374 -3.5 m 1
 367 50.5 l 1
 380 47.5 391 45.5 400 45.5 c 0
 413 45.5 423 48.5 431 52.5 c 0
 439 56.5 445 62.5 450 70.5 c 0
 454 76.5 460 90.5 468 113.5 c 0
 469 116.5 471 121.5 473 127.5 c 2
 344 469.5 l 1
 406 469.5 l 1
 477 271.5 l 2
 486 246.5 495 220.5 502 192.5 c 1
 509 219.5 517 245.5 526 270.5 c 2
 599 469.5 l 1
 656 469.5 l 1
 527 122.5 l 2
 513 84.5 502 58.5 494 44.5 c 0
 484 25.5 472 11.5 459 2.5 c 0
 446 -6.5 429 -10.5 411 -10.5 c 0
 400 -10.5 388 -8.5 374 -3.5 c 1
EndSplineSet
EndChar

StartChar: NameMe.80
Encoding: 80 57424 80
Width: 1000
VWidth: 812
Flags: HW
LayerCount: 2
Fore
SplineSet
495 710 m 1
 787 593 l 1
 910 305 l 1
 793 14 l 1
 505 -110 l 1
 213 7 l 1
 90 296 l 1
 207 587 l 1
 495 710 l 1
496 690 m 1
 221 573 l 1
 110 296 l 1
 227 21 l 1
 504 -90 l 1
 779 28 l 1
 890 305 l 1
 773 579 l 1
 496 690 l 1
500 625 m 0
 679 625 825 479 825 300 c 0
 825 121 679 -25 500 -25 c 0
 321 -25 175 121 175 300 c 0
 175 479 321 625 500 625 c 0
500 603 m 0
 333 603 198 467 198 300 c 0
 198 133 333 -2 500 -2 c 0
 667 -2 802 133 802 300 c 0
 802 467 667 603 500 603 c 0
500 587 m 0
 659 587 788 458 788 300 c 0
 788 142 659 13 500 13 c 0
 341 13 212 142 212 300 c 0
 212 458 341 587 500 587 c 0
500 574 m 0
 348 574 225 451 225 300 c 0
 225 149 348 26 500 26 c 0
 652 26 775 149 775 300 c 0
 775 451 652 574 500 574 c 0
399 139 m 1
 399 462 l 1
 442 462 l 1
 442 177 l 1
 601 177 l 1
 601 139 l 1
 399 139 l 1
EndSplineSet
EndChar

StartChar: NameMe.81
Encoding: 81 57425 81
Width: 1000
VWidth: 812
Flags: HW
LayerCount: 2
Fore
SplineSet
495 710 m 1
 787 593 l 1
 910 305 l 1
 793 14 l 1
 505 -110 l 1
 213 7 l 1
 90 296 l 1
 207 587 l 1
 495 710 l 1
496 690 m 1
 221 573 l 1
 110 296 l 1
 227 21 l 1
 504 -90 l 1
 779 28 l 1
 890 305 l 1
 773 579 l 1
 496 690 l 1
500 625 m 0
 679 625 825 479 825 300 c 0
 825 121 679 -25 500 -25 c 0
 321 -25 175 121 175 300 c 0
 175 479 321 625 500 625 c 0
500 603 m 0
 333 603 198 467 198 300 c 0
 198 133 333 -2 500 -2 c 0
 667 -2 802 133 802 300 c 0
 802 467 667 603 500 603 c 0
500 587 m 0
 659 587 788 458 788 300 c 0
 788 142 659 13 500 13 c 0
 341 13 212 142 212 300 c 0
 212 458 341 587 500 587 c 0
500 574 m 0
 348 574 225 451 225 300 c 0
 225 149 348 26 500 26 c 0
 652 26 775 149 775 300 c 0
 775 451 652 574 500 574 c 0
358 139 m 1
 358 462 l 1
 501 462 l 2
 530 462 552 459 567 453 c 0
 582 447 594 437 603 422 c 0
 612 407 616 392 616 374 c 0
 616 351 609 332 594 316 c 0
 579 300 556 290 525 286 c 1
 536 281 545 275 551 270 c 0
 563 259 575 244 586 227 c 2
 642 139 l 1
 589 139 l 1
 546 206 l 2
 534 225 523 240 515 250 c 0
 507 260 499 268 493 272 c 0
 487 276 481 279 474 281 c 0
 469 282 461 282 450 282 c 2
 400 282 l 1
 400 139 l 1
 358 139 l 1
400 319 m 1
 492 319 l 2
 512 319 527 321 538 325 c 0
 549 329 557 336 563 345 c 0
 569 354 572 364 572 374 c 0
 572 389 566 401 555 411 c 0
 544 421 527 426 503 426 c 2
 400 426 l 1
 400 319 l 1
EndSplineSet
EndChar

StartChar: NameMe.82
Encoding: 82 57426 82
Width: 1000
VWidth: 811
Flags: HW
LayerCount: 2
Fore
SplineSet
335 562.5 m 2
 665 562.5 l 2
 719 562.5 768 531.5 802 483.5 c 0
 836 435.5 856 370.5 856 299.5 c 0
 856 228.5 836 163.5 802 115.5 c 0
 768 67.5 719 37.5 665 37.5 c 2
 335 37.5 l 2
 281 37.5 232 67.5 198 115.5 c 0
 164 163.5 144 228.5 144 299.5 c 0
 144 370.5 164 435.5 198 483.5 c 0
 232 531.5 281 562.5 335 562.5 c 2
335 534.5 m 2
 291 534.5 251 509.5 221 467.5 c 0
 191 425.5 172 365.5 172 299.5 c 0
 172 233.5 191 174.5 221 132.5 c 0
 251 90.5 291 65.5 335 65.5 c 2
 665 65.5 l 2
 709 65.5 749 90.5 779 132.5 c 0
 809 174.5 828 233.5 828 299.5 c 0
 828 365.5 809 425.5 779 467.5 c 0
 749 509.5 709 534.5 665 534.5 c 2
 335 534.5 l 2
400 139.5 m 1
 400 460.5 l 1
 442 460.5 l 1
 442 177.5 l 1
 600 177.5 l 1
 600 139.5 l 1
 400 139.5 l 1
EndSplineSet
EndChar

StartChar: NameMe.83
Encoding: 83 57427 83
Width: 1000
VWidth: 811
Flags: HW
LayerCount: 2
Fore
SplineSet
335 562.5 m 2
 665 562.5 l 2
 719 562.5 768 531.5 802 483.5 c 0
 836 435.5 856 370.5 856 299.5 c 0
 856 228.5 836 163.5 802 115.5 c 0
 768 67.5 719 37.5 665 37.5 c 2
 335 37.5 l 2
 281 37.5 232 67.5 198 115.5 c 0
 164 163.5 144 228.5 144 299.5 c 0
 144 370.5 164 435.5 198 483.5 c 0
 232 531.5 281 562.5 335 562.5 c 2
335 534.5 m 2
 291 534.5 251 509.5 221 467.5 c 0
 191 425.5 172 365.5 172 299.5 c 0
 172 233.5 191 174.5 221 132.5 c 0
 251 90.5 291 65.5 335 65.5 c 2
 665 65.5 l 2
 709 65.5 749 90.5 779 132.5 c 0
 809 174.5 828 233.5 828 299.5 c 0
 828 365.5 809 425.5 779 467.5 c 0
 749 509.5 709 534.5 665 534.5 c 2
 335 534.5 l 2
358 139.5 m 1
 358 460.5 l 1
 501 460.5 l 2
 530 460.5 551 457.5 566 451.5 c 0
 581 445.5 593 436.5 602 421.5 c 0
 611 406.5 615 390.5 615 372.5 c 0
 615 349.5 608 331.5 593 315.5 c 0
 578 299.5 556 289.5 525 285.5 c 1
 536 280.5 544 274.5 550 269.5 c 0
 562 258.5 575 243.5 586 226.5 c 2
 642 139.5 l 1
 588 139.5 l 1
 546 205.5 l 2
 534 224.5 523 240.5 515 250.5 c 0
 507 260.5 499 267.5 493 271.5 c 0
 487 275.5 481 278.5 474 280.5 c 0
 469 281.5 461 281.5 450 281.5 c 2
 401 281.5 l 1
 401 139.5 l 1
 358 139.5 l 1
401 318.5 m 1
 492 318.5 l 2
 511 318.5 527 320.5 538 324.5 c 0
 549 328.5 557 334.5 563 343.5 c 0
 569 352.5 571 362.5 571 372.5 c 0
 571 387.5 566 400.5 555 410.5 c 0
 544 420.5 527 424.5 503 424.5 c 2
 401 424.5 l 1
 401 318.5 l 1
EndSplineSet
EndChar

StartChar: NameMe.84
Encoding: 84 57428 84
Width: 1000
VWidth: 811
Flags: HW
LayerCount: 2
Fore
SplineSet
500 562.5 m 0
 597 562.5 685 533.5 750 486.5 c 0
 815 439.5 856 373.5 856 299.5 c 0
 856 225.5 815 159.5 750 112.5 c 0
 685 65.5 597 37.5 500 37.5 c 0
 403 37.5 315 65.5 250 112.5 c 0
 185 159.5 144 225.5 144 299.5 c 0
 144 373.5 185 439.5 250 486.5 c 0
 315 533.5 403 562.5 500 562.5 c 0
500 534.5 m 0
 408 534.5 325 507.5 266 464.5 c 0
 207 421.5 172 363.5 172 299.5 c 0
 172 235.5 207 178.5 266 135.5 c 0
 325 92.5 408 65.5 500 65.5 c 0
 592 65.5 675 92.5 734 135.5 c 0
 793 178.5 828 235.5 828 299.5 c 0
 828 363.5 793 421.5 734 464.5 c 0
 675 507.5 592 534.5 500 534.5 c 0
292 150.5 m 1
 292 187.5 l 1
 445 378.5 l 2
 456 392.5 465 403.5 475 413.5 c 1
 309 413.5 l 1
 309 448.5 l 1
 523 448.5 l 1
 523 413.5 l 1
 355 206.5 l 1
 337 186.5 l 1
 527 186.5 l 1
 527 150.5 l 1
 292 150.5 l 1
562 150.5 m 1
 562 384.5 l 1
 593 384.5 l 1
 593 178.5 l 1
 708 178.5 l 1
 708 150.5 l 1
 562 150.5 l 1
EndSplineSet
EndChar

StartChar: NameMe.85
Encoding: 85 57429 85
Width: 1000
VWidth: 811
Flags: HW
LayerCount: 2
Fore
SplineSet
500 562.5 m 0
 597 562.5 685 533.5 750 486.5 c 0
 815 439.5 856 373.5 856 299.5 c 0
 856 225.5 815 159.5 750 112.5 c 0
 685 65.5 597 37.5 500 37.5 c 0
 403 37.5 315 65.5 250 112.5 c 0
 185 159.5 144 225.5 144 299.5 c 0
 144 373.5 185 439.5 250 486.5 c 0
 315 533.5 403 562.5 500 562.5 c 0
500 534.5 m 0
 408 534.5 325 507.5 266 464.5 c 0
 207 421.5 172 363.5 172 299.5 c 0
 172 235.5 207 178.5 266 135.5 c 0
 325 92.5 408 65.5 500 65.5 c 0
 592 65.5 675 92.5 734 135.5 c 0
 793 178.5 828 235.5 828 299.5 c 0
 828 363.5 793 421.5 734 464.5 c 0
 675 507.5 592 534.5 500 534.5 c 0
261 150.5 m 1
 261 187.5 l 1
 414 378.5 l 2
 425 392.5 435 403.5 445 413.5 c 1
 278 413.5 l 1
 278 448.5 l 1
 492 448.5 l 1
 492 413.5 l 1
 325 206.5 l 1
 307 186.5 l 1
 497 186.5 l 1
 497 150.5 l 1
 261 150.5 l 1
533 150.5 m 1
 533 384.5 l 1
 636 384.5 l 2
 657 384.5 673 382.5 684 378.5 c 0
 695 374.5 704 367.5 710 356.5 c 0
 716 345.5 720 333.5 720 320.5 c 0
 720 303.5 715 290.5 704 279.5 c 0
 693 268.5 676 260.5 654 257.5 c 1
 662 253.5 668 249.5 672 245.5 c 0
 681 237.5 690 226.5 698 214.5 c 2
 739 150.5 l 1
 700 150.5 l 1
 669 199.5 l 2
 660 213.5 653 224.5 647 231.5 c 0
 641 238.5 636 244.5 631 247.5 c 0
 626 250.5 622 252.5 617 253.5 c 0
 613 254.5 608 254.5 600 254.5 c 2
 564 254.5 l 1
 564 150.5 l 1
 533 150.5 l 1
564 281.5 m 1
 630 281.5 l 2
 644 281.5 655 282.5 663 285.5 c 0
 671 288.5 678 293.5 682 299.5 c 0
 686 305.5 688 312.5 688 320.5 c 0
 688 331.5 684 341.5 676 348.5 c 0
 668 355.5 655 358.5 638 358.5 c 2
 564 358.5 l 1
 564 281.5 l 1
EndSplineSet
EndChar

StartChar: NameMe.86
Encoding: 86 57430 86
Width: 1000
VWidth: 811
Flags: HW
LayerCount: 2
Fore
SplineSet
670 642.5 m 1
 901 642.5 l 1
 901 377.5 l 2
 901 79.5 901 80.5 537 80.5 c 0
 295 80.5 317 80.5 317 80.5 c 1
 317 -42.5 l 1
 99 197.5 l 1
 317 438.5 l 1
 317 315.5 l 1
 537 315.5 l 2
 670 315.5 670 315.5 670 377.5 c 2
 670 642.5 l 1
EndSplineSet
EndChar

StartChar: NameMe.87
Encoding: 87 57431 87
Width: 1000
VWidth: 986
Flags: HW
LayerCount: 2
Fore
SplineSet
224 474.5 m 1
 310 474.5 l 1
 310 211.5 l 1
 690 211.5 l 1
 690 474.5 l 1
 776 474.5 l 1
 776 125.5 l 1
 224 125.5 l 1
 224 474.5 l 1
EndSplineSet
EndChar

StartChar: NameMe.88
Encoding: 88 57432 88
Width: 1000
VWidth: 812
Flags: HW
LayerCount: 2
Fore
SplineSet
374 714 m 0
 390 714 403 709 413 701 c 0
 423 693 429 682 433 672 c 0
 441 652 441 632 441 632 c 1
 441 418 l 1
 442 419 442 422 444 423 c 0
 455 432 470 438 489 438 c 0
 507 438 522 430 532 420 c 0
 542 410 547 398 551 386 c 1
 561 403 579 418 605 418 c 0
 623 418 636 412 646 402 c 0
 652 395 657 387 660 379 c 1
 666 386 672 392 679 395 c 0
 698 403 717 400 726 397 c 0
 744 391 754 373 760 352 c 0
 766 331 768 305 768 276 c 0
 768 202 758 135 745 83 c 0
 738 57 732 35 724 18 c 0
 716 1 709 -12 699 -19 c 0
 684 -30 680 -49 676 -69 c 0
 674 -79 672 -88 667 -97 c 0
 662 -106 652 -114 640 -114 c 2
 344 -114 l 2
 337 -114 331 -110 327 -106 c 0
 323 -102 322 -98 320 -93 c 0
 317 -84 316 -73 316 -66 c 0
 315 -48 295 -27 274 5 c 0
 253 37 232 79 232 138 c 2
 232 229 l 2
 232 326 304 361 307 362 c 2
 307 632 l 1
 307 632 307 652 315 672 c 0
 319 682 325 693 335 701 c 0
 345 709 358 714 374 714 c 0
374 692 m 1
 374 692 l 1
 363 692 355 688 349 683 c 0
 343 678 339 671 336 663 c 0
 330 648 330 632 330 632 c 1
 330 238 l 2
 330 238 l 2
 330 232 325 227 319 227 c 2
 319 227 l 2
 313 227 307 232 307 238 c 2
 307 238 l 1
 307 336 l 1
 289 325 254 295 254 229 c 2
 254 138 l 2
 254 84 273 48 293 18 c 0
 313 -12 336 -35 338 -65 c 0
 338 -71 340 -80 342 -86 c 0
 343 -89 343 -90 344 -91 c 0
 345 -92 344 -91 344 -91 c 2
 640 -91 l 2
 645 -91 646 -91 648 -87 c 0
 650 -83 652 -74 654 -64 c 0
 658 -44 663 -17 686 0 c 0
 689 2 696 12 703 27 c 0
 710 42 717 63 723 88 c 0
 736 138 746 204 746 276 c 0
 746 304 743 328 738 346 c 0
 733 364 726 373 718 376 c 0
 715 377 699 380 688 375 c 0
 677 370 666 359 666 325 c 0
 666 324 l 0
 665 323 l 1
 643 324 l 2
 643 325 643 325 643 326 c 1
 643 326 l 1
 643 326 646 345 642 363 c 0
 640 372 636 380 630 386 c 0
 624 392 618 395 605 395 c 0
 583 395 572 382 565 366 c 0
 558 350 556 335 556 335 c 1
 534 336 l 1
 534 336 535 358 529 378 c 0
 526 388 522 398 516 405 c 0
 510 412 502 415 489 415 c 0
 475 415 466 412 459 406 c 0
 452 400 448 392 445 383 c 0
 440 368 441 355 441 351 c 2
 441 347 l 1
 418 346 l 1
 418 347 l 2
 418 347 l 1
 418 632 l 1
 418 632 418 648 412 663 c 0
 409 671 405 678 399 683 c 0
 393 688 385 692 374 692 c 1
EndSplineSet
EndChar

StartChar: NameMe.89
Encoding: 89 57433 89
Width: 1000
VWidth: 812
Flags: HW
LayerCount: 2
Fore
SplineSet
374 714 m 0
 390 714 403 709 413 701 c 0
 423 693 429 682 433 672 c 0
 441 652 441 632 441 632 c 1
 441 418 l 1
 442 419 442 422 444 423 c 0
 455 432 470 438 489 438 c 0
 507 438 522 430 532 420 c 0
 542 410 547 398 551 386 c 1
 561 403 579 418 605 418 c 0
 623 418 636 412 646 402 c 0
 652 395 657 387 660 379 c 1
 666 386 672 392 679 395 c 0
 698 403 717 400 726 397 c 0
 744 391 754 373 760 352 c 0
 766 331 768 305 768 276 c 0
 768 202 758 135 745 83 c 0
 738 57 732 35 724 18 c 0
 716 1 709 -12 699 -19 c 0
 684 -30 680 -49 676 -69 c 0
 674 -79 672 -88 667 -97 c 0
 662 -106 652 -114 640 -114 c 2
 344 -114 l 2
 337 -114 331 -110 327 -106 c 0
 323 -102 322 -98 320 -93 c 0
 317 -84 316 -73 316 -66 c 0
 315 -48 295 -27 274 5 c 0
 253 37 232 79 232 138 c 2
 232 229 l 2
 232 326 304 361 307 362 c 2
 307 632 l 1
 307 632 307 652 315 672 c 0
 319 682 325 693 335 701 c 0
 345 709 358 714 374 714 c 0
374 692 m 1
 374 692 l 1
 363 692 355 688 349 683 c 0
 343 678 339 671 336 663 c 0
 330 648 330 632 330 632 c 1
 330 238 l 2
 330 238 l 2
 330 232 325 227 319 227 c 2
 319 227 l 2
 313 227 307 232 307 238 c 2
 307 238 l 1
 307 336 l 1
 289 325 254 295 254 229 c 2
 254 138 l 2
 254 84 273 48 293 18 c 0
 313 -12 336 -35 338 -65 c 0
 338 -71 340 -80 342 -86 c 0
 343 -89 343 -90 344 -91 c 0
 345 -92 344 -91 344 -91 c 2
 640 -91 l 2
 645 -91 646 -91 648 -87 c 0
 650 -83 652 -74 654 -64 c 0
 658 -44 663 -17 686 0 c 0
 689 2 696 12 703 27 c 0
 710 42 717 63 723 88 c 0
 736 138 746 204 746 276 c 0
 746 304 743 328 738 346 c 0
 733 364 726 373 718 376 c 0
 715 377 699 380 688 375 c 0
 677 370 666 359 666 325 c 0
 666 324 l 0
 665 323 l 1
 643 324 l 2
 643 325 643 325 643 326 c 1
 643 326 l 1
 643 326 646 345 642 363 c 0
 640 372 636 380 630 386 c 0
 624 392 618 395 605 395 c 0
 583 395 572 382 565 366 c 0
 558 350 556 335 556 335 c 1
 534 336 l 1
 534 336 535 358 529 378 c 0
 526 388 522 398 516 405 c 0
 510 412 502 415 489 415 c 0
 475 415 466 412 459 406 c 0
 452 400 448 392 445 383 c 0
 440 368 441 355 441 351 c 2
 441 347 l 1
 418 346 l 1
 418 347 l 2
 418 347 l 1
 418 632 l 1
 418 632 418 648 412 663 c 0
 409 671 405 678 399 683 c 0
 393 688 385 692 374 692 c 1
517 3 m 1
 489 3 l 1
 489 184 l 1
 482 177 473 172 462 165 c 0
 451 158 441 153 432 150 c 1
 432 178 l 1
 448 186 462 194 474 205 c 0
 486 216 494 226 499 236 c 1
 517 236 l 1
 517 3 l 1
EndSplineSet
EndChar

StartChar: NameMe.90
Encoding: 90 57434 90
Width: 1000
VWidth: 812
Flags: HW
LayerCount: 2
Fore
SplineSet
374 714 m 0
 390 714 403 709 413 701 c 0
 423 693 429 682 433 672 c 0
 441 652 441 632 441 632 c 1
 441 418 l 1
 442 419 442 422 444 423 c 0
 455 432 470 438 489 438 c 0
 507 438 522 430 532 420 c 0
 542 410 547 398 551 386 c 1
 561 403 579 418 605 418 c 0
 623 418 636 412 646 402 c 0
 652 395 657 387 660 379 c 1
 666 386 672 392 679 395 c 0
 698 403 717 400 726 397 c 0
 744 391 754 373 760 352 c 0
 766 331 768 305 768 276 c 0
 768 202 758 135 745 83 c 0
 738 57 732 35 724 18 c 0
 716 1 709 -12 699 -19 c 0
 684 -30 680 -49 676 -69 c 0
 674 -79 672 -88 667 -97 c 0
 662 -106 652 -114 640 -114 c 2
 344 -114 l 2
 337 -114 331 -110 327 -106 c 0
 323 -102 322 -98 320 -93 c 0
 317 -84 316 -73 316 -66 c 0
 315 -48 295 -27 274 5 c 0
 253 37 232 79 232 138 c 2
 232 229 l 2
 232 326 304 361 307 362 c 2
 307 632 l 1
 307 632 307 652 315 672 c 0
 319 682 325 693 335 701 c 0
 345 709 358 714 374 714 c 0
374 692 m 1
 374 692 l 1
 363 692 355 688 349 683 c 0
 343 678 339 671 336 663 c 0
 330 648 330 632 330 632 c 1
 330 238 l 2
 330 238 l 2
 330 232 325 227 319 227 c 2
 319 227 l 2
 313 227 307 232 307 238 c 2
 307 238 l 1
 307 336 l 1
 289 325 254 295 254 229 c 2
 254 138 l 2
 254 84 273 48 293 18 c 0
 313 -12 336 -35 338 -65 c 0
 338 -71 340 -80 342 -86 c 0
 343 -89 343 -90 344 -91 c 0
 345 -92 344 -91 344 -91 c 2
 640 -91 l 2
 645 -91 646 -91 648 -87 c 0
 650 -83 652 -74 654 -64 c 0
 658 -44 663 -17 686 0 c 0
 689 2 696 12 703 27 c 0
 710 42 717 63 723 88 c 0
 736 138 746 204 746 276 c 0
 746 304 743 328 738 346 c 0
 733 364 726 373 718 376 c 0
 715 377 699 380 688 375 c 0
 677 370 666 359 666 325 c 0
 666 324 l 0
 665 323 l 1
 643 324 l 2
 643 325 643 325 643 326 c 1
 643 326 l 1
 643 326 646 345 642 363 c 0
 640 372 636 380 630 386 c 0
 624 392 618 395 605 395 c 0
 583 395 572 382 565 366 c 0
 558 350 556 335 556 335 c 1
 534 336 l 1
 534 336 535 358 529 378 c 0
 526 388 522 398 516 405 c 0
 510 412 502 415 489 415 c 0
 475 415 466 412 459 406 c 0
 452 400 448 392 445 383 c 0
 440 368 441 355 441 351 c 2
 441 347 l 1
 418 346 l 1
 418 347 l 2
 418 347 l 1
 418 632 l 1
 418 632 418 648 412 663 c 0
 409 671 405 678 399 683 c 0
 393 688 385 692 374 692 c 1
577 30 m 1
 577 3 l 1
 423 3 l 1
 423 10 425 17 427 23 c 0
 431 33 436 43 445 53 c 0
 454 63 467 76 483 89 c 0
 508 110 525 126 534 138 c 0
 543 150 547 161 547 172 c 0
 547 183 543 193 535 201 c 0
 527 209 517 212 504 212 c 0
 490 212 479 208 471 200 c 0
 463 192 458 181 458 166 c 1
 429 169 l 1
 431 191 438 208 451 219 c 0
 464 231 482 236 504 236 c 0
 526 236 544 229 557 217 c 0
 570 205 577 189 577 171 c 0
 577 162 575 153 571 144 c 0
 567 135 561 126 552 116 c 0
 543 106 528 92 508 75 c 0
 491 61 480 50 475 45 c 0
 470 40 466 35 463 30 c 1
 577 30 l 1
EndSplineSet
EndChar

StartChar: NameMe.91
Encoding: 91 57435 91
Width: 1000
VWidth: 812
Flags: HW
LayerCount: 2
Fore
SplineSet
374 714 m 0
 390 714 403 709 413 701 c 0
 423 693 429 682 433 672 c 0
 441 652 441 632 441 632 c 1
 441 418 l 1
 442 419 442 422 444 423 c 0
 455 432 470 438 489 438 c 0
 507 438 522 430 532 420 c 0
 542 410 547 398 551 386 c 1
 561 403 579 418 605 418 c 0
 623 418 636 412 646 402 c 0
 652 395 657 387 660 379 c 1
 666 386 672 392 679 395 c 0
 698 403 717 400 726 397 c 0
 744 391 754 373 760 352 c 0
 766 331 768 305 768 276 c 0
 768 202 758 135 745 83 c 0
 738 57 732 35 724 18 c 0
 716 1 709 -12 699 -19 c 0
 684 -30 680 -49 676 -69 c 0
 674 -79 672 -88 667 -97 c 0
 662 -106 652 -114 640 -114 c 2
 344 -114 l 2
 337 -114 331 -110 327 -106 c 0
 323 -102 322 -98 320 -93 c 0
 317 -84 316 -73 316 -66 c 0
 315 -48 295 -27 274 5 c 0
 253 37 232 79 232 138 c 2
 232 229 l 2
 232 326 304 361 307 362 c 2
 307 632 l 1
 307 632 307 652 315 672 c 0
 319 682 325 693 335 701 c 0
 345 709 358 714 374 714 c 0
374 692 m 1
 374 692 l 1
 363 692 355 688 349 683 c 0
 343 678 339 671 336 663 c 0
 330 648 330 632 330 632 c 1
 330 238 l 2
 330 238 l 2
 330 232 325 227 319 227 c 2
 319 227 l 2
 313 227 307 232 307 238 c 2
 307 238 l 1
 307 336 l 1
 289 325 254 295 254 229 c 2
 254 138 l 2
 254 84 273 48 293 18 c 0
 313 -12 336 -35 338 -65 c 0
 338 -71 340 -80 342 -86 c 0
 343 -89 343 -90 344 -91 c 0
 345 -92 344 -91 344 -91 c 2
 640 -91 l 2
 645 -91 646 -91 648 -87 c 0
 650 -83 652 -74 654 -64 c 0
 658 -44 663 -17 686 0 c 0
 689 2 696 12 703 27 c 0
 710 42 717 63 723 88 c 0
 736 138 746 204 746 276 c 0
 746 304 743 328 738 346 c 0
 733 364 726 373 718 376 c 0
 715 377 699 380 688 375 c 0
 677 370 666 359 666 325 c 0
 666 324 l 0
 665 323 l 1
 643 324 l 2
 643 325 643 325 643 326 c 1
 643 326 l 1
 643 326 646 345 642 363 c 0
 640 372 636 380 630 386 c 0
 624 392 618 395 605 395 c 0
 583 395 572 382 565 366 c 0
 558 350 556 335 556 335 c 1
 534 336 l 1
 534 336 535 358 529 378 c 0
 526 388 522 398 516 405 c 0
 510 412 502 415 489 415 c 0
 475 415 466 412 459 406 c 0
 452 400 448 392 445 383 c 0
 440 368 441 355 441 351 c 2
 441 347 l 1
 418 346 l 1
 418 347 l 2
 418 347 l 1
 418 632 l 1
 418 632 418 648 412 663 c 0
 409 671 405 678 399 683 c 0
 393 688 385 692 374 692 c 1
424 64 m 1
 452 68 l 1
 455 52 461 40 469 33 c 0
 477 26 487 22 498 22 c 0
 511 22 523 27 532 36 c 0
 541 45 546 57 546 71 c 0
 546 84 542 95 533 103 c 0
 524 112 513 116 500 116 c 0
 495 116 488 115 480 113 c 1
 483 138 l 2
 485 138 487 137 488 137 c 0
 500 137 511 141 521 147 c 0
 531 153 535 163 535 176 c 0
 535 186 532 195 525 202 c 0
 518 209 508 212 497 212 c 0
 486 212 477 209 470 202 c 0
 463 195 457 185 455 171 c 1
 427 176 l 1
 430 195 439 210 451 220 c 0
 463 231 479 236 497 236 c 0
 510 236 521 233 532 228 c 0
 543 223 550 215 556 206 c 0
 562 197 565 187 565 176 c 0
 565 166 562 156 557 148 c 0
 552 140 544 134 533 129 c 1
 547 126 557 119 565 109 c 0
 573 99 576 86 576 71 c 0
 576 51 569 34 554 20 c 0
 539 6 521 -1 498 -1 c 0
 478 -1 461 5 447 17 c 0
 434 29 426 45 424 64 c 1
EndSplineSet
EndChar

StartChar: NameMe.92
Encoding: 92 57436 92
Width: 1000
VWidth: 812
Flags: HW
LayerCount: 2
Fore
SplineSet
374 714 m 0
 390 714 403 709 413 701 c 0
 423 693 429 682 433 672 c 0
 441 652 441 632 441 632 c 1
 441 418 l 1
 442 419 442 422 444 423 c 0
 455 432 470 438 489 438 c 0
 507 438 522 430 532 420 c 0
 542 410 547 398 551 386 c 1
 561 403 579 418 605 418 c 0
 623 418 636 412 646 402 c 0
 652 395 657 387 660 379 c 1
 666 386 672 392 679 395 c 0
 698 403 717 400 726 397 c 0
 744 391 754 373 760 352 c 0
 766 331 768 305 768 276 c 0
 768 202 758 135 745 83 c 0
 738 57 732 35 724 18 c 0
 716 1 709 -12 699 -19 c 0
 684 -30 680 -49 676 -69 c 0
 674 -79 672 -88 667 -97 c 0
 662 -106 652 -114 640 -114 c 2
 344 -114 l 2
 337 -114 331 -110 327 -106 c 0
 323 -102 322 -98 320 -93 c 0
 317 -84 316 -73 316 -66 c 0
 315 -48 295 -27 274 5 c 0
 253 37 232 79 232 138 c 2
 232 229 l 2
 232 326 304 361 307 362 c 2
 307 632 l 1
 307 632 307 652 315 672 c 0
 319 682 325 693 335 701 c 0
 345 709 358 714 374 714 c 0
374 692 m 1
 374 692 l 1
 363 692 355 688 349 683 c 0
 343 678 339 671 336 663 c 0
 330 648 330 632 330 632 c 1
 330 238 l 2
 330 238 l 2
 330 232 325 227 319 227 c 2
 319 227 l 2
 313 227 307 232 307 238 c 2
 307 238 l 1
 307 336 l 1
 289 325 254 295 254 229 c 2
 254 138 l 2
 254 84 273 48 293 18 c 0
 313 -12 336 -35 338 -65 c 0
 338 -71 340 -80 342 -86 c 0
 343 -89 343 -90 344 -91 c 0
 345 -92 344 -91 344 -91 c 2
 640 -91 l 2
 645 -91 646 -91 648 -87 c 0
 650 -83 652 -74 654 -64 c 0
 658 -44 663 -17 686 0 c 0
 689 2 696 12 703 27 c 0
 710 42 717 63 723 88 c 0
 736 138 746 204 746 276 c 0
 746 304 743 328 738 346 c 0
 733 364 726 373 718 376 c 0
 715 377 699 380 688 375 c 0
 677 370 666 359 666 325 c 0
 666 324 l 0
 665 323 l 1
 643 324 l 2
 643 325 643 325 643 326 c 1
 643 326 l 1
 643 326 646 345 642 363 c 0
 640 372 636 380 630 386 c 0
 624 392 618 395 605 395 c 0
 583 395 572 382 565 366 c 0
 558 350 556 335 556 335 c 1
 534 336 l 1
 534 336 535 358 529 378 c 0
 526 388 522 398 516 405 c 0
 510 412 502 415 489 415 c 0
 475 415 466 412 459 406 c 0
 452 400 448 392 445 383 c 0
 440 368 441 355 441 351 c 2
 441 347 l 1
 418 346 l 1
 418 347 l 2
 418 347 l 1
 418 632 l 1
 418 632 418 648 412 663 c 0
 409 671 405 678 399 683 c 0
 393 688 385 692 374 692 c 1
520 3 m 1
 520 58 l 1
 420 58 l 1
 420 84 l 1
 526 235 l 1
 549 235 l 1
 549 84 l 1
 580 84 l 1
 580 58 l 1
 549 58 l 1
 549 3 l 1
 520 3 l 1
520 84 m 1
 520 189 l 1
 448 84 l 1
 520 84 l 1
EndSplineSet
EndChar

StartChar: NameMe.93
Encoding: 93 57437 93
Width: 1000
VWidth: 946
Flags: HW
LayerCount: 2
Fore
SplineSet
374 579.5 m 0
 390 579.5 403 573.5 413 565.5 c 0
 421 558.5 427 549.5 431 540.5 c 1
 434 546.5 438 552.5 444 557.5 c 0
 455 566.5 470 572.5 489 572.5 c 0
 507 572.5 522 564.5 532 554.5 c 0
 542 544.5 547 532.5 551 520.5 c 1
 561 537.5 579 552.5 605 552.5 c 0
 623 552.5 636 546.5 646 536.5 c 0
 652 529.5 657 521.5 660 513.5 c 1
 666 520.5 672 526.5 679 529.5 c 0
 698 537.5 717 534.5 726 531.5 c 0
 744 525.5 754 507.5 760 486.5 c 0
 766 465.5 768 439.5 768 410.5 c 0
 768 336.5 758 269.5 745 217.5 c 0
 738 191.5 732 169.5 724 152.5 c 0
 716 135.5 709 122.5 699 115.5 c 0
 684 104.5 680 85.5 676 65.5 c 0
 674 55.5 672 46.5 667 37.5 c 0
 662 28.5 652 20.5 640 20.5 c 2
 344 20.5 l 2
 337 20.5 331 24.5 327 28.5 c 0
 323 32.5 322 36.5 320 41.5 c 0
 317 50.5 316 61.5 316 68.5 c 0
 315 86.5 295 107.5 274 139.5 c 0
 253 171.5 232 213.5 232 272.5 c 2
 232 363.5 l 2
 232 412.5 250 443.5 270 460.5 c 0
 287 475.5 303 479.5 307 480.5 c 2
 307 496.5 l 1
 307 496.5 307 516.5 315 536.5 c 0
 319 546.5 325 557.5 335 565.5 c 0
 345 573.5 358 579.5 374 579.5 c 0
374 556.5 m 1
 374 556.5 l 1
 363 556.5 355 553.5 349 548.5 c 0
 343 543.5 339 536.5 336 528.5 c 0
 330 513.5 330 496.5 330 496.5 c 1
 330 372.5 l 2
 330 372.5 l 2
 330 366.5 325 361.5 319 361.5 c 2
 319 361.5 l 2
 313 361.5 307 366.5 307 372.5 c 2
 307 372.5 l 1
 307 457.5 l 1
 301 455.5 294 451.5 285 443.5 c 0
 270 430.5 254 407.5 254 363.5 c 2
 254 272.5 l 2
 254 218.5 273 182.5 293 152.5 c 0
 313 122.5 336 99.5 338 69.5 c 0
 338 63.5 340 54.5 342 48.5 c 0
 343 45.5 343 44.5 344 43.5 c 0
 345 42.5 344 43.5 344 43.5 c 2
 640 43.5 l 2
 645 43.5 646 43.5 648 47.5 c 0
 650 51.5 652 60.5 654 70.5 c 0
 658 90.5 663 117.5 686 134.5 c 0
 689 136.5 696 146.5 703 161.5 c 0
 710 176.5 717 197.5 723 222.5 c 0
 736 272.5 746 338.5 746 410.5 c 0
 746 438.5 743 462.5 738 480.5 c 0
 733 498.5 726 507.5 718 510.5 c 0
 715 511.5 699 514.5 688 509.5 c 0
 677 504.5 666 493.5 666 459.5 c 0
 666 458.5 l 0
 665 457.5 l 1
 643 458.5 l 2
 643 459.5 643 459.5 643 460.5 c 1
 643 460.5 l 1
 643 460.5 646 479.5 642 497.5 c 0
 640 506.5 636 514.5 630 520.5 c 0
 624 526.5 618 529.5 605 529.5 c 0
 583 529.5 572 516.5 565 500.5 c 0
 558 484.5 556 469.5 556 469.5 c 1
 534 470.5 l 1
 534 470.5 535 492.5 529 512.5 c 0
 526 522.5 522 532.5 516 539.5 c 0
 510 546.5 502 549.5 489 549.5 c 0
 475 549.5 466 546.5 459 540.5 c 0
 452 534.5 448 526.5 445 517.5 c 0
 440 502.5 441 489.5 441 485.5 c 2
 441 481.5 l 1
 418 480.5 l 1
 418 481.5 l 2
 418 481.5 l 1
 418 496.5 l 1
 418 496.5 418 513.5 412 528.5 c 0
 409 536.5 405 543.5 399 548.5 c 0
 393 553.5 385 556.5 374 556.5 c 1
EndSplineSet
EndChar

StartChar: NameMe.94
Encoding: 94 57438 94
Width: 1000
VWidth: 946
Flags: HW
LayerCount: 2
Fore
SplineSet
374 579.5 m 0
 390 579.5 403 573.5 413 565.5 c 0
 421 558.5 427 549.5 431 540.5 c 1
 434 546.5 438 552.5 444 557.5 c 0
 455 566.5 470 572.5 489 572.5 c 0
 507 572.5 522 564.5 532 554.5 c 0
 542 544.5 547 532.5 551 520.5 c 1
 561 537.5 579 552.5 605 552.5 c 0
 623 552.5 636 546.5 646 536.5 c 0
 652 529.5 657 521.5 660 513.5 c 1
 666 520.5 672 526.5 679 529.5 c 0
 698 537.5 717 534.5 726 531.5 c 0
 744 525.5 754 507.5 760 486.5 c 0
 766 465.5 768 439.5 768 410.5 c 0
 768 336.5 758 269.5 745 217.5 c 0
 738 191.5 732 169.5 724 152.5 c 0
 716 135.5 709 122.5 699 115.5 c 0
 684 104.5 680 85.5 676 65.5 c 0
 674 55.5 672 46.5 667 37.5 c 0
 662 28.5 652 20.5 640 20.5 c 2
 344 20.5 l 2
 337 20.5 331 24.5 327 28.5 c 0
 323 32.5 322 36.5 320 41.5 c 0
 317 50.5 316 61.5 316 68.5 c 0
 315 86.5 295 107.5 274 139.5 c 0
 253 171.5 232 213.5 232 272.5 c 2
 232 363.5 l 2
 232 412.5 250 443.5 270 460.5 c 0
 287 475.5 303 479.5 307 480.5 c 2
 307 496.5 l 1
 307 496.5 307 516.5 315 536.5 c 0
 319 546.5 325 557.5 335 565.5 c 0
 345 573.5 358 579.5 374 579.5 c 0
374 556.5 m 1
 374 556.5 l 1
 363 556.5 355 553.5 349 548.5 c 0
 343 543.5 339 536.5 336 528.5 c 0
 330 513.5 330 496.5 330 496.5 c 1
 330 372.5 l 2
 330 372.5 l 2
 330 366.5 325 361.5 319 361.5 c 2
 319 361.5 l 2
 313 361.5 307 366.5 307 372.5 c 2
 307 372.5 l 1
 307 457.5 l 1
 301 455.5 294 451.5 285 443.5 c 0
 270 430.5 254 407.5 254 363.5 c 2
 254 272.5 l 2
 254 218.5 273 182.5 293 152.5 c 0
 313 122.5 336 99.5 338 69.5 c 0
 338 63.5 340 54.5 342 48.5 c 0
 343 45.5 343 44.5 344 43.5 c 0
 345 42.5 344 43.5 344 43.5 c 2
 640 43.5 l 2
 645 43.5 646 43.5 648 47.5 c 0
 650 51.5 652 60.5 654 70.5 c 0
 658 90.5 663 117.5 686 134.5 c 0
 689 136.5 696 146.5 703 161.5 c 0
 710 176.5 717 197.5 723 222.5 c 0
 736 272.5 746 338.5 746 410.5 c 0
 746 438.5 743 462.5 738 480.5 c 0
 733 498.5 726 507.5 718 510.5 c 0
 715 511.5 699 514.5 688 509.5 c 0
 677 504.5 666 493.5 666 459.5 c 0
 666 458.5 l 0
 665 457.5 l 1
 643 458.5 l 2
 643 459.5 643 459.5 643 460.5 c 1
 643 460.5 l 1
 643 460.5 646 479.5 642 497.5 c 0
 640 506.5 636 514.5 630 520.5 c 0
 624 526.5 618 529.5 605 529.5 c 0
 583 529.5 572 516.5 565 500.5 c 0
 558 484.5 556 469.5 556 469.5 c 1
 534 470.5 l 1
 534 470.5 535 492.5 529 512.5 c 0
 526 522.5 522 532.5 516 539.5 c 0
 510 546.5 502 549.5 489 549.5 c 0
 475 549.5 466 546.5 459 540.5 c 0
 452 534.5 448 526.5 445 517.5 c 0
 440 502.5 441 489.5 441 485.5 c 2
 441 481.5 l 1
 418 480.5 l 1
 418 481.5 l 2
 418 481.5 l 1
 418 496.5 l 1
 418 496.5 418 513.5 412 528.5 c 0
 409 536.5 405 543.5 399 548.5 c 0
 393 553.5 385 556.5 374 556.5 c 1
536 126.5 m 1
 508 126.5 l 1
 508 308.5 l 1
 501 301.5 492 295.5 481 288.5 c 0
 470 281.5 460 276.5 451 273.5 c 1
 451 301.5 l 1
 467 308.5 481 317.5 493 328.5 c 0
 505 339.5 513 349.5 518 359.5 c 1
 536 359.5 l 1
 536 126.5 l 1
EndSplineSet
EndChar

StartChar: NameMe.95
Encoding: 95 57439 95
Width: 1000
VWidth: 946
Flags: HW
LayerCount: 2
Fore
SplineSet
374 579.5 m 0
 390 579.5 403 573.5 413 565.5 c 0
 421 558.5 427 549.5 431 540.5 c 1
 434 546.5 438 552.5 444 557.5 c 0
 455 566.5 470 572.5 489 572.5 c 0
 507 572.5 522 564.5 532 554.5 c 0
 542 544.5 547 532.5 551 520.5 c 1
 561 537.5 579 552.5 605 552.5 c 0
 623 552.5 636 546.5 646 536.5 c 0
 652 529.5 657 521.5 660 513.5 c 1
 666 520.5 672 526.5 679 529.5 c 0
 698 537.5 717 534.5 726 531.5 c 0
 744 525.5 754 507.5 760 486.5 c 0
 766 465.5 768 439.5 768 410.5 c 0
 768 336.5 758 269.5 745 217.5 c 0
 738 191.5 732 169.5 724 152.5 c 0
 716 135.5 709 122.5 699 115.5 c 0
 684 104.5 680 85.5 676 65.5 c 0
 674 55.5 672 46.5 667 37.5 c 0
 662 28.5 652 20.5 640 20.5 c 2
 344 20.5 l 2
 337 20.5 331 24.5 327 28.5 c 0
 323 32.5 322 36.5 320 41.5 c 0
 317 50.5 316 61.5 316 68.5 c 0
 315 86.5 295 107.5 274 139.5 c 0
 253 171.5 232 213.5 232 272.5 c 2
 232 363.5 l 2
 232 412.5 250 443.5 270 460.5 c 0
 287 475.5 303 479.5 307 480.5 c 2
 307 496.5 l 1
 307 496.5 307 516.5 315 536.5 c 0
 319 546.5 325 557.5 335 565.5 c 0
 345 573.5 358 579.5 374 579.5 c 0
374 556.5 m 1
 374 556.5 l 1
 363 556.5 355 553.5 349 548.5 c 0
 343 543.5 339 536.5 336 528.5 c 0
 330 513.5 330 496.5 330 496.5 c 1
 330 372.5 l 2
 330 372.5 l 2
 330 366.5 325 361.5 319 361.5 c 2
 319 361.5 l 2
 313 361.5 307 366.5 307 372.5 c 2
 307 372.5 l 1
 307 457.5 l 1
 301 455.5 294 451.5 285 443.5 c 0
 270 430.5 254 407.5 254 363.5 c 2
 254 272.5 l 2
 254 218.5 273 182.5 293 152.5 c 0
 313 122.5 336 99.5 338 69.5 c 0
 338 63.5 340 54.5 342 48.5 c 0
 343 45.5 343 44.5 344 43.5 c 0
 345 42.5 344 43.5 344 43.5 c 2
 640 43.5 l 2
 645 43.5 646 43.5 648 47.5 c 0
 650 51.5 652 60.5 654 70.5 c 0
 658 90.5 663 117.5 686 134.5 c 0
 689 136.5 696 146.5 703 161.5 c 0
 710 176.5 717 197.5 723 222.5 c 0
 736 272.5 746 338.5 746 410.5 c 0
 746 438.5 743 462.5 738 480.5 c 0
 733 498.5 726 507.5 718 510.5 c 0
 715 511.5 699 514.5 688 509.5 c 0
 677 504.5 666 493.5 666 459.5 c 0
 666 458.5 l 0
 665 457.5 l 1
 643 458.5 l 2
 643 459.5 643 459.5 643 460.5 c 1
 643 460.5 l 1
 643 460.5 646 479.5 642 497.5 c 0
 640 506.5 636 514.5 630 520.5 c 0
 624 526.5 618 529.5 605 529.5 c 0
 583 529.5 572 516.5 565 500.5 c 0
 558 484.5 556 469.5 556 469.5 c 1
 534 470.5 l 1
 534 470.5 535 492.5 529 512.5 c 0
 526 522.5 522 532.5 516 539.5 c 0
 510 546.5 502 549.5 489 549.5 c 0
 475 549.5 466 546.5 459 540.5 c 0
 452 534.5 448 526.5 445 517.5 c 0
 440 502.5 441 489.5 441 485.5 c 2
 441 481.5 l 1
 418 480.5 l 1
 418 481.5 l 2
 418 481.5 l 1
 418 496.5 l 1
 418 496.5 418 513.5 412 528.5 c 0
 409 536.5 405 543.5 399 548.5 c 0
 393 553.5 385 556.5 374 556.5 c 1
577 153.5 m 1
 577 126.5 l 1
 423 126.5 l 1
 423 133.5 425 140.5 427 146.5 c 0
 431 156.5 436 167.5 445 177.5 c 0
 454 187.5 467 199.5 483 212.5 c 0
 508 233.5 525 249.5 534 261.5 c 0
 543 273.5 547 284.5 547 295.5 c 0
 547 306.5 543 316.5 535 324.5 c 0
 527 332.5 517 335.5 504 335.5 c 0
 490 335.5 479 331.5 471 323.5 c 0
 463 315.5 458 304.5 458 289.5 c 1
 429 292.5 l 1
 431 314.5 438 331.5 451 342.5 c 0
 464 354.5 482 359.5 504 359.5 c 0
 526 359.5 544 353.5 557 341.5 c 0
 570 329.5 577 313.5 577 295.5 c 0
 577 286.5 575 276.5 571 267.5 c 0
 567 258.5 561 249.5 552 239.5 c 0
 543 229.5 528 215.5 508 198.5 c 0
 491 184.5 480 174.5 475 169.5 c 0
 470 164.5 466 158.5 463 153.5 c 1
 577 153.5 l 1
EndSplineSet
EndChar

StartChar: NameMe.96
Encoding: 96 57440 96
Width: 1000
VWidth: 946
Flags: HW
LayerCount: 2
Fore
SplineSet
374 579.5 m 0
 390 579.5 403 573.5 413 565.5 c 0
 421 558.5 427 549.5 431 540.5 c 1
 434 546.5 438 552.5 444 557.5 c 0
 455 566.5 470 572.5 489 572.5 c 0
 507 572.5 522 564.5 532 554.5 c 0
 542 544.5 547 532.5 551 520.5 c 1
 561 537.5 579 552.5 605 552.5 c 0
 623 552.5 636 546.5 646 536.5 c 0
 652 529.5 657 521.5 660 513.5 c 1
 666 520.5 672 526.5 679 529.5 c 0
 698 537.5 717 534.5 726 531.5 c 0
 744 525.5 754 507.5 760 486.5 c 0
 766 465.5 768 439.5 768 410.5 c 0
 768 336.5 758 269.5 745 217.5 c 0
 738 191.5 732 169.5 724 152.5 c 0
 716 135.5 709 122.5 699 115.5 c 0
 684 104.5 680 85.5 676 65.5 c 0
 674 55.5 672 46.5 667 37.5 c 0
 662 28.5 652 20.5 640 20.5 c 2
 344 20.5 l 2
 337 20.5 331 24.5 327 28.5 c 0
 323 32.5 322 36.5 320 41.5 c 0
 317 50.5 316 61.5 316 68.5 c 0
 315 86.5 295 107.5 274 139.5 c 0
 253 171.5 232 213.5 232 272.5 c 2
 232 363.5 l 2
 232 412.5 250 443.5 270 460.5 c 0
 287 475.5 303 479.5 307 480.5 c 2
 307 496.5 l 1
 307 496.5 307 516.5 315 536.5 c 0
 319 546.5 325 557.5 335 565.5 c 0
 345 573.5 358 579.5 374 579.5 c 0
374 556.5 m 1
 374 556.5 l 1
 363 556.5 355 553.5 349 548.5 c 0
 343 543.5 339 536.5 336 528.5 c 0
 330 513.5 330 496.5 330 496.5 c 1
 330 372.5 l 2
 330 372.5 l 2
 330 366.5 325 361.5 319 361.5 c 2
 319 361.5 l 2
 313 361.5 307 366.5 307 372.5 c 2
 307 372.5 l 1
 307 457.5 l 1
 301 455.5 294 451.5 285 443.5 c 0
 270 430.5 254 407.5 254 363.5 c 2
 254 272.5 l 2
 254 218.5 273 182.5 293 152.5 c 0
 313 122.5 336 99.5 338 69.5 c 0
 338 63.5 340 54.5 342 48.5 c 0
 343 45.5 343 44.5 344 43.5 c 0
 345 42.5 344 43.5 344 43.5 c 2
 640 43.5 l 2
 645 43.5 646 43.5 648 47.5 c 0
 650 51.5 652 60.5 654 70.5 c 0
 658 90.5 663 117.5 686 134.5 c 0
 689 136.5 696 146.5 703 161.5 c 0
 710 176.5 717 197.5 723 222.5 c 0
 736 272.5 746 338.5 746 410.5 c 0
 746 438.5 743 462.5 738 480.5 c 0
 733 498.5 726 507.5 718 510.5 c 0
 715 511.5 699 514.5 688 509.5 c 0
 677 504.5 666 493.5 666 459.5 c 0
 666 458.5 l 0
 665 457.5 l 1
 643 458.5 l 2
 643 459.5 643 459.5 643 460.5 c 1
 643 460.5 l 1
 643 460.5 646 479.5 642 497.5 c 0
 640 506.5 636 514.5 630 520.5 c 0
 624 526.5 618 529.5 605 529.5 c 0
 583 529.5 572 516.5 565 500.5 c 0
 558 484.5 556 469.5 556 469.5 c 1
 534 470.5 l 1
 534 470.5 535 492.5 529 512.5 c 0
 526 522.5 522 532.5 516 539.5 c 0
 510 546.5 502 549.5 489 549.5 c 0
 475 549.5 466 546.5 459 540.5 c 0
 452 534.5 448 526.5 445 517.5 c 0
 440 502.5 441 489.5 441 485.5 c 2
 441 481.5 l 1
 418 480.5 l 1
 418 481.5 l 2
 418 481.5 l 1
 418 496.5 l 1
 418 496.5 418 513.5 412 528.5 c 0
 409 536.5 405 543.5 399 548.5 c 0
 393 553.5 385 556.5 374 556.5 c 1
427 187.5 m 1
 456 191.5 l 1
 459 175.5 464 163.5 472 156.5 c 0
 480 149.5 490 145.5 501 145.5 c 0
 514 145.5 526 150.5 535 159.5 c 0
 544 168.5 549 180.5 549 194.5 c 0
 549 207.5 545 218.5 536 226.5 c 0
 527 235.5 517 239.5 504 239.5 c 0
 499 239.5 491 238.5 483 236.5 c 1
 487 261.5 l 2
 489 261.5 490 261.5 491 261.5 c 0
 503 261.5 514 264.5 524 270.5 c 0
 534 276.5 539 286.5 539 299.5 c 0
 539 309.5 535 318.5 528 325.5 c 0
 521 332.5 512 336.5 501 336.5 c 0
 490 336.5 480 332.5 473 325.5 c 0
 466 318.5 461 308.5 459 294.5 c 1
 430 299.5 l 1
 433 318.5 442 333.5 454 343.5 c 0
 466 354.5 482 359.5 500 359.5 c 0
 513 359.5 524 356.5 535 351.5 c 0
 546 346.5 553 338.5 559 329.5 c 0
 565 320.5 568 310.5 568 299.5 c 0
 568 289.5 565 279.5 560 271.5 c 0
 555 263.5 547 257.5 536 252.5 c 1
 550 249.5 560 242.5 568 232.5 c 0
 576 222.5 579 209.5 579 194.5 c 0
 579 174.5 572 157.5 557 143.5 c 0
 542 129.5 524 122.5 501 122.5 c 0
 481 122.5 464 128.5 450 140.5 c 0
 437 152.5 429 168.5 427 187.5 c 1
EndSplineSet
EndChar

StartChar: NameMe.97
Encoding: 97 57441 97
Width: 1000
VWidth: 946
Flags: HW
LayerCount: 2
Fore
SplineSet
374 579.5 m 0
 390 579.5 403 573.5 413 565.5 c 0
 421 558.5 427 549.5 431 540.5 c 1
 434 546.5 438 552.5 444 557.5 c 0
 455 566.5 470 572.5 489 572.5 c 0
 507 572.5 522 564.5 532 554.5 c 0
 542 544.5 547 532.5 551 520.5 c 1
 561 537.5 579 552.5 605 552.5 c 0
 623 552.5 636 546.5 646 536.5 c 0
 652 529.5 657 521.5 660 513.5 c 1
 666 520.5 672 526.5 679 529.5 c 0
 698 537.5 717 534.5 726 531.5 c 0
 744 525.5 754 507.5 760 486.5 c 0
 766 465.5 768 439.5 768 410.5 c 0
 768 336.5 758 269.5 745 217.5 c 0
 738 191.5 732 169.5 724 152.5 c 0
 716 135.5 709 122.5 699 115.5 c 0
 684 104.5 680 85.5 676 65.5 c 0
 674 55.5 672 46.5 667 37.5 c 0
 662 28.5 652 20.5 640 20.5 c 2
 344 20.5 l 2
 337 20.5 331 24.5 327 28.5 c 0
 323 32.5 322 36.5 320 41.5 c 0
 317 50.5 316 61.5 316 68.5 c 0
 315 86.5 295 107.5 274 139.5 c 0
 253 171.5 232 213.5 232 272.5 c 2
 232 363.5 l 2
 232 412.5 250 443.5 270 460.5 c 0
 287 475.5 303 479.5 307 480.5 c 2
 307 496.5 l 1
 307 496.5 307 516.5 315 536.5 c 0
 319 546.5 325 557.5 335 565.5 c 0
 345 573.5 358 579.5 374 579.5 c 0
374 556.5 m 1
 374 556.5 l 1
 363 556.5 355 553.5 349 548.5 c 0
 343 543.5 339 536.5 336 528.5 c 0
 330 513.5 330 496.5 330 496.5 c 1
 330 372.5 l 2
 330 372.5 l 2
 330 366.5 325 361.5 319 361.5 c 2
 319 361.5 l 2
 313 361.5 307 366.5 307 372.5 c 2
 307 372.5 l 1
 307 457.5 l 1
 301 455.5 294 451.5 285 443.5 c 0
 270 430.5 254 407.5 254 363.5 c 2
 254 272.5 l 2
 254 218.5 273 182.5 293 152.5 c 0
 313 122.5 336 99.5 338 69.5 c 0
 338 63.5 340 54.5 342 48.5 c 0
 343 45.5 343 44.5 344 43.5 c 0
 345 42.5 344 43.5 344 43.5 c 2
 640 43.5 l 2
 645 43.5 646 43.5 648 47.5 c 0
 650 51.5 652 60.5 654 70.5 c 0
 658 90.5 663 117.5 686 134.5 c 0
 689 136.5 696 146.5 703 161.5 c 0
 710 176.5 717 197.5 723 222.5 c 0
 736 272.5 746 338.5 746 410.5 c 0
 746 438.5 743 462.5 738 480.5 c 0
 733 498.5 726 507.5 718 510.5 c 0
 715 511.5 699 514.5 688 509.5 c 0
 677 504.5 666 493.5 666 459.5 c 0
 666 458.5 l 0
 665 457.5 l 1
 643 458.5 l 2
 643 459.5 643 459.5 643 460.5 c 1
 643 460.5 l 1
 643 460.5 646 479.5 642 497.5 c 0
 640 506.5 636 514.5 630 520.5 c 0
 624 526.5 618 529.5 605 529.5 c 0
 583 529.5 572 516.5 565 500.5 c 0
 558 484.5 556 469.5 556 469.5 c 1
 534 470.5 l 1
 534 470.5 535 492.5 529 512.5 c 0
 526 522.5 522 532.5 516 539.5 c 0
 510 546.5 502 549.5 489 549.5 c 0
 475 549.5 466 546.5 459 540.5 c 0
 452 534.5 448 526.5 445 517.5 c 0
 440 502.5 441 489.5 441 485.5 c 2
 441 481.5 l 1
 418 480.5 l 1
 418 481.5 l 2
 418 481.5 l 1
 418 496.5 l 1
 418 496.5 418 513.5 412 528.5 c 0
 409 536.5 405 543.5 399 548.5 c 0
 393 553.5 385 556.5 374 556.5 c 1
520 126.5 m 1
 520 181.5 l 1
 420 181.5 l 1
 420 208.5 l 1
 526 358.5 l 1
 549 358.5 l 1
 549 208.5 l 1
 580 208.5 l 1
 580 181.5 l 1
 549 181.5 l 1
 549 126.5 l 1
 520 126.5 l 1
520 208.5 m 1
 520 312.5 l 1
 448 208.5 l 1
 520 208.5 l 1
EndSplineSet
EndChar

StartChar: NameMe.98
Encoding: 98 57442 98
Width: 1000
VWidth: 811
Flags: HW
LayerCount: 2
Fore
SplineSet
520 704.9765625 m 2
 520 704.9765625 l 1
 551 705.9765625 573 690.9765625 583 670.9765625 c 0
 590 655.9765625 591 640.9765625 592 626.9765625 c 1
 594 634.9765625 597 642.9765625 601 649.9765625 c 0
 612 667.9765625 632 679.9765625 660 677.9765625 c 0
 677 676.9765625 691 670.9765625 701 661.9765625 c 0
 711 652.9765625 715 640.9765625 718 628.9765625 c 0
 724 604.9765625 720 580.9765625 720 568.9765625 c 0
 720 561.9765625 718 537.9765625 717 521.9765625 c 1
 725 534.9765625 733 543.9765625 743 547.9765625 c 0
 751 551.9765625 760 552.9765625 766 552.9765625 c 0
 769 552.9765625 771 551.9765625 773 551.9765625 c 0
 775 551.9765625 777 551.9765625 776 551.9765625 c 1
 781 550.9765625 793 548.9765625 805 539.9765625 c 0
 817 530.9765625 827 512.9765625 825 487.9765625 c 0
 821 424.9765625 796 248.9765625 791 187.9765625 c 0
 784 104.9765625 782 84.9765625 776 69.9765625 c 0
 770 54.9765625 764 55.9765625 748 9.9765625 c 0
 740 -14.0234375 734 -40.0234375 726 -62.0234375 c 0
 722 -73.0234375 717 -83.0234375 709 -91.0234375 c 0
 701 -99.0234375 689 -105.0234375 676 -105.0234375 c 2
 375 -105.0234375 l 2
 360 -105.0234375 347 -95.0234375 338 -83.0234375 c 0
 329 -71.0234375 321 -57.0234375 315 -41.0234375 c 0
 303 -9.0234375 295 29.9765625 286 55.9765625 c 0
 275 87.9765625 282 76.9765625 254 131.9765625 c 0
 239 160.9765625 224 195.9765625 211 224.9765625 c 0
 194 263.9765625 180 299.9765625 176 331.9765625 c 0
 174 347.9765625 174 361.9765625 179 375.9765625 c 0
 184 389.9765625 195 401.9765625 209 408.9765625 c 0
 230 418.9765625 252 417.9765625 269 407.9765625 c 0
 286 397.9765625 300 382.9765625 312 363.9765625 c 0
 324 345.9765625 334 324.9765625 344 303.9765625 c 1
 341 331.9765625 340 341.9765625 336 382.9765625 c 0
 328 460.9765625 321 544.9765625 320 568.9765625 c 0
 319 586.9765625 318 611.9765625 324 633.9765625 c 0
 330 655.9765625 346 677.9765625 375 682.9765625 c 0
 407 687.9765625 430 674.9765625 443 656.9765625 c 0
 449 648.9765625 452 639.9765625 455 630.9765625 c 1
 456 645.9765625 458 659.9765625 465 672.9765625 c 0
 475 689.9765625 494 703.9765625 520 704.9765625 c 2
521 678.9765625 m 0
 502 677.9765625 494 671.9765625 488 660.9765625 c 0
 482 649.9765625 480 633.9765625 480 617.9765625 c 2
 489 305.9765625 l 1
 463 304.9765625 l 1
 463 304.9765625 450 498.9765625 437 594.9765625 c 0
 435 611.9765625 430 629.9765625 422 641.9765625 c 0
 414 653.9765625 404 660.9765625 380 656.9765625 c 0
 361 653.9765625 354 643.9765625 349 626.9765625 c 0
 344 609.9765625 344 587.9765625 345 569.9765625 c 0
 346 548.9765625 354 463.9765625 362 385.9765625 c 0
 370 307.9765625 377 235.9765625 377 235.9765625 c 1
 353 227.9765625 l 1
 332 265.9765625 313 315.9765625 291 349.9765625 c 0
 280 366.9765625 268 379.9765625 257 385.9765625 c 0
 246 391.9765625 235 392.9765625 220 385.9765625 c 0
 211 380.9765625 206 374.9765625 203 366.9765625 c 0
 200 358.9765625 199 347.9765625 201 334.9765625 c 0
 204 307.9765625 218 272.9765625 235 234.9765625 c 0
 248 205.9765625 263 170.9765625 277 142.9765625 c 0
 306 86.9765625 300 93.9765625 310 63.9765625 c 0
 319 35.9765625 329 -1.0234375 340 -31.0234375 c 0
 346 -46.0234375 352 -60.0234375 358 -68.0234375 c 0
 364 -76.0234375 370 -79.0234375 375 -79.0234375 c 2
 676 -79.0234375 l 2
 683 -79.0234375 686 -77.0234375 690 -73.0234375 c 0
 694 -69.0234375 698 -62.0234375 702 -53.0234375 c 0
 709 -34.0234375 715 -7.0234375 724 18.9765625 c 0
 741 66.9765625 749 72.9765625 752 79.9765625 c 0
 755 86.9765625 759 107.9765625 766 190.9765625 c 0
 772 254.9765625 795 430.9765625 799 489.9765625 c 0
 800 507.9765625 795 513.9765625 789 518.9765625 c 0
 783 523.9765625 775 525.9765625 772 525.9765625 c 0
 770 525.9765625 771 526.9765625 770 526.9765625 c 0
 769 526.9765625 767 526.9765625 765 526.9765625 c 0
 762 526.9765625 758 526.9765625 754 524.9765625 c 0
 746 520.9765625 734 511.9765625 729 480.9765625 c 0
 728 473.9765625 700 294.9765625 700 294.9765625 c 1
 674 297.9765625 l 1
 674 297.9765625 693 530.9765625 695 569.9765625 c 0
 696 583.9765625 697 605.9765625 693 622.9765625 c 0
 691 631.9765625 688 637.9765625 683 642.9765625 c 0
 678 647.9765625 671 650.9765625 659 651.9765625 c 0
 638 652.9765625 630 647.9765625 623 636.9765625 c 0
 616 625.9765625 613 606.9765625 611 585.9765625 c 0
 611 585.9765625 610 578.9765625 610 570.9765625 c 0
 610 562.9765625 610 550.9765625 609 537.9765625 c 0
 608 510.9765625 606 474.9765625 604 440.9765625 c 0
 601 371.9765625 598 304.9765625 598 304.9765625 c 1
 573 305.9765625 l 1
 573 305.9765625 568 577.9765625 568 612.9765625 c 0
 568 627.9765625 566 645.9765625 560 658.9765625 c 0
 554 671.9765625 544 679.9765625 521 678.9765625 c 0
EndSplineSet
EndChar

StartChar: NameMe.99
Encoding: 99 57443 99
Width: 1000
VWidth: 811
Flags: HW
LayerCount: 2
Fore
SplineSet
520 704.9765625 m 2
 520 704.9765625 l 1
 551 705.9765625 573 690.9765625 583 670.9765625 c 0
 590 655.9765625 591 640.9765625 592 626.9765625 c 1
 594 634.9765625 597 642.9765625 601 649.9765625 c 0
 612 667.9765625 632 679.9765625 660 677.9765625 c 0
 677 676.9765625 691 670.9765625 701 661.9765625 c 0
 711 652.9765625 715 640.9765625 718 628.9765625 c 0
 724 604.9765625 720 580.9765625 720 568.9765625 c 0
 720 561.9765625 718 537.9765625 717 521.9765625 c 1
 725 534.9765625 733 543.9765625 743 547.9765625 c 0
 751 551.9765625 760 552.9765625 766 552.9765625 c 0
 769 552.9765625 771 551.9765625 773 551.9765625 c 0
 775 551.9765625 777 551.9765625 776 551.9765625 c 1
 781 550.9765625 793 548.9765625 805 539.9765625 c 0
 817 530.9765625 827 512.9765625 825 487.9765625 c 0
 821 424.9765625 796 248.9765625 791 187.9765625 c 0
 784 104.9765625 782 84.9765625 776 69.9765625 c 0
 770 54.9765625 764 55.9765625 748 9.9765625 c 0
 740 -14.0234375 734 -40.0234375 726 -62.0234375 c 0
 722 -73.0234375 717 -83.0234375 709 -91.0234375 c 0
 701 -99.0234375 689 -105.0234375 676 -105.0234375 c 2
 375 -105.0234375 l 2
 360 -105.0234375 347 -95.0234375 338 -83.0234375 c 0
 329 -71.0234375 321 -57.0234375 315 -41.0234375 c 0
 303 -9.0234375 295 29.9765625 286 55.9765625 c 0
 275 87.9765625 282 76.9765625 254 131.9765625 c 0
 239 160.9765625 224 195.9765625 211 224.9765625 c 0
 194 263.9765625 180 299.9765625 176 331.9765625 c 0
 174 347.9765625 174 361.9765625 179 375.9765625 c 0
 184 389.9765625 195 401.9765625 209 408.9765625 c 0
 230 418.9765625 252 417.9765625 269 407.9765625 c 0
 286 397.9765625 300 382.9765625 312 363.9765625 c 0
 324 345.9765625 334 324.9765625 344 303.9765625 c 1
 341 331.9765625 340 341.9765625 336 382.9765625 c 0
 328 460.9765625 321 544.9765625 320 568.9765625 c 0
 319 586.9765625 318 611.9765625 324 633.9765625 c 0
 330 655.9765625 346 677.9765625 375 682.9765625 c 0
 407 687.9765625 430 674.9765625 443 656.9765625 c 0
 449 648.9765625 452 639.9765625 455 630.9765625 c 1
 456 645.9765625 458 659.9765625 465 672.9765625 c 0
 475 689.9765625 494 703.9765625 520 704.9765625 c 2
521 678.9765625 m 0
 502 677.9765625 494 671.9765625 488 660.9765625 c 0
 482 649.9765625 480 633.9765625 480 617.9765625 c 2
 489 305.9765625 l 1
 463 304.9765625 l 1
 463 304.9765625 450 498.9765625 437 594.9765625 c 0
 435 611.9765625 430 629.9765625 422 641.9765625 c 0
 414 653.9765625 404 660.9765625 380 656.9765625 c 0
 361 653.9765625 354 643.9765625 349 626.9765625 c 0
 344 609.9765625 344 587.9765625 345 569.9765625 c 0
 346 548.9765625 354 463.9765625 362 385.9765625 c 0
 370 307.9765625 377 235.9765625 377 235.9765625 c 1
 353 227.9765625 l 1
 332 265.9765625 313 315.9765625 291 349.9765625 c 0
 280 366.9765625 268 379.9765625 257 385.9765625 c 0
 246 391.9765625 235 392.9765625 220 385.9765625 c 0
 211 380.9765625 206 374.9765625 203 366.9765625 c 0
 200 358.9765625 199 347.9765625 201 334.9765625 c 0
 204 307.9765625 218 272.9765625 235 234.9765625 c 0
 248 205.9765625 263 170.9765625 277 142.9765625 c 0
 306 86.9765625 300 93.9765625 310 63.9765625 c 0
 319 35.9765625 329 -1.0234375 340 -31.0234375 c 0
 346 -46.0234375 352 -60.0234375 358 -68.0234375 c 0
 364 -76.0234375 370 -79.0234375 375 -79.0234375 c 2
 676 -79.0234375 l 2
 683 -79.0234375 686 -77.0234375 690 -73.0234375 c 0
 694 -69.0234375 698 -62.0234375 702 -53.0234375 c 0
 709 -34.0234375 715 -7.0234375 724 18.9765625 c 0
 741 66.9765625 749 72.9765625 752 79.9765625 c 0
 755 86.9765625 759 107.9765625 766 190.9765625 c 0
 772 254.9765625 795 430.9765625 799 489.9765625 c 0
 800 507.9765625 795 513.9765625 789 518.9765625 c 0
 783 523.9765625 775 525.9765625 772 525.9765625 c 0
 770 525.9765625 771 526.9765625 770 526.9765625 c 0
 769 526.9765625 767 526.9765625 765 526.9765625 c 0
 762 526.9765625 758 526.9765625 754 524.9765625 c 0
 746 520.9765625 734 511.9765625 729 480.9765625 c 0
 728 473.9765625 700 294.9765625 700 294.9765625 c 1
 674 297.9765625 l 1
 674 297.9765625 693 530.9765625 695 569.9765625 c 0
 696 583.9765625 697 605.9765625 693 622.9765625 c 0
 691 631.9765625 688 637.9765625 683 642.9765625 c 0
 678 647.9765625 671 650.9765625 659 651.9765625 c 0
 638 652.9765625 630 647.9765625 623 636.9765625 c 0
 616 625.9765625 613 606.9765625 611 585.9765625 c 0
 611 585.9765625 610 578.9765625 610 570.9765625 c 0
 610 562.9765625 610 550.9765625 609 537.9765625 c 0
 608 510.9765625 606 474.9765625 604 440.9765625 c 0
 601 371.9765625 598 304.9765625 598 304.9765625 c 1
 573 305.9765625 l 1
 573 305.9765625 568 577.9765625 568 612.9765625 c 0
 568 627.9765625 566 645.9765625 560 658.9765625 c 0
 554 671.9765625 544 679.9765625 521 678.9765625 c 0
559 0.9765625 m 1
 530 0.9765625 l 1
 530 183.9765625 l 1
 523 176.9765625 514 170.9765625 503 163.9765625 c 0
 492 156.9765625 482 152.9765625 473 149.9765625 c 1
 473 176.9765625 l 1
 489 184.9765625 503 193.9765625 515 204.9765625 c 0
 527 215.9765625 535 225.9765625 540 235.9765625 c 1
 559 235.9765625 l 1
 559 0.9765625 l 1
EndSplineSet
EndChar

StartChar: NameMe.100
Encoding: 100 57444 100
Width: 1000
VWidth: 811
Flags: HW
LayerCount: 2
Fore
SplineSet
520 704.9765625 m 2
 520 704.9765625 l 1
 551 705.9765625 573 690.9765625 583 670.9765625 c 0
 590 655.9765625 591 640.9765625 592 626.9765625 c 1
 594 634.9765625 597 642.9765625 601 649.9765625 c 0
 612 667.9765625 632 679.9765625 660 677.9765625 c 0
 677 676.9765625 691 670.9765625 701 661.9765625 c 0
 711 652.9765625 715 640.9765625 718 628.9765625 c 0
 724 604.9765625 720 580.9765625 720 568.9765625 c 0
 720 561.9765625 718 537.9765625 717 521.9765625 c 1
 725 534.9765625 733 543.9765625 743 547.9765625 c 0
 751 551.9765625 760 552.9765625 766 552.9765625 c 0
 769 552.9765625 771 551.9765625 773 551.9765625 c 0
 775 551.9765625 777 551.9765625 776 551.9765625 c 1
 781 550.9765625 793 548.9765625 805 539.9765625 c 0
 817 530.9765625 827 512.9765625 825 487.9765625 c 0
 821 424.9765625 796 248.9765625 791 187.9765625 c 0
 784 104.9765625 782 84.9765625 776 69.9765625 c 0
 770 54.9765625 764 55.9765625 748 9.9765625 c 0
 740 -14.0234375 734 -40.0234375 726 -62.0234375 c 0
 722 -73.0234375 717 -83.0234375 709 -91.0234375 c 0
 701 -99.0234375 689 -105.0234375 676 -105.0234375 c 2
 375 -105.0234375 l 2
 360 -105.0234375 347 -95.0234375 338 -83.0234375 c 0
 329 -71.0234375 321 -57.0234375 315 -41.0234375 c 0
 303 -9.0234375 295 29.9765625 286 55.9765625 c 0
 275 87.9765625 282 76.9765625 254 131.9765625 c 0
 239 160.9765625 224 195.9765625 211 224.9765625 c 0
 194 263.9765625 180 299.9765625 176 331.9765625 c 0
 174 347.9765625 174 361.9765625 179 375.9765625 c 0
 184 389.9765625 195 401.9765625 209 408.9765625 c 0
 230 418.9765625 252 417.9765625 269 407.9765625 c 0
 286 397.9765625 300 382.9765625 312 363.9765625 c 0
 324 345.9765625 334 324.9765625 344 303.9765625 c 1
 341 331.9765625 340 341.9765625 336 382.9765625 c 0
 328 460.9765625 321 544.9765625 320 568.9765625 c 0
 319 586.9765625 318 611.9765625 324 633.9765625 c 0
 330 655.9765625 346 677.9765625 375 682.9765625 c 0
 407 687.9765625 430 674.9765625 443 656.9765625 c 0
 449 648.9765625 452 639.9765625 455 630.9765625 c 1
 456 645.9765625 458 659.9765625 465 672.9765625 c 0
 475 689.9765625 494 703.9765625 520 704.9765625 c 2
521 678.9765625 m 0
 502 677.9765625 494 671.9765625 488 660.9765625 c 0
 482 649.9765625 480 633.9765625 480 617.9765625 c 2
 489 305.9765625 l 1
 463 304.9765625 l 1
 463 304.9765625 450 498.9765625 437 594.9765625 c 0
 435 611.9765625 430 629.9765625 422 641.9765625 c 0
 414 653.9765625 404 660.9765625 380 656.9765625 c 0
 361 653.9765625 354 643.9765625 349 626.9765625 c 0
 344 609.9765625 344 587.9765625 345 569.9765625 c 0
 346 548.9765625 354 463.9765625 362 385.9765625 c 0
 370 307.9765625 377 235.9765625 377 235.9765625 c 1
 353 227.9765625 l 1
 332 265.9765625 313 315.9765625 291 349.9765625 c 0
 280 366.9765625 268 379.9765625 257 385.9765625 c 0
 246 391.9765625 235 392.9765625 220 385.9765625 c 0
 211 380.9765625 206 374.9765625 203 366.9765625 c 0
 200 358.9765625 199 347.9765625 201 334.9765625 c 0
 204 307.9765625 218 272.9765625 235 234.9765625 c 0
 248 205.9765625 263 170.9765625 277 142.9765625 c 0
 306 86.9765625 300 93.9765625 310 63.9765625 c 0
 319 35.9765625 329 -1.0234375 340 -31.0234375 c 0
 346 -46.0234375 352 -60.0234375 358 -68.0234375 c 0
 364 -76.0234375 370 -79.0234375 375 -79.0234375 c 2
 676 -79.0234375 l 2
 683 -79.0234375 686 -77.0234375 690 -73.0234375 c 0
 694 -69.0234375 698 -62.0234375 702 -53.0234375 c 0
 709 -34.0234375 715 -7.0234375 724 18.9765625 c 0
 741 66.9765625 749 72.9765625 752 79.9765625 c 0
 755 86.9765625 759 107.9765625 766 190.9765625 c 0
 772 254.9765625 795 430.9765625 799 489.9765625 c 0
 800 507.9765625 795 513.9765625 789 518.9765625 c 0
 783 523.9765625 775 525.9765625 772 525.9765625 c 0
 770 525.9765625 771 526.9765625 770 526.9765625 c 0
 769 526.9765625 767 526.9765625 765 526.9765625 c 0
 762 526.9765625 758 526.9765625 754 524.9765625 c 0
 746 520.9765625 734 511.9765625 729 480.9765625 c 0
 728 473.9765625 700 294.9765625 700 294.9765625 c 1
 674 297.9765625 l 1
 674 297.9765625 693 530.9765625 695 569.9765625 c 0
 696 583.9765625 697 605.9765625 693 622.9765625 c 0
 691 631.9765625 688 637.9765625 683 642.9765625 c 0
 678 647.9765625 671 650.9765625 659 651.9765625 c 0
 638 652.9765625 630 647.9765625 623 636.9765625 c 0
 616 625.9765625 613 606.9765625 611 585.9765625 c 0
 611 585.9765625 610 578.9765625 610 570.9765625 c 0
 610 562.9765625 610 550.9765625 609 537.9765625 c 0
 608 510.9765625 606 474.9765625 604 440.9765625 c 0
 601 371.9765625 598 304.9765625 598 304.9765625 c 1
 573 305.9765625 l 1
 573 305.9765625 568 577.9765625 568 612.9765625 c 0
 568 627.9765625 566 645.9765625 560 658.9765625 c 0
 554 671.9765625 544 679.9765625 521 678.9765625 c 0
602 28.9765625 m 1
 602 0.9765625 l 1
 447 0.9765625 l 1
 447 7.9765625 448 14.9765625 450 20.9765625 c 0
 454 31.9765625 460 41.9765625 469 51.9765625 c 0
 478 61.9765625 491 74.9765625 507 87.9765625 c 0
 532 108.9765625 549 124.9765625 558 136.9765625 c 0
 567 148.9765625 572 160.9765625 572 171.9765625 c 0
 572 182.9765625 567 191.9765625 559 199.9765625 c 0
 551 207.9765625 541 211.9765625 528 211.9765625 c 0
 514 211.9765625 503 207.9765625 495 199.9765625 c 0
 487 191.9765625 482 179.9765625 482 164.9765625 c 1
 452 167.9765625 l 1
 454 189.9765625 462 207.9765625 475 218.9765625 c 0
 488 230.9765625 506 235.9765625 528 235.9765625 c 0
 550 235.9765625 569 228.9765625 582 216.9765625 c 0
 595 204.9765625 601 188.9765625 601 170.9765625 c 0
 601 161.9765625 600 152.9765625 596 143.9765625 c 0
 592 134.9765625 585 124.9765625 576 114.9765625 c 0
 567 104.9765625 553 90.9765625 532 73.9765625 c 0
 515 59.9765625 504 48.9765625 499 43.9765625 c 0
 494 38.9765625 490 33.9765625 487 28.9765625 c 1
 602 28.9765625 l 1
EndSplineSet
EndChar

StartChar: NameMe.101
Encoding: 101 57445 101
Width: 1000
VWidth: 811
Flags: HW
LayerCount: 2
Fore
SplineSet
520 704.9765625 m 2
 520 704.9765625 l 1
 551 705.9765625 573 690.9765625 583 670.9765625 c 0
 590 655.9765625 591 640.9765625 592 626.9765625 c 1
 594 634.9765625 597 642.9765625 601 649.9765625 c 0
 612 667.9765625 632 679.9765625 660 677.9765625 c 0
 677 676.9765625 691 670.9765625 701 661.9765625 c 0
 711 652.9765625 715 640.9765625 718 628.9765625 c 0
 724 604.9765625 720 580.9765625 720 568.9765625 c 0
 720 561.9765625 718 537.9765625 717 521.9765625 c 1
 725 534.9765625 733 543.9765625 743 547.9765625 c 0
 751 551.9765625 760 552.9765625 766 552.9765625 c 0
 769 552.9765625 771 551.9765625 773 551.9765625 c 0
 775 551.9765625 777 551.9765625 776 551.9765625 c 1
 781 550.9765625 793 548.9765625 805 539.9765625 c 0
 817 530.9765625 827 512.9765625 825 487.9765625 c 0
 821 424.9765625 796 248.9765625 791 187.9765625 c 0
 784 104.9765625 782 84.9765625 776 69.9765625 c 0
 770 54.9765625 764 55.9765625 748 9.9765625 c 0
 740 -14.0234375 734 -40.0234375 726 -62.0234375 c 0
 722 -73.0234375 717 -83.0234375 709 -91.0234375 c 0
 701 -99.0234375 689 -105.0234375 676 -105.0234375 c 2
 375 -105.0234375 l 2
 360 -105.0234375 347 -95.0234375 338 -83.0234375 c 0
 329 -71.0234375 321 -57.0234375 315 -41.0234375 c 0
 303 -9.0234375 295 29.9765625 286 55.9765625 c 0
 275 87.9765625 282 76.9765625 254 131.9765625 c 0
 239 160.9765625 224 195.9765625 211 224.9765625 c 0
 194 263.9765625 180 299.9765625 176 331.9765625 c 0
 174 347.9765625 174 361.9765625 179 375.9765625 c 0
 184 389.9765625 195 401.9765625 209 408.9765625 c 0
 230 418.9765625 252 417.9765625 269 407.9765625 c 0
 286 397.9765625 300 382.9765625 312 363.9765625 c 0
 324 345.9765625 334 324.9765625 344 303.9765625 c 1
 341 331.9765625 340 341.9765625 336 382.9765625 c 0
 328 460.9765625 321 544.9765625 320 568.9765625 c 0
 319 586.9765625 318 611.9765625 324 633.9765625 c 0
 330 655.9765625 346 677.9765625 375 682.9765625 c 0
 407 687.9765625 430 674.9765625 443 656.9765625 c 0
 449 648.9765625 452 639.9765625 455 630.9765625 c 1
 456 645.9765625 458 659.9765625 465 672.9765625 c 0
 475 689.9765625 494 703.9765625 520 704.9765625 c 2
521 678.9765625 m 0
 502 677.9765625 494 671.9765625 488 660.9765625 c 0
 482 649.9765625 480 633.9765625 480 617.9765625 c 2
 489 305.9765625 l 1
 463 304.9765625 l 1
 463 304.9765625 450 498.9765625 437 594.9765625 c 0
 435 611.9765625 430 629.9765625 422 641.9765625 c 0
 414 653.9765625 404 660.9765625 380 656.9765625 c 0
 361 653.9765625 354 643.9765625 349 626.9765625 c 0
 344 609.9765625 344 587.9765625 345 569.9765625 c 0
 346 548.9765625 354 463.9765625 362 385.9765625 c 0
 370 307.9765625 377 235.9765625 377 235.9765625 c 1
 353 227.9765625 l 1
 332 265.9765625 313 315.9765625 291 349.9765625 c 0
 280 366.9765625 268 379.9765625 257 385.9765625 c 0
 246 391.9765625 235 392.9765625 220 385.9765625 c 0
 211 380.9765625 206 374.9765625 203 366.9765625 c 0
 200 358.9765625 199 347.9765625 201 334.9765625 c 0
 204 307.9765625 218 272.9765625 235 234.9765625 c 0
 248 205.9765625 263 170.9765625 277 142.9765625 c 0
 306 86.9765625 300 93.9765625 310 63.9765625 c 0
 319 35.9765625 329 -1.0234375 340 -31.0234375 c 0
 346 -46.0234375 352 -60.0234375 358 -68.0234375 c 0
 364 -76.0234375 370 -79.0234375 375 -79.0234375 c 2
 676 -79.0234375 l 2
 683 -79.0234375 686 -77.0234375 690 -73.0234375 c 0
 694 -69.0234375 698 -62.0234375 702 -53.0234375 c 0
 709 -34.0234375 715 -7.0234375 724 18.9765625 c 0
 741 66.9765625 749 72.9765625 752 79.9765625 c 0
 755 86.9765625 759 107.9765625 766 190.9765625 c 0
 772 254.9765625 795 430.9765625 799 489.9765625 c 0
 800 507.9765625 795 513.9765625 789 518.9765625 c 0
 783 523.9765625 775 525.9765625 772 525.9765625 c 0
 770 525.9765625 771 526.9765625 770 526.9765625 c 0
 769 526.9765625 767 526.9765625 765 526.9765625 c 0
 762 526.9765625 758 526.9765625 754 524.9765625 c 0
 746 520.9765625 734 511.9765625 729 480.9765625 c 0
 728 473.9765625 700 294.9765625 700 294.9765625 c 1
 674 297.9765625 l 1
 674 297.9765625 693 530.9765625 695 569.9765625 c 0
 696 583.9765625 697 605.9765625 693 622.9765625 c 0
 691 631.9765625 688 637.9765625 683 642.9765625 c 0
 678 647.9765625 671 650.9765625 659 651.9765625 c 0
 638 652.9765625 630 647.9765625 623 636.9765625 c 0
 616 625.9765625 613 606.9765625 611 585.9765625 c 0
 611 585.9765625 610 578.9765625 610 570.9765625 c 0
 610 562.9765625 610 550.9765625 609 537.9765625 c 0
 608 510.9765625 606 474.9765625 604 440.9765625 c 0
 601 371.9765625 598 304.9765625 598 304.9765625 c 1
 573 305.9765625 l 1
 573 305.9765625 568 577.9765625 568 612.9765625 c 0
 568 627.9765625 566 645.9765625 560 658.9765625 c 0
 554 671.9765625 544 679.9765625 521 678.9765625 c 0
451 62.9765625 m 1
 480 66.9765625 l 1
 483 50.9765625 488 38.9765625 496 31.9765625 c 0
 504 24.9765625 514 20.9765625 525 20.9765625 c 0
 539 20.9765625 550 25.9765625 559 34.9765625 c 0
 568 43.9765625 573 55.9765625 573 69.9765625 c 0
 573 82.9765625 570 92.9765625 561 101.9765625 c 0
 552 110.9765625 541 114.9765625 528 114.9765625 c 0
 523 114.9765625 515 113.9765625 507 111.9765625 c 1
 511 136.9765625 l 2
 513 136.9765625 514 136.9765625 515 136.9765625 c 0
 527 136.9765625 538 139.9765625 548 145.9765625 c 0
 558 151.9765625 563 162.9765625 563 175.9765625 c 0
 563 186.9765625 559 194.9765625 552 201.9765625 c 0
 545 208.9765625 536 211.9765625 525 211.9765625 c 0
 514 211.9765625 504 208.9765625 497 201.9765625 c 0
 490 194.9765625 484 183.9765625 482 169.9765625 c 1
 454 174.9765625 l 1
 458 193.9765625 466 208.9765625 478 219.9765625 c 0
 490 230.9765625 505 235.9765625 524 235.9765625 c 0
 537 235.9765625 548 233.9765625 559 227.9765625 c 0
 570 222.9765625 578 213.9765625 584 204.9765625 c 0
 590 195.9765625 592 185.9765625 592 174.9765625 c 0
 592 164.9765625 589 155.9765625 584 147.9765625 c 0
 579 139.9765625 571 132.9765625 560 127.9765625 c 1
 574 124.9765625 584 117.9765625 592 107.9765625 c 0
 600 97.9765625 604 84.9765625 604 69.9765625 c 0
 604 49.9765625 597 31.9765625 582 17.9765625 c 0
 567 3.9765625 548 -3.0234375 525 -3.0234375 c 0
 504 -3.0234375 488 2.9765625 474 14.9765625 c 0
 460 26.9765625 453 43.9765625 451 62.9765625 c 1
EndSplineSet
EndChar

StartChar: NameMe.102
Encoding: 102 57446 102
Width: 1000
VWidth: 811
Flags: HW
LayerCount: 2
Fore
SplineSet
520 704.9765625 m 2
 520 704.9765625 l 1
 551 705.9765625 573 690.9765625 583 670.9765625 c 0
 590 655.9765625 591 640.9765625 592 626.9765625 c 1
 594 634.9765625 597 642.9765625 601 649.9765625 c 0
 612 667.9765625 632 679.9765625 660 677.9765625 c 0
 677 676.9765625 691 670.9765625 701 661.9765625 c 0
 711 652.9765625 715 640.9765625 718 628.9765625 c 0
 724 604.9765625 720 580.9765625 720 568.9765625 c 0
 720 561.9765625 718 537.9765625 717 521.9765625 c 1
 725 534.9765625 733 543.9765625 743 547.9765625 c 0
 751 551.9765625 760 552.9765625 766 552.9765625 c 0
 769 552.9765625 771 551.9765625 773 551.9765625 c 0
 775 551.9765625 777 551.9765625 776 551.9765625 c 1
 781 550.9765625 793 548.9765625 805 539.9765625 c 0
 817 530.9765625 827 512.9765625 825 487.9765625 c 0
 821 424.9765625 796 248.9765625 791 187.9765625 c 0
 784 104.9765625 782 84.9765625 776 69.9765625 c 0
 770 54.9765625 764 55.9765625 748 9.9765625 c 0
 740 -14.0234375 734 -40.0234375 726 -62.0234375 c 0
 722 -73.0234375 717 -83.0234375 709 -91.0234375 c 0
 701 -99.0234375 689 -105.0234375 676 -105.0234375 c 2
 375 -105.0234375 l 2
 360 -105.0234375 347 -95.0234375 338 -83.0234375 c 0
 329 -71.0234375 321 -57.0234375 315 -41.0234375 c 0
 303 -9.0234375 295 29.9765625 286 55.9765625 c 0
 275 87.9765625 282 76.9765625 254 131.9765625 c 0
 239 160.9765625 224 195.9765625 211 224.9765625 c 0
 194 263.9765625 180 299.9765625 176 331.9765625 c 0
 174 347.9765625 174 361.9765625 179 375.9765625 c 0
 184 389.9765625 195 401.9765625 209 408.9765625 c 0
 230 418.9765625 252 417.9765625 269 407.9765625 c 0
 286 397.9765625 300 382.9765625 312 363.9765625 c 0
 324 345.9765625 334 324.9765625 344 303.9765625 c 1
 341 331.9765625 340 341.9765625 336 382.9765625 c 0
 328 460.9765625 321 544.9765625 320 568.9765625 c 0
 319 586.9765625 318 611.9765625 324 633.9765625 c 0
 330 655.9765625 346 677.9765625 375 682.9765625 c 0
 407 687.9765625 430 674.9765625 443 656.9765625 c 0
 449 648.9765625 452 639.9765625 455 630.9765625 c 1
 456 645.9765625 458 659.9765625 465 672.9765625 c 0
 475 689.9765625 494 703.9765625 520 704.9765625 c 2
521 678.9765625 m 0
 502 677.9765625 494 671.9765625 488 660.9765625 c 0
 482 649.9765625 480 633.9765625 480 617.9765625 c 2
 489 305.9765625 l 1
 463 304.9765625 l 1
 463 304.9765625 450 498.9765625 437 594.9765625 c 0
 435 611.9765625 430 629.9765625 422 641.9765625 c 0
 414 653.9765625 404 660.9765625 380 656.9765625 c 0
 361 653.9765625 354 643.9765625 349 626.9765625 c 0
 344 609.9765625 344 587.9765625 345 569.9765625 c 0
 346 548.9765625 354 463.9765625 362 385.9765625 c 0
 370 307.9765625 377 235.9765625 377 235.9765625 c 1
 353 227.9765625 l 1
 332 265.9765625 313 315.9765625 291 349.9765625 c 0
 280 366.9765625 268 379.9765625 257 385.9765625 c 0
 246 391.9765625 235 392.9765625 220 385.9765625 c 0
 211 380.9765625 206 374.9765625 203 366.9765625 c 0
 200 358.9765625 199 347.9765625 201 334.9765625 c 0
 204 307.9765625 218 272.9765625 235 234.9765625 c 0
 248 205.9765625 263 170.9765625 277 142.9765625 c 0
 306 86.9765625 300 93.9765625 310 63.9765625 c 0
 319 35.9765625 329 -1.0234375 340 -31.0234375 c 0
 346 -46.0234375 352 -60.0234375 358 -68.0234375 c 0
 364 -76.0234375 370 -79.0234375 375 -79.0234375 c 2
 676 -79.0234375 l 2
 683 -79.0234375 686 -77.0234375 690 -73.0234375 c 0
 694 -69.0234375 698 -62.0234375 702 -53.0234375 c 0
 709 -34.0234375 715 -7.0234375 724 18.9765625 c 0
 741 66.9765625 749 72.9765625 752 79.9765625 c 0
 755 86.9765625 759 107.9765625 766 190.9765625 c 0
 772 254.9765625 795 430.9765625 799 489.9765625 c 0
 800 507.9765625 795 513.9765625 789 518.9765625 c 0
 783 523.9765625 775 525.9765625 772 525.9765625 c 0
 770 525.9765625 771 526.9765625 770 526.9765625 c 0
 769 526.9765625 767 526.9765625 765 526.9765625 c 0
 762 526.9765625 758 526.9765625 754 524.9765625 c 0
 746 520.9765625 734 511.9765625 729 480.9765625 c 0
 728 473.9765625 700 294.9765625 700 294.9765625 c 1
 674 297.9765625 l 1
 674 297.9765625 693 530.9765625 695 569.9765625 c 0
 696 583.9765625 697 605.9765625 693 622.9765625 c 0
 691 631.9765625 688 637.9765625 683 642.9765625 c 0
 678 647.9765625 671 650.9765625 659 651.9765625 c 0
 638 652.9765625 630 647.9765625 623 636.9765625 c 0
 616 625.9765625 613 606.9765625 611 585.9765625 c 0
 611 585.9765625 610 578.9765625 610 570.9765625 c 0
 610 562.9765625 610 550.9765625 609 537.9765625 c 0
 608 510.9765625 606 474.9765625 604 440.9765625 c 0
 601 371.9765625 598 304.9765625 598 304.9765625 c 1
 573 305.9765625 l 1
 573 305.9765625 568 577.9765625 568 612.9765625 c 0
 568 627.9765625 566 645.9765625 560 658.9765625 c 0
 554 671.9765625 544 679.9765625 521 678.9765625 c 0
543 0.9765625 m 1
 543 56.9765625 l 1
 441 56.9765625 l 1
 441 83.9765625 l 1
 548 234.9765625 l 1
 571 234.9765625 l 1
 571 83.9765625 l 1
 603 83.9765625 l 1
 603 56.9765625 l 1
 571 56.9765625 l 1
 571 0.9765625 l 1
 543 0.9765625 l 1
543 83.9765625 m 1
 543 188.9765625 l 1
 469 83.9765625 l 1
 543 83.9765625 l 1
EndSplineSet
EndChar

StartChar: NameMe.103
Encoding: 103 57447 103
Width: 1000
VWidth: 811
Flags: HW
LayerCount: 2
Fore
SplineSet
239 98.5 m 1
 132 501.5 l 1
 187 501.5 l 1
 248 237.5 l 2
 255 209.5 260 181.5 265 154.5 c 1
 275 197.5 281 222.5 283 229.5 c 2
 360 501.5 l 1
 424 501.5 l 1
 482 297.5 l 2
 496 246.5 507 199.5 513 154.5 c 1
 518 179.5 525 209.5 533 242.5 c 2
 596 501.5 l 1
 650 501.5 l 1
 539 98.5 l 1
 488 98.5 l 1
 403 405.5 l 2
 396 431.5 392 446.5 391 452.5 c 1
 387 434.5 383 418.5 379 405.5 c 2
 293 98.5 l 1
 239 98.5 l 1
694 444.5 m 1
 694 501.5 l 1
 743 501.5 l 1
 743 444.5 l 1
 694 444.5 l 1
694 98.5 m 1
 694 390.5 l 1
 743 390.5 l 1
 743 98.5 l 1
 694 98.5 l 1
819 444.5 m 1
 819 501.5 l 1
 868 501.5 l 1
 868 444.5 l 1
 819 444.5 l 1
819 98.5 m 1
 819 390.5 l 1
 868 390.5 l 1
 868 98.5 l 1
 819 98.5 l 1
EndSplineSet
EndChar

StartChar: NameMe.104
Encoding: 104 57448 104
Width: 1000
VWidth: 557
Flags: HW
LayerCount: 2
Fore
SplineSet
288 509 m 1
 328 504 l 1
 322 481 310 463 293 450 c 0
 276 437 254 431 227 431 c 0
 194 431 168 441 148 461 c 0
 129 482 119 511 119 548 c 0
 119 586 128 616 148 637 c 0
 168 658 193 669 225 669 c 0
 256 669 281 659 300 638 c 0
 319 617 329 588 329 550 c 0
 329 548 329 545 329 540 c 2
 159 540 l 1
 160 515 167 495 180 482 c 0
 193 469 209 462 228 462 c 0
 242 462 254 467 264 474 c 0
 274 481 282 493 288 509 c 1
161 572 m 1
 288 572 l 1
 286 591 282 605 274 615 c 0
 262 630 246 637 226 637 c 0
 208 637 193 632 181 620 c 0
 169 608 162 592 161 572 c 1
376 436 m 1
 376 664 l 1
 411 664 l 1
 411 629 l 1
 420 645 428 656 435 661 c 0
 443 666 451 669 460 669 c 0
 473 669 487 665 500 657 c 1
 487 621 l 1
 478 627 467 629 458 629 c 0
 450 629 443 626 436 621 c 0
 429 616 424 609 421 600 c 0
 417 586 415 571 415 555 c 2
 415 436 l 1
 376 436 l 1
EndSplineSet
EndChar

StartChar: NameMe.105
Encoding: 105 57449 105
Width: 1000
VWidth: 557
Flags: HW
LayerCount: 2
Fore
SplineSet
131 436 m 5
 131 664 l 5
 166 664 l 5
 166 629 l 5
 175 645 184 656 191 661 c 4
 199 666 206 669 215 669 c 4
 228 669 242 665 255 657 c 5
 242 621 l 5
 233 627 223 629 214 629 c 4
 206 629 198 626 191 621 c 4
 184 616 179 609 176 600 c 4
 172 586 170 571 170 555 c 6
 170 436 l 5
 131 436 l 5
434 509 m 5
 474 504 l 5
 468 481 456 463 439 450 c 4
 422 437 401 431 374 431 c 4
 341 431 315 441 295 461 c 4
 276 482 265 511 265 548 c 4
 265 586 275 616 295 637 c 4
 315 658 340 669 372 669 c 4
 403 669 428 659 447 638 c 4
 466 617 476 588 476 550 c 4
 476 548 476 545 476 540 c 6
 305 540 l 5
 306 515 314 495 327 482 c 4
 340 469 355 462 374 462 c 4
 388 462 401 467 411 474 c 4
 421 481 428 493 434 509 c 5
307 572 m 5
 435 572 l 5
 433 591 428 605 420 615 c 4
 408 630 392 637 372 637 c 4
 354 637 339 632 327 620 c 4
 315 608 308 592 307 572 c 5
EndSplineSet
EndChar

StartChar: NameMe.106
Encoding: 106 57450 106
Width: 1000
VWidth: 557
Flags: HWO
LayerCount: 2
Fore
SplineSet
288 509 m 5
 328 504 l 5
 322 481 310 463 293 450 c 4
 276 437 254 431 227 431 c 4
 194 431 168 441 148 461 c 4
 129 482 119 511 119 548 c 4
 119 586 128 616 148 637 c 4
 168 658 193 669 225 669 c 4
 256 669 281 659 300 638 c 4
 319 617 329 588 329 550 c 4
 329 548 329 545 329 540 c 6
 159 540 l 5
 160 515 167 495 180 482 c 4
 193 469 209 462 228 462 c 4
 242 462 254 467 264 474 c 4
 274 481 282 493 288 509 c 5
161 572 m 5
 288 572 l 5
 286 591 282 605 274 615 c 4
 262 630 246 637 226 637 c 4
 208 637 193 632 181 620 c 4
 169 608 162 592 161 572 c 5
EndSplineSet
EndChar

StartChar: NameMe.107
Encoding: 107 57451 107
Width: 1000
VWidth: 814
Flags: HW
LayerCount: 2
Fore
SplineSet
125 693.5 m 2
 875 693.5 l 1
 885 693.5 894 684.5 894 674.5 c 2
 894 674.5 l 1
 894 -75.5 l 2
 894 -75.5 l 2
 894 -85.5 885 -93.5 875 -93.5 c 2
 125 -93.5 l 1
 115 -93.5 106 -85.5 106 -75.5 c 2
 106 -75.5 l 1
 106 674.5 l 2
 106 674.5 l 2
 106 684.5 115 693.5 125 693.5 c 2
143 656.5 m 1
 143 -57.5 l 1
 857 -57.5 l 1
 857 656.5 l 1
 143 656.5 l 1
125 674.5 m 1
 875 674.5 l 1
 875 -75.5 l 1
 125 -75.5 l 1
 125 674.5 l 1
482 64.5 m 2
 466 64.5 453 51.5 453 35.5 c 1
 453 -2.5 l 1
 453 -2.5 l 2
 453 -18.5 466 -31.5 482 -31.5 c 1
 518 -31.5 l 2
 534 -31.5 547 -18.5 547 -2.5 c 2
 547 -2.5 l 2
 547 35.5 l 2
 547 51.5 534 64.5 518 64.5 c 1
 482 64.5 l 2
207 620.5 m 1
 207 620.5 l 2
 191 620.5 177 607.5 177 591.5 c 1
 177 552.5 l 1
 177 552.5 l 2
 177 536.5 191 522.5 207 522.5 c 2
 207 522.5 l 2
 715 522.5 l 1
 715 370.5 l 1
 483 370.5 l 1
 483 370.5 l 2
 467 370.5 454 356.5 454 340.5 c 2
 454 340.5 l 2
 454 131.5 l 1
 454 131.5 l 2
 454 115.5 467 102.5 483 102.5 c 2
 483 102.5 l 2
 518 102.5 l 2
 534 102.5 548 115.5 548 131.5 c 1
 548 272.5 l 1
 783 272.5 l 2
 799 272.5 813 285.5 813 301.5 c 1
 813 591.5 l 2
 813 607.5 799 620.5 783 620.5 c 1
 207 620.5 l 1
EndSplineSet
EndChar

StartChar: NameMe.112
Encoding: 112 57456 111
Width: 1000
VWidth: 811
Flags: HW
LayerCount: 2
Fore
SplineSet
235 697.5 m 2
 765 697.5 l 2
 838 697.5 897 637.5 897 564.5 c 2
 897 35.5 l 2
 897 -37.5 838 -97.5 765 -97.5 c 2
 235 -97.5 l 2
 162 -97.5 103 -37.5 103 35.5 c 2
 103 564.5 l 2
 103 637.5 162 697.5 235 697.5 c 2
235 660.5 m 2
 182 660.5 139 617.5 139 564.5 c 2
 139 35.5 l 2
 139 -17.5 182 -60.5 235 -60.5 c 2
 765 -60.5 l 2
 818 -60.5 861 -17.5 861 35.5 c 2
 861 564.5 l 2
 861 617.5 818 660.5 765 660.5 c 2
 235 660.5 l 2
274 525.5 m 0
 277 528.5 282 531.5 287 531.5 c 0
 292 531.5 297 528.5 300 525.5 c 2
 726 99.5 l 1
 729 96.5 731 91.5 731 86.5 c 0
 731 81.5 729 76.5 726 73.5 c 0
 723 70.5 718 68.5 713 68.5 c 0
 708 68.5 703 70.5 700 73.5 c 2
 274 499.5 l 1
 271 502.5 269 507.5 269 512.5 c 0
 269 517.5 271 522.5 274 525.5 c 0
713 531.5 m 2
 718 531.5 723 528.5 726 525.5 c 0
 729 522.5 731 517.5 731 512.5 c 0
 731 507.5 729 502.5 726 499.5 c 2
 300 73.5 l 1
 297 70.5 292 68.5 287 68.5 c 0
 282 68.5 277 70.5 274 73.5 c 0
 271 76.5 269 81.5 269 86.5 c 0
 269 91.5 271 96.5 274 99.5 c 2
 700 525.5 l 0
 703 528.5 708 531.5 713 531.5 c 2
 713 531.5 l 2
EndSplineSet
EndChar

StartChar: NameMe.113
Encoding: 113 57457 112
Width: 1000
VWidth: 811
Flags: HW
LayerCount: 2
Fore
SplineSet
235 678.5 m 2
 765 678.5 l 2
 828 678.5 879 627.5 879 564.5 c 2
 879 35.5 l 2
 879 -27.5 828 -79.5 765 -79.5 c 2
 235 -79.5 l 2
 172 -79.5 121 -27.5 121 35.5 c 2
 121 564.5 l 2
 121 627.5 172 678.5 235 678.5 c 2
235 697.5 m 2
 765 697.5 l 2
 838 697.5 897 637.5 897 564.5 c 2
 897 35.5 l 2
 897 -37.5 838 -97.5 765 -97.5 c 2
 235 -97.5 l 2
 162 -97.5 103 -37.5 103 35.5 c 2
 103 564.5 l 2
 103 637.5 162 697.5 235 697.5 c 2
235 660.5 m 2
 182 660.5 139 617.5 139 564.5 c 2
 139 35.5 l 2
 139 -17.5 182 -60.5 235 -60.5 c 2
 765 -60.5 l 2
 818 -60.5 861 -17.5 861 35.5 c 2
 861 564.5 l 2
 861 617.5 818 660.5 765 660.5 c 2
 235 660.5 l 2
713 531.5 m 2
 713 531.5 l 2
 708 531.5 703 528.5 700 525.5 c 0
 500 325.5 l 1
 300 525.5 l 2
 297 528.5 292 531.5 287 531.5 c 0
 282 531.5 277 528.5 274 525.5 c 0
 271 522.5 269 517.5 269 512.5 c 0
 269 507.5 271 502.5 274 499.5 c 1
 474 299.5 l 1
 274 99.5 l 2
 271 96.5 269 91.5 269 86.5 c 0
 269 81.5 271 76.5 274 73.5 c 0
 277 70.5 282 68.5 287 68.5 c 0
 292 68.5 297 70.5 300 73.5 c 1
 500 273.5 l 1
 700 73.5 l 2
 703 70.5 708 68.5 713 68.5 c 0
 718 68.5 723 70.5 726 73.5 c 0
 729 76.5 731 81.5 731 86.5 c 0
 731 91.5 729 96.5 726 99.5 c 1
 526 299.5 l 1
 726 499.5 l 2
 729 502.5 731 507.5 731 512.5 c 0
 731 517.5 729 522.5 726 525.5 c 0
 723 528.5 718 531.5 713 531.5 c 2
EndSplineSet
EndChar

StartChar: NameMe.114
Encoding: 114 57458 113
Width: 1000
VWidth: 811
Flags: HW
LayerCount: 2
Fore
SplineSet
414 680.5 m 1
 414 551.5 l 1
 503 551.5 l 2
 676 551.5 818 408.5 818 235.5 c 0
 818 62.5 676 -80.5 503 -80.5 c 2
 414 -80.5 l 1
 414 70.5 l 1
 503 70.5 l 2
 594 70.5 667 143.5 667 235.5 c 0
 667 327.5 594 399.5 503 399.5 c 2
 414 399.5 l 1
 414 270.5 l 1
 182 475.5 l 1
 414 680.5 l 1
EndSplineSet
EndChar

StartChar: NameMe.115
Encoding: 115 57459 114
Width: 1000
VWidth: 811
Flags: HW
LayerCount: 2
Fore
SplineSet
487 609.5 m 2
 491 612.5 495 613.5 500 613.5 c 0
 505 613.5 509 612.5 513 609.5 c 2
 856 359.5 l 0
 861 355.5 865 348.5 865 341.5 c 0
 865 329.5 856 320.5 844 320.5 c 2
 784 320.5 l 1
 784 7.5 l 1
 784 -4.5 774 -13.5 762 -13.5 c 2
 238 -13.5 l 1
 226 -13.5 216 -4.5 216 7.5 c 2
 216 320.5 l 1
 156 320.5 l 1
 144 320.5 135 329.5 135 341.5 c 0
 135 348.5 139 355.5 144 359.5 c 2
 487 609.5 l 2
500 565.5 m 1
 222 363.5 l 1
 238 363.5 l 2
 238 363.5 l 2
 250 363.5 259 353.5 259 341.5 c 2
 259 341.5 l 1
 259 28.5 l 1
 741 28.5 l 1
 741 341.5 l 2
 741 341.5 l 2
 741 353.5 750 363.5 762 363.5 c 2
 778 363.5 l 1
 500 565.5 l 1
500 592.5 m 1
 844 341.5 l 1
 762 341.5 l 1
 762 7.5 l 1
 238 7.5 l 1
 238 341.5 l 1
 156 341.5 l 1
 500 592.5 l 1
366 299.5 m 2
 348 299.5 333 285.5 333 267.5 c 2
 333 130.5 l 2
 333 112.5 348 98.5 366 98.5 c 2
 634 98.5 l 2
 652 98.5 667 112.5 667 130.5 c 2
 667 267.5 l 2
 667 285.5 652 299.5 634 299.5 c 2
 366 299.5 l 2
EndSplineSet
EndChar

StartChar: NameMe.116
Encoding: 116 57460 115
Width: 1000
VWidth: 812
Flags: HW
LayerCount: 2
Fore
SplineSet
438 203.018554688 m 1
 287 162.018554688 l 1
 287 162.018554688 63 586.018554688 277 631.018554688 c 0
 402 657.018554688 426 515.018554688 426 515.018554688 c 1
 439 450.018554688 438 203.018554688 438 203.018554688 c 1
299 95.0185546875 m 1
 452 128.018554688 l 1
 452 128.018554688 519 -6.9814453125 397 -31.9814453125 c 0
 289 -53.9814453125 299 95.0185546875 299 95.0185546875 c 1
562 203.018554688 m 1
 562 203.018554688 561 450.018554688 574 515.018554688 c 1
 574 515.018554688 598 657.018554688 723 631.018554688 c 0
 937 586.018554688 713 162.018554688 713 162.018554688 c 1
 562 203.018554688 l 1
701 95.0185546875 m 1
 701 95.0185546875 711 -53.9814453125 603 -31.9814453125 c 0
 481 -6.9814453125 548 128.018554688 548 128.018554688 c 1
 701 95.0185546875 l 1
EndSplineSet
EndChar

StartChar: NameMe.117
Encoding: 117 57461 116
Width: 1000
VWidth: 812
Flags: HW
LayerCount: 2
Fore
SplineSet
914 300 m 0
 914 71 729 -114 500 -114 c 0
 271 -114 86 71 86 300 c 0
 86 529 271 714 500 714 c 0
 729 714 914 529 914 300 c 0
872 300 m 0
 872 505 705 672 500 672 c 0
 295 672 128 505 128 300 c 0
 128 95 295 -72 500 -72 c 0
 705 -72 872 95 872 300 c 0
851 300 m 0
 851 106 694 -51 500 -51 c 0
 306 -51 149 106 149 300 c 0
 149 494 306 652 500 652 c 0
 694 652 851 494 851 300 c 0
307 527 m 2
 288 527 273 512 273 493 c 2
 273 108 l 2
 273 89 288 74 307 74 c 2
 693 74 l 2
 712 74 727 89 727 108 c 2
 727 493 l 2
 727 512 712 527 693 527 c 2
 307 527 l 2
426 273 m 2
 574 273 l 2
 592 273 606 259 606 241 c 2
 606 150 l 2
 606 132 592 118 574 118 c 2
 426 118 l 2
 408 118 394 132 394 150 c 2
 394 241 l 2
 394 259 408 273 426 273 c 2
386 482 m 2
 614 482 l 2
 635 482 652 465 652 444 c 2
 652 365 l 2
 652 344 635 327 614 327 c 2
 386 327 l 2
 365 327 348 344 348 365 c 2
 348 444 l 2
 348 465 365 482 386 482 c 2
EndSplineSet
EndChar

StartChar: NameMe.118
Encoding: 118 57462 117
Width: 1000
VWidth: 812
Flags: HW
LayerCount: 2
Fore
SplineSet
448 579 m 0
 506 579 556 548 581 500 c 1
 606 548 656 579 714 579 c 0
 797 579 864 512 864 429 c 0
 864 365 824 309 767 288 c 1
 807 285 837 253 837 213 c 2
 837 99 l 2
 837 57 804 23 762 23 c 2
 397 23 l 2
 355 23 321 57 321 99 c 2
 321 128 l 1
 136 21 l 1
 136 371 l 1
 326 240 l 1
 337 268 364 287 395 288 c 1
 338 310 298 365 298 429 c 0
 298 512 365 579 448 579 c 0
581 358 m 1
 564 326 535 301 501 288 c 1
 660 288 l 0
 626 301 598 326 581 358 c 1
EndSplineSet
EndChar

StartChar: NameMe.119
Encoding: 119 57463 118
Width: 1000
VWidth: 811
Flags: HW
LayerCount: 2
Fore
SplineSet
872 299.5 m 0
 872 100.5 705 -60.5 500 -60.5 c 0
 295 -60.5 128 100.5 128 299.5 c 0
 128 498.5 295 660.5 500 660.5 c 0
 705 660.5 872 498.5 872 299.5 c 0
838 314.5 m 0
 838 486.5 686 626.5 500 626.5 c 0
 314 626.5 162 486.5 162 314.5 c 0
 162 142.5 314 2.5 500 2.5 c 0
 686 2.5 838 142.5 838 314.5 c 0
771 336.5 m 0
 771 197.5 649 84.5 500 84.5 c 0
 351 84.5 229 197.5 229 336.5 c 0
 229 475.5 351 588.5 500 588.5 c 0
 649 588.5 771 475.5 771 336.5 c 0
750 337.5 m 0
 750 466.5 638 571.5 500 571.5 c 0
 362 571.5 250 466.5 250 337.5 c 0
 250 208.5 362 104.5 500 104.5 c 0
 638 104.5 750 208.5 750 337.5 c 0
EndSplineSet
EndChar

StartChar: NameMe.120
Encoding: 120 57464 119
Width: 1000
VWidth: 812
Flags: HW
LayerCount: 2
Fore
SplineSet
583 498 m 0
 586 499 588 500 591 500 c 0
 595 500 598 499 601 498 c 0
 703 451 758 338 734 228 c 0
 710 118 612 40 500 40 c 0
 388 40 290 118 266 228 c 0
 242 338 297 451 399 498 c 0
 402 499 405 500 409 500 c 0
 419 500 427 494 431 486 c 0
 432 483 433 480 433 476 c 0
 433 466 427 457 419 453 c 0
 338 415 295 327 314 239 c 0
 333 151 410 89 500 89 c 0
 590 89 667 151 686 239 c 0
 705 327 662 415 581 453 c 0
 573 457 567 466 567 476 c 0
 567 480 568 483 569 486 c 0
 572 492 577 496 583 498 c 0
500 580 m 2
 500 580 l 2
 513 580 524 568 524 555 c 2
 524 306 l 1
 524 293 513 281 500 281 c 2
 500 281 l 2
 487 281 476 293 476 306 c 2
 476 555 l 1
 476 568 487 580 500 580 c 2
207 689 m 2
 793 689 l 2
 850 689 897 642 897 585 c 2
 897 15 l 2
 897 -42 850 -89 793 -89 c 2
 207 -89 l 2
 150 -89 103 -42 103 15 c 2
 103 585 l 2
 103 642 150 689 207 689 c 2
207 644 m 2
 174 644 149 618 149 585 c 2
 149 15 l 2
 149 -18 174 -43 207 -43 c 2
 793 -43 l 2
 826 -43 851 -18 851 15 c 2
 851 585 l 2
 851 618 826 644 793 644 c 2
 207 644 l 2
EndSplineSet
EndChar

StartChar: NameMe.121
Encoding: 121 57465 120
Width: 1000
VWidth: 812
Flags: HW
LayerCount: 2
Fore
SplineSet
357 721 m 1
 643 721 l 2
 643 721 l 2
 650 721 655 715 655 708 c 2
 655 456 l 1
 908 456 l 1
 915 456 921 450 921 443 c 2
 921 443 l 1
 921 158 l 2
 921 158 l 2
 921 151 915 145 908 145 c 2
 655 145 l 1
 655 -108 l 1
 655 -115 650 -121 643 -121 c 2
 643 -121 l 1
 357 -121 l 2
 357 -121 l 2
 350 -121 345 -115 345 -108 c 2
 345 145 l 1
 92 145 l 1
 85 145 79 151 79 158 c 2
 79 158 l 1
 79 443 l 2
 79 443 l 2
 79 450 85 456 92 456 c 2
 345 456 l 1
 345 708 l 1
 345 715 350 721 357 721 c 2
 357 721 l 1
370 696 m 1
 370 443 l 1
 370 436 364 430 357 430 c 2
 105 430 l 1
 105 171 l 1
 357 171 l 1
 364 171 370 165 370 158 c 2
 370 -95 l 1
 630 -95 l 1
 630 158 l 1
 630 165 636 171 643 171 c 2
 895 171 l 1
 895 430 l 1
 643 430 l 1
 636 430 630 436 630 443 c 2
 630 696 l 1
 370 696 l 1
598 655 m 2
 598 451 l 2
 598 446 594 443 589 443 c 2
 411 443 l 2
 406 443 402 446 402 451 c 2
 402 655 l 2
 402 660 406 663 411 663 c 2
 589 663 l 2
 594 663 598 660 598 655 c 2
EndSplineSet
EndChar

StartChar: NameMe.122
Encoding: 122 57466 121
Width: 1000
VWidth: 812
Flags: HW
LayerCount: 2
Fore
SplineSet
357 721 m 1
 643 721 l 2
 643 721 l 2
 650 721 655 715 655 708 c 2
 655 456 l 1
 908 456 l 1
 915 456 921 450 921 443 c 2
 921 443 l 1
 921 158 l 2
 921 158 l 2
 921 151 915 145 908 145 c 2
 655 145 l 1
 655 -108 l 1
 655 -115 650 -121 643 -121 c 2
 643 -121 l 1
 357 -121 l 2
 357 -121 l 2
 350 -121 345 -115 345 -108 c 2
 345 145 l 1
 92 145 l 1
 85 145 79 151 79 158 c 2
 79 158 l 1
 79 443 l 2
 79 443 l 2
 79 450 85 456 92 456 c 2
 345 456 l 1
 345 708 l 1
 345 715 350 721 357 721 c 2
 357 721 l 1
370 696 m 1
 370 443 l 1
 370 436 364 430 357 430 c 2
 105 430 l 1
 105 171 l 1
 357 171 l 1
 364 171 370 165 370 158 c 2
 370 -95 l 1
 630 -95 l 1
 630 158 l 1
 630 165 636 171 643 171 c 2
 895 171 l 1
 895 430 l 1
 643 430 l 1
 636 430 630 436 630 443 c 2
 630 696 l 1
 370 696 l 1
598 149 m 2
 598 -54 l 2
 598 -59 594 -63 589 -63 c 2
 411 -63 l 2
 406 -63 402 -59 402 -54 c 2
 402 149 l 2
 402 154 406 157 411 157 c 2
 589 157 l 2
 594 157 598 154 598 149 c 2
EndSplineSet
EndChar

StartChar: NameMe.123
Encoding: 123 57467 122
Width: 1000
VWidth: 812
Flags: HW
LayerCount: 2
Fore
SplineSet
357 721 m 1
 643 721 l 2
 643 721 l 2
 650 721 655 715 655 708 c 2
 655 456 l 1
 908 456 l 1
 915 456 921 450 921 443 c 2
 921 443 l 1
 921 158 l 2
 921 158 l 2
 921 151 915 145 908 145 c 2
 655 145 l 1
 655 -108 l 1
 655 -115 650 -121 643 -121 c 2
 643 -121 l 1
 357 -121 l 2
 357 -121 l 2
 350 -121 345 -115 345 -108 c 2
 345 145 l 1
 92 145 l 1
 85 145 79 151 79 158 c 2
 79 158 l 1
 79 443 l 2
 79 443 l 2
 79 450 85 456 92 456 c 2
 345 456 l 1
 345 708 l 1
 345 715 350 721 357 721 c 2
 357 721 l 1
370 696 m 1
 370 443 l 1
 370 436 364 430 357 430 c 2
 105 430 l 1
 105 171 l 1
 357 171 l 1
 364 171 370 165 370 158 c 2
 370 -95 l 1
 630 -95 l 1
 630 158 l 1
 630 165 636 171 643 171 c 2
 895 171 l 1
 895 430 l 1
 643 430 l 1
 636 430 630 436 630 443 c 2
 630 696 l 1
 370 696 l 1
349 203 m 2
 145 203 l 2
 140 203 137 206 137 211 c 2
 137 390 l 2
 137 395 140 398 145 398 c 2
 349 398 l 2
 354 398 357 395 357 390 c 2
 357 211 l 2
 357 206 354 203 349 203 c 2
EndSplineSet
EndChar

StartChar: NameMe.124
Encoding: 124 57468 123
Width: 1000
VWidth: 812
Flags: HW
LayerCount: 2
Fore
SplineSet
357 721 m 1
 643 721 l 2
 643 721 l 2
 650 721 655 715 655 708 c 2
 655 456 l 1
 908 456 l 1
 915 456 921 450 921 443 c 2
 921 443 l 1
 921 158 l 2
 921 158 l 2
 921 151 915 145 908 145 c 2
 655 145 l 1
 655 -108 l 1
 655 -115 650 -121 643 -121 c 2
 643 -121 l 1
 357 -121 l 2
 357 -121 l 2
 350 -121 345 -115 345 -108 c 2
 345 145 l 1
 92 145 l 1
 85 145 79 151 79 158 c 2
 79 158 l 1
 79 443 l 2
 79 443 l 2
 79 450 85 456 92 456 c 2
 345 456 l 1
 345 708 l 1
 345 715 350 721 357 721 c 2
 357 721 l 1
370 696 m 1
 370 443 l 1
 370 436 364 430 357 430 c 2
 105 430 l 1
 105 171 l 1
 357 171 l 1
 364 171 370 165 370 158 c 2
 370 -95 l 1
 630 -95 l 1
 630 158 l 1
 630 165 636 171 643 171 c 2
 895 171 l 1
 895 430 l 1
 643 430 l 1
 636 430 630 436 630 443 c 2
 630 696 l 1
 370 696 l 1
855 203 m 2
 651 203 l 2
 646 203 643 206 643 211 c 2
 643 390 l 2
 643 395 646 398 651 398 c 2
 855 398 l 2
 860 398 863 395 863 390 c 2
 863 211 l 2
 863 206 860 203 855 203 c 2
EndSplineSet
EndChar

StartChar: NameMe.125
Encoding: 125 57469 124
Width: 1000
VWidth: 812
Flags: HW
LayerCount: 2
Fore
SplineSet
357 721 m 1
 643 721 l 2
 643 721 l 2
 650 721 655 715 655 708 c 2
 655 456 l 1
 908 456 l 1
 915 456 921 450 921 443 c 2
 921 443 l 1
 921 158 l 2
 921 158 l 2
 921 151 915 145 908 145 c 2
 655 145 l 1
 655 -108 l 1
 655 -115 650 -121 643 -121 c 2
 643 -121 l 1
 357 -121 l 2
 357 -121 l 2
 350 -121 345 -115 345 -108 c 2
 345 145 l 1
 92 145 l 1
 85 145 79 151 79 158 c 2
 79 158 l 1
 79 443 l 2
 79 443 l 2
 79 450 85 456 92 456 c 2
 345 456 l 1
 345 708 l 1
 345 715 350 721 357 721 c 2
 357 721 l 1
370 696 m 1
 370 443 l 1
 370 436 364 430 357 430 c 2
 105 430 l 1
 105 171 l 1
 357 171 l 1
 364 171 370 165 370 158 c 2
 370 -95 l 1
 630 -95 l 1
 630 158 l 1
 630 165 636 171 643 171 c 2
 895 171 l 1
 895 430 l 1
 643 430 l 1
 636 430 630 436 630 443 c 2
 630 696 l 1
 370 696 l 1
598 149 m 2
 598 -54 l 2
 598 -59 594 -63 589 -63 c 2
 411 -63 l 2
 406 -63 402 -59 402 -54 c 2
 402 149 l 2
 402 154 406 157 411 157 c 2
 589 157 l 2
 594 157 598 154 598 149 c 2
598 655 m 2
 598 451 l 2
 598 446 594 443 589 443 c 2
 411 443 l 2
 406 443 402 446 402 451 c 2
 402 655 l 2
 402 660 406 663 411 663 c 2
 589 663 l 2
 594 663 598 660 598 655 c 2
EndSplineSet
EndChar

StartChar: NameMe.126
Encoding: 126 57470 125
Width: 1000
VWidth: 812
Flags: HW
LayerCount: 2
Fore
SplineSet
357 721 m 1
 643 721 l 2
 643 721 l 2
 650 721 655 715 655 708 c 2
 655 456 l 1
 908 456 l 1
 915 456 921 450 921 443 c 2
 921 443 l 1
 921 158 l 2
 921 158 l 2
 921 151 915 145 908 145 c 2
 655 145 l 1
 655 -108 l 1
 655 -115 650 -121 643 -121 c 2
 643 -121 l 1
 357 -121 l 2
 357 -121 l 2
 350 -121 345 -115 345 -108 c 2
 345 145 l 1
 92 145 l 1
 85 145 79 151 79 158 c 2
 79 158 l 1
 79 443 l 2
 79 443 l 2
 79 450 85 456 92 456 c 2
 345 456 l 1
 345 708 l 1
 345 715 350 721 357 721 c 2
 357 721 l 1
370 696 m 1
 370 443 l 1
 370 436 364 430 357 430 c 2
 105 430 l 1
 105 171 l 1
 357 171 l 1
 364 171 370 165 370 158 c 2
 370 -95 l 1
 630 -95 l 1
 630 158 l 1
 630 165 636 171 643 171 c 2
 895 171 l 1
 895 430 l 1
 643 430 l 1
 636 430 630 436 630 443 c 2
 630 696 l 1
 370 696 l 1
855 203 m 2
 651 203 l 2
 646 203 643 206 643 211 c 2
 643 390 l 2
 643 395 646 398 651 398 c 2
 855 398 l 2
 860 398 863 395 863 390 c 2
 863 211 l 2
 863 206 860 203 855 203 c 2
349 203 m 2
 145 203 l 2
 140 203 137 206 137 211 c 2
 137 390 l 2
 137 395 140 398 145 398 c 2
 349 398 l 2
 354 398 357 395 357 390 c 2
 357 211 l 2
 357 206 354 203 349 203 c 2
EndSplineSet
EndChar

StartChar: NameMe.127
Encoding: 127 57471 126
Width: 1000
VWidth: 814
Flags: HW
LayerCount: 2
Fore
SplineSet
125 693.5 m 2
 875 693.5 l 1
 885 693.5 894 684.5 894 674.5 c 2
 894 674.5 l 1
 894 -75.5 l 2
 894 -75.5 l 2
 894 -85.5 885 -93.5 875 -93.5 c 2
 125 -93.5 l 1
 115 -93.5 106 -85.5 106 -75.5 c 2
 106 -75.5 l 1
 106 674.5 l 2
 106 674.5 l 2
 106 684.5 115 693.5 125 693.5 c 2
143 656.5 m 1
 143 -57.5 l 1
 857 -57.5 l 1
 857 656.5 l 1
 143 656.5 l 1
125 674.5 m 1
 875 674.5 l 1
 875 -75.5 l 1
 125 -75.5 l 1
 125 674.5 l 1
482 64.5 m 2
 466 64.5 453 51.5 453 35.5 c 1
 453 -2.5 l 1
 453 -2.5 l 2
 453 -18.5 466 -31.5 482 -31.5 c 1
 518 -31.5 l 2
 534 -31.5 547 -18.5 547 -2.5 c 2
 547 -2.5 l 2
 547 35.5 l 2
 547 51.5 534 64.5 518 64.5 c 1
 482 64.5 l 2
207 620.5 m 1
 207 620.5 l 2
 191 620.5 177 607.5 177 591.5 c 1
 177 552.5 l 1
 177 552.5 l 2
 177 536.5 191 522.5 207 522.5 c 2
 207 522.5 l 2
 715 522.5 l 1
 715 370.5 l 1
 483 370.5 l 1
 483 370.5 l 2
 467 370.5 454 356.5 454 340.5 c 2
 454 340.5 l 2
 454 131.5 l 1
 454 131.5 l 2
 454 115.5 467 102.5 483 102.5 c 2
 483 102.5 l 2
 518 102.5 l 2
 534 102.5 548 115.5 548 131.5 c 1
 548 272.5 l 1
 783 272.5 l 2
 799 272.5 813 285.5 813 301.5 c 1
 813 591.5 l 2
 813 607.5 799 620.5 783 620.5 c 1
 207 620.5 l 1
EndSplineSet
EndChar

